<svg width="184" height="58" viewBox="0 0 184 58" fill="none" xmlns="http://www.w3.org/2000/svg">
    <path fill-rule="evenodd" clip-rule="evenodd" d="M178.128 45.0995C177.676 45.4053 177.049 45.2674 176.729 44.7914C169.892 34.6377 163.197 24.8394 153.358 17.739C135.592 4.91796 114.243 0.575016 93.4256 3.60063C66.4579 7.52006 40.2694 21.8489 19.1504 38.6243C18.7228 38.9639 18.0903 38.8725 17.7378 38.4201C17.3852 37.9676 17.446 37.3255 17.8737 36.9858C39.1432 20.0908 65.637 5.55682 93.0546 1.572C114.316 -1.51805 136.209 2.90847 154.466 16.084C164.664 23.4437 171.557 33.5719 178.366 43.6839C178.687 44.1599 178.58 44.7937 178.128 45.0995Z" fill="url(#paint0_linear_103_7810)"/>
    <path fill-rule="evenodd" clip-rule="evenodd" d="M25.2503 38.3141C25.3571 38.8736 25.0028 39.395 24.4589 39.4787C22.0089 39.8555 19.6438 40.5941 17.2854 41.4861C16.1045 41.9327 14.9574 42.4333 13.834 42.9984C13.7087 43.0614 13.5571 43.1487 13.3792 43.251C13.2167 43.3445 13.0323 43.4505 12.8262 43.5622C12.6758 43.6437 12.4346 43.7725 12.2343 43.8305C12.1879 43.8439 12.0464 43.8842 11.8685 43.8756C11.7773 43.8712 11.5939 43.8508 11.3938 43.7357C11.1584 43.6003 10.9657 43.3696 10.8844 43.0787C10.8148 42.8295 10.8515 42.6246 10.8776 42.5229C10.9058 42.4132 10.9461 42.3297 10.9722 42.281C11.0241 42.1838 11.0835 42.1073 11.1208 42.0618C11.2683 41.8815 11.4158 41.7014 11.5633 41.5214C13.4808 39.1805 15.3833 36.8579 17.1108 34.4193C18.3715 32.6396 19.526 30.8459 20.1997 28.8797C20.3799 28.3537 20.9509 28.0959 21.475 28.3041C21.9991 28.5123 22.2779 29.1075 22.0976 29.6335C21.3266 31.8836 20.0309 33.8683 18.7556 35.6687C17.7154 37.137 16.6146 38.5626 15.4957 39.9621C15.8328 39.8238 16.1721 39.6901 16.5138 39.5609C18.9341 38.6455 21.4375 37.8577 24.0721 37.4524C24.616 37.3688 25.1435 37.7545 25.2503 38.3141Z" fill="white"/>
    <circle cx="6" cy="6" r="6" transform="matrix(0.779764 -0.626074 -0.626074 -0.779764 5.5127 59.138)" fill="#01D5DA"/>
    <circle cx="6" cy="6" r="6" transform="matrix(0.779764 -0.626074 -0.626074 -0.779764 176.838 60.0846)" fill="#01D5DA"/>
    <defs>
        <linearGradient id="paint0_linear_103_7810" x1="-8.03149" y1="51.912" x2="162.441" y2="89.0229" gradientUnits="userSpaceOnUse">
            <stop stop-color="white"/>
            <stop offset="1" stop-color="white" stop-opacity="0"/>
        </linearGradient>
    </defs>
</svg>
