<svg width="146" height="133" viewBox="0 0 146 133" fill="none" xmlns="http://www.w3.org/2000/svg">
    <circle cx="6" cy="92" r="6" fill="#01D5DA"/>
    <circle cx="140" cy="6" r="6" fill="#01D5DA"/>
    <path fill-rule="evenodd" clip-rule="evenodd" d="M139.834 18.5578C139.138 18.5291 138.552 19.0717 138.525 19.7696C138.31 25.193 138.335 30.539 138.359 35.7805C138.377 39.5384 138.394 43.2426 138.322 46.883C138.149 55.6962 137.463 64.4229 135.062 73.5363C130.766 89.8497 123.012 105.216 110.483 116.565C104.02 122.418 95.3371 127.274 86.338 129.291C77.3488 131.305 68.1441 130.472 60.4703 125.112C56.5779 122.394 53.16 118.697 50.3651 114.411C55.155 114.848 60.1199 114.57 65.2448 113.408C77.385 110.655 82.1686 99.591 81.4937 88.7016C80.8216 77.8549 74.7255 66.5397 64.3958 62.8659C58.8396 60.8899 53.7345 61.5424 49.6308 64.1567C45.5585 66.7509 42.5935 71.1964 41.0872 76.6099C38.663 85.3227 39.4999 95.4011 42.7315 104.544C43.5317 106.807 44.4814 109.021 45.57 111.15C32.7382 108.547 21.201 100.726 11.249 91.3463C10.7414 90.8679 9.94419 90.8927 9.46834 91.4017C8.99249 91.9107 9.01822 92.7111 9.52581 93.1895C20.134 103.187 32.8142 111.726 47.146 114.008C50.2782 119.285 54.3028 123.885 59.0333 127.188C67.4365 133.057 77.4137 133.883 86.8899 131.76C96.3563 129.638 105.422 124.557 112.172 118.444C125.161 106.679 133.115 90.8274 137.498 74.1858C139.971 64.7976 140.666 55.8464 140.841 46.9362C140.916 43.1411 140.897 39.4029 140.879 35.6462C140.853 30.4885 140.828 25.2959 141.042 19.8734C141.07 19.1754 140.529 18.5864 139.834 18.5578ZM48.7112 111.678C47.2965 109.155 46.086 106.473 45.1059 103.7C42.0097 94.941 41.2573 85.4038 43.5139 77.2934C44.8926 72.3386 47.5474 68.4814 50.9827 66.293C54.3866 64.1245 58.677 63.5145 63.5571 65.2501C72.6282 68.4762 78.3468 78.6523 78.979 88.8554C79.6087 99.0157 75.1865 108.56 64.6868 110.94C59.1763 112.19 53.8452 112.361 48.7112 111.678Z" fill="url(#paint0_linear_103_7810)"/>
    <path fill-rule="evenodd" clip-rule="evenodd" d="M144.581 25.7713C145.237 25.5382 145.579 24.8154 145.346 24.1569C145.322 24.0882 145.287 23.9896 145.244 23.865C144.91 22.9122 144.043 20.4374 143.127 18.134C142.612 16.8379 142.065 15.5553 141.578 14.618C141.341 14.1614 141.083 13.7172 140.817 13.3898C140.691 13.2355 140.493 13.017 140.222 12.8592C139.93 12.6892 139.353 12.4929 138.756 12.8418C137.908 13.3382 137.388 14.2187 137.043 14.9794C136.682 15.7725 136.404 16.6848 136.166 17.4734L136.147 17.5378C135.904 18.3448 135.706 18.9996 135.489 19.4807C135.402 19.6719 135.333 19.7889 135.286 19.8545C134.706 20.0423 134.332 20.6313 134.431 21.2549C134.54 21.9449 135.186 22.4161 135.873 22.3073C136.457 22.2149 136.876 21.8796 137.153 21.5602C137.426 21.2462 137.627 20.8736 137.783 20.5285C138.072 19.8892 138.314 19.086 138.534 18.3565C138.548 18.3071 138.563 18.258 138.578 18.2093C138.824 17.3941 139.056 16.6452 139.335 16.0319C139.357 15.9836 139.379 15.9374 139.4 15.8932C139.814 16.7064 140.3 17.8439 140.787 19.069C141.681 21.3168 142.528 23.734 142.866 24.6972C142.911 24.8257 142.947 24.9284 142.972 25.0013C143.205 25.6597 143.926 26.0045 144.581 25.7713ZM138.838 14.9568C138.838 14.9569 138.84 14.9591 138.844 14.9631C138.84 14.9586 138.838 14.9566 138.838 14.9568Z" fill="white"/>
    <defs>
        <linearGradient id="paint0_linear_103_7810" x1="96.8711" y1="102.673" x2="19.5611" y2="71.8955" gradientUnits="userSpaceOnUse">
            <stop stop-color="white"/>
            <stop offset="1" stop-color="white" stop-opacity="0"/>
        </linearGradient>
    </defs>
</svg>
