<svg width="155" height="120" viewBox="0 0 155 120" fill="none" xmlns="http://www.w3.org/2000/svg">
    <circle cx="6" cy="6" r="6" transform="matrix(-1 0 0 1 145 108)" fill="#01D5DA"/>
    <circle cx="6" cy="6" r="6" transform="matrix(-1 0 0 1 12 0)" fill="#01D5DA"/>
    <path fill-rule="evenodd" clip-rule="evenodd" d="M81.405 80.0381C91.0461 82.6631 101.213 84.3349 111.773 85.0024C115.631 85.2463 118.38 85.019 120.25 84.4906C122.097 83.9687 122.935 83.2052 123.295 82.4258C123.686 81.5793 123.665 80.4032 123.09 78.8812C122.525 77.382 121.478 75.695 120.077 73.9192C117.28 70.3725 113.188 66.6139 109.149 63.4866C105.095 60.3479 101.183 57.9137 98.7679 56.9609C95.2032 55.5543 91.2179 55.1581 87.8591 56.1226C84.5866 57.0624 81.7919 59.32 80.4551 63.5354C78.685 69.1172 79.3307 74.7785 81.405 80.0381ZM82.4806 82.4772C91.6867 84.8483 101.349 86.3712 111.357 87.0038C115.323 87.2545 118.376 87.0413 120.629 86.4046C122.905 85.7614 124.513 84.6353 125.263 83.0107C125.982 81.4533 125.78 79.7112 125.138 78.0111C124.488 76.2882 123.328 74.4491 121.874 72.6053C118.962 68.9127 114.754 65.0577 110.649 61.8798C106.56 58.7134 102.484 56.1509 99.8167 55.0982C95.9624 53.5773 91.4647 53.0643 87.4694 54.2116C83.3878 55.3838 79.9571 58.2592 78.39 63.2008C76.6402 68.7186 77.0709 74.2181 78.769 79.2929C48.5148 70.4196 23.6705 52.0163 8.48822 25.7199C8.22241 25.2595 7.5745 25.1359 7.04108 25.4439C6.50766 25.7519 6.29072 26.3748 6.55653 26.8352C22.2734 54.0577 48.1863 72.9375 79.6924 81.7293C79.7083 81.7667 79.7242 81.8041 79.7401 81.8414C82.2006 87.5973 86.2097 92.7412 90.4245 96.6709C97.248 103.033 107.459 109.56 118.74 113.616C130.004 117.664 142.485 119.301 153.785 115.668C154.367 115.481 154.735 114.906 154.606 114.385C154.478 113.864 153.902 113.593 153.32 113.78C142.723 117.187 130.785 115.704 119.733 111.732C108.7 107.766 98.7001 101.371 92.0465 95.1671C88.3596 91.7294 84.8563 87.3483 82.4806 82.4772Z" fill="url(#paint0_linear_103_7810)"/>
    <path fill-rule="evenodd" clip-rule="evenodd" d="M4.40412 29.3293C3.81269 29.3313 3.39283 28.8839 3.46634 28.33C3.85352 25.4127 3.5907 22.9213 3.21308 19.9856C3.21337 19.9878 3.21354 19.9892 3.21352 19.9892C3.21345 19.9892 3.21158 19.9771 3.20558 19.9416L3.17999 19.7903C3.15906 19.6658 3.13156 19.4986 3.10289 19.3073C3.04629 18.9298 2.98217 18.4396 2.95686 17.9881C2.94426 17.7636 2.93996 17.5276 2.95568 17.3087C2.96877 17.1264 3.00234 16.818 3.15217 16.5271C3.23224 16.3716 3.40244 16.1097 3.73282 15.9252C4.1009 15.7197 4.46475 15.721 4.7222 15.7877C4.95189 15.8473 5.11978 15.961 5.22642 16.0463C5.34148 16.1382 5.44483 16.2458 5.53771 16.3556C6.83028 17.8836 7.94542 19.534 9.01916 21.1618C9.15126 21.3621 9.28265 21.5619 9.41366 21.7611C10.3555 23.1932 11.2775 24.5952 12.2973 25.9218C12.4168 26.0773 13.0636 26.8282 13.7035 27.5432C14.0188 27.8955 14.3191 28.2243 14.5377 28.4521C14.6137 28.5313 14.6733 28.5915 14.7169 28.6338C14.9806 28.7844 15.1511 29.0545 15.1506 29.3814C15.1505 29.475 15.138 29.809 14.8329 30.1263C14.4754 30.4982 14.0406 30.5277 13.8519 30.515C13.6712 30.5028 13.5441 30.4495 13.4992 30.4299C13.4402 30.4041 13.3951 30.3775 13.3686 30.361C13.278 30.3046 13.2023 30.237 13.1676 30.2057C13.0771 30.1241 12.9645 30.0107 12.848 29.8892C12.6087 29.6398 12.2927 29.2936 11.9738 28.9372C11.3453 28.2349 10.6528 27.4344 10.4875 27.2193C9.42744 25.8403 8.4694 24.3832 7.53102 22.9561C7.40019 22.7571 7.26975 22.5588 7.13946 22.3612C6.56477 21.49 5.99155 20.6331 5.39529 19.8032C5.75476 22.6309 6.01573 25.2514 5.6081 28.3228C5.53459 28.8767 4.99555 29.3273 4.40412 29.3293ZM14.7823 28.6945C14.7824 28.6945 14.7808 28.6933 14.7776 28.6905C14.7807 28.693 14.7823 28.6944 14.7823 28.6945Z" fill="white"/>
    <defs>
        <linearGradient id="paint0_linear_103_7810" x1="48.4547" y1="66.4755" x2="97.0642" y2="141.535" gradientUnits="userSpaceOnUse">
            <stop stop-color="white"/>
            <stop offset="1" stop-color="white" stop-opacity="0"/>
        </linearGradient>
    </defs>
</svg>
