<svg width="184" height="56" viewBox="0 0 184 56" fill="none" xmlns="http://www.w3.org/2000/svg">
    <path fill-rule="evenodd" clip-rule="evenodd" d="M6.80889 44.4442C7.25835 44.7539 7.88591 44.6215 8.21058 44.1484C15.1365 34.0552 21.9177 24.3162 31.8188 17.3026C49.6968 4.63835 71.0826 0.483362 91.873 3.69199C118.805 7.84848 144.867 22.4071 165.837 39.3676C166.262 39.7111 166.895 39.6252 167.252 39.1759C167.608 38.7266 167.553 38.0839 167.128 37.7405C146.008 20.659 119.643 5.89255 92.2618 1.6667C71.0286 -1.61026 49.0977 2.6235 30.7253 15.6379C20.4627 22.9076 13.4805 32.9748 6.58293 43.0266C6.25826 43.4997 6.35942 44.1344 6.80889 44.4442Z" fill="url(#paint0_linear_103_7810)"/>
    <path fill-rule="evenodd" clip-rule="evenodd" d="M159.74 39.0038C159.628 39.5624 159.978 40.0869 160.521 40.1753C162.967 40.5737 165.326 41.333 167.676 42.2457C168.853 42.7028 169.996 43.2134 171.114 43.7884C171.239 43.8525 171.39 43.9411 171.567 44.0449C171.729 44.1399 171.912 44.2475 172.117 44.361C172.267 44.4438 172.507 44.5747 172.707 44.6345C172.753 44.6483 172.894 44.6899 173.072 44.6828C173.163 44.6792 173.347 44.6605 173.548 44.5471C173.784 44.4138 173.979 44.1847 174.063 43.8946C174.135 43.646 174.1 43.4408 174.075 43.3389C174.048 43.2289 174.008 43.1451 173.982 43.0961C173.931 42.9985 173.873 42.9215 173.836 42.8757C173.69 42.6941 173.544 42.5127 173.398 42.3314C171.501 39.9738 169.619 37.6345 167.913 35.1808C166.668 33.39 165.529 31.5863 164.873 29.6143C164.697 29.0866 164.129 28.8239 163.603 29.0274C163.077 29.231 162.793 29.8237 162.969 30.3513C163.72 32.6081 164.998 34.6041 166.257 36.4156C167.285 37.893 168.373 39.3283 169.479 40.7375C169.144 40.5963 168.805 40.4596 168.465 40.3274C166.053 39.3907 163.556 38.5809 160.925 38.1525C160.382 38.0641 159.851 38.4452 159.74 39.0038Z" fill="white"/>
    <circle cx="6" cy="6" r="6" transform="matrix(0.779764 -0.626074 -0.626074 -0.779764 5.5127 57.138)" fill="#01D5DA"/>
    <circle cx="6" cy="6" r="6" transform="matrix(0.779764 -0.626074 -0.626074 -0.779764 176.838 58.0846)" fill="#01D5DA"/>
    <defs>
        <linearGradient id="paint0_linear_103_7810" x1="192.901" y1="52.894" x2="22.1091" y2="88.5038" gradientUnits="userSpaceOnUse">
            <stop stop-color="white"/>
            <stop offset="1" stop-color="white" stop-opacity="0"/>
        </linearGradient>
    </defs>
</svg>
