<svg width="60" height="60" viewBox="0 0 60 60" fill="none" xmlns="http://www.w3.org/2000/svg">
    <rect x="0.5" y="0.5" width="59" height="59" rx="5.5" fill="#232D44" stroke="#36394C"/>
    <path d="M15.1308 31.9803C19.466 31.9803 22.9804 28.4659 22.9804 24.1307C22.9804 19.7955 19.466 16.2811 15.1308 16.2811C10.7956 16.2811 7.28125 19.7955 7.28125 24.1307C7.28125 28.4659 10.7956 31.9803 15.1308 31.9803Z" fill="#7392E1"/>
    <path fill-rule="evenodd" clip-rule="evenodd" d="M18.9506 41.5043C19.1828 41.2444 19.5817 41.2221 19.8415 41.4543C22.5828 43.9044 26.2206 45.4079 30.1984 45.4079C33.0349 45.4079 35.7029 44.6323 38.0095 43.2969C38.3111 43.1223 38.6971 43.2253 38.8717 43.5268C39.0463 43.8284 38.9434 44.2145 38.6418 44.3891C36.1528 45.8301 33.268 46.6698 30.1984 46.6698C25.8976 46.6698 21.9635 45.0435 19.0005 42.3952C18.7407 42.163 18.7183 41.7641 18.9506 41.5043Z" fill="#ACBFEB"/>
    <path fill-rule="evenodd" clip-rule="evenodd" d="M30.1992 14.2872C27.3351 14.2872 24.6187 15.0639 22.3168 16.4209C22.0165 16.5978 21.6297 16.4979 21.4527 16.1977C21.2758 15.8975 21.3757 15.5107 21.6759 15.3337C24.1695 13.8638 27.1068 13.0252 30.1992 13.0252C34.8421 13.0252 39.0377 14.9147 42.1023 17.9532C42.3498 18.1985 42.3515 18.5981 42.1062 18.8455C41.8608 19.093 41.4613 19.0947 41.2138 18.8494C38.3724 16.0322 34.4913 14.2872 30.1992 14.2872Z" fill="#ACBFEB"/>
    <path fill-rule="evenodd" clip-rule="evenodd" d="M15.1307 14.262C9.68037 14.262 5.26199 18.6804 5.26199 24.1307C5.26199 29.5811 9.68037 33.9995 15.1307 33.9995C20.5811 33.9995 24.9995 29.5811 24.9995 24.1307C24.9995 18.6804 20.5811 14.262 15.1307 14.262ZM4 24.1307C4 17.9834 8.98339 13 15.1307 13C21.2781 13 26.2614 17.9834 26.2614 24.1307C26.2614 30.2781 21.2781 35.2615 15.1307 35.2615C8.98339 35.2615 4 30.2781 4 24.1307Z" fill="#ACBFEB"/>
    <path fill-rule="evenodd" clip-rule="evenodd" d="M45.1659 26.0237C39.7155 26.0237 35.2971 30.4421 35.2971 35.8924C35.2971 41.3428 39.7155 45.7612 45.1659 45.7612C50.6162 45.7612 55.0346 41.3428 55.0346 35.8924C55.0346 30.4421 50.6162 26.0237 45.1659 26.0237ZM34.0352 35.8924C34.0352 29.7451 39.0185 24.7617 45.1659 24.7617C51.3132 24.7617 56.2966 29.7451 56.2966 35.8924C56.2966 42.0398 51.3132 47.0232 45.1659 47.0232C39.0185 47.0232 34.0352 42.0398 34.0352 35.8924Z" fill="#6373A6"/>
    <path d="M44.0301 19.7643L42.869 16.3822C42.6419 15.7007 41.7585 15.5493 41.3042 16.0793L38.9569 18.7799C38.5026 19.31 38.7802 20.1429 39.4617 20.2943L42.97 20.9758C43.6767 21.102 44.2572 20.4458 44.0301 19.7643Z" fill="#ACBFEB"/>
    <path d="M16.4436 40.5114L17.6046 43.8935C17.8317 44.575 18.7151 44.7264 19.1694 44.1964L21.5167 41.4957C21.9711 40.9657 21.6934 40.1328 21.0119 39.9813L17.5036 39.2999C16.7969 39.1737 16.2164 39.8552 16.4436 40.5114Z" fill="#ACBFEB"/>
    <path fill-rule="evenodd" clip-rule="evenodd" d="M45.1152 31.8036C44.2775 31.8036 43.6009 32.4802 43.6009 33.318C43.6009 33.8848 43.9861 34.3578 44.6445 34.6258C44.8057 34.6902 44.9783 34.7449 45.1707 34.8025C45.2114 34.8146 45.2535 34.8271 45.2968 34.8399C45.45 34.8852 45.6164 34.9344 45.7769 34.9883C46.1943 35.1286 46.6629 35.3287 47.0645 35.7129C47.642 36.2591 47.9926 37.0544 47.9926 37.8612C47.9926 39.5221 46.6248 40.8899 44.9638 40.8899C44.0734 40.8899 43.2727 40.5074 42.7268 39.8972C42.4944 39.6375 42.5166 39.2386 42.7763 39.0063C43.036 38.7739 43.4349 38.796 43.6673 39.0558C43.9795 39.4047 44.4408 39.6279 44.9638 39.6279C45.9278 39.6279 46.7306 38.8251 46.7306 37.8612C46.7306 37.4066 46.5266 36.9407 46.1964 36.6288L46.193 36.6257C45.9893 36.4304 45.7267 36.3028 45.3749 36.1845C45.2385 36.1387 45.1023 36.0984 44.9533 36.0544C44.9066 36.0405 44.8586 36.0263 44.809 36.0115C44.6092 35.9517 44.3911 35.8836 44.1742 35.7968L44.171 35.7956L44.171 35.7956C43.215 35.4072 42.3389 34.568 42.3389 33.318C42.3389 31.7832 43.5805 30.5416 45.1152 30.5416C45.9019 30.5416 46.5888 30.8704 47.0758 31.3574C47.3222 31.6039 47.3222 32.0034 47.0758 32.2498C46.8294 32.4962 46.4299 32.4962 46.1834 32.2498C45.9132 31.9796 45.5401 31.8036 45.1152 31.8036Z" fill="#ACBFEB"/>
    <path fill-rule="evenodd" clip-rule="evenodd" d="M45.1408 29.0524C45.4892 29.0524 45.7718 29.3349 45.7718 29.6834V31.1473C45.7718 31.4958 45.4892 31.7783 45.1408 31.7783C44.7923 31.7783 44.5098 31.4958 44.5098 31.1473V29.6834C44.5098 29.3349 44.7923 29.0524 45.1408 29.0524Z" fill="#ACBFEB"/>
    <path fill-rule="evenodd" clip-rule="evenodd" d="M45.1408 39.6784C45.4892 39.6784 45.7718 39.9609 45.7718 40.3094V42.1014C45.7718 42.4499 45.4892 42.7324 45.1408 42.7324C44.7923 42.7324 44.5098 42.4499 44.5098 42.1014V40.3094C44.5098 39.9609 44.7923 39.6784 45.1408 39.6784Z" fill="#ACBFEB"/>
    <path fill-rule="evenodd" clip-rule="evenodd" d="M45.1659 26.0237C39.7155 26.0237 35.2971 30.4421 35.2971 35.8924C35.2971 41.3428 39.7155 45.7612 45.1659 45.7612C50.6162 45.7612 55.0346 41.3428 55.0346 35.8924C55.0346 30.4421 50.6162 26.0237 45.1659 26.0237ZM34.0352 35.8924C34.0352 29.7451 39.0185 24.7617 45.1659 24.7617C51.3132 24.7617 56.2966 29.7451 56.2966 35.8924C56.2966 42.0398 51.3132 47.0232 45.1659 47.0232C39.0185 47.0232 34.0352 42.0398 34.0352 35.8924Z" fill="#6373A6"/>
    <path fill-rule="evenodd" clip-rule="evenodd" d="M15.5597 27.5885C15.9082 27.5885 16.1907 27.871 16.1907 28.2195V29.9358C16.1907 30.2843 15.9082 30.5668 15.5597 30.5668C15.2112 30.5668 14.9287 30.2843 14.9287 29.9358V28.2195C14.9287 27.871 15.2112 27.5885 15.5597 27.5885Z" fill="#6373A6"/>
    <path fill-rule="evenodd" clip-rule="evenodd" d="M15.5597 17.6946C15.9082 17.6946 16.1907 17.9771 16.1907 18.3256V20.0672C16.1907 20.4157 15.9082 20.6982 15.5597 20.6982C15.2112 20.6982 14.9287 20.4157 14.9287 20.0672V18.3256C14.9287 17.9771 15.2112 17.6946 15.5597 17.6946Z" fill="#6373A6"/>
    <path fill-rule="evenodd" clip-rule="evenodd" d="M13.6661 17.6946C14.0146 17.6946 14.2971 17.9771 14.2971 18.3256V29.9359C14.2971 30.2844 14.0146 30.5669 13.6661 30.5669C13.3177 30.5669 13.0352 30.2844 13.0352 29.9359V18.3256C13.0352 17.9771 13.3177 17.6946 13.6661 17.6946Z" fill="#232D44"/>
    <path fill-rule="evenodd" clip-rule="evenodd" d="M11.4707 20.0672C11.4707 19.7187 11.7532 19.4362 12.1017 19.4362H16.1148C17.5739 19.4362 18.765 20.6273 18.765 22.0863V22.1116C18.765 23.5706 17.5739 24.7617 16.1148 24.7617H13.6918C13.3433 24.7617 13.0608 24.4792 13.0608 24.1308C13.0608 23.7823 13.3433 23.4998 13.6918 23.4998H16.1148C16.8769 23.4998 17.503 22.8736 17.503 22.1116V22.0863C17.503 21.3243 16.8769 20.6981 16.1148 20.6981H12.1017C11.7532 20.6981 11.4707 20.4156 11.4707 20.0672Z" fill="#232D44"/>
    <path fill-rule="evenodd" clip-rule="evenodd" d="M13.0354 24.1307C13.0354 23.7822 13.3179 23.4997 13.6664 23.4997H16.0894C17.5485 23.4997 18.7396 24.6908 18.7396 26.1499V26.1751C18.7396 27.6341 17.5485 28.8253 16.0894 28.8253H12.0763C11.7278 28.8253 11.4453 28.5428 11.4453 28.1943C11.4453 27.8458 11.7278 27.5633 12.0763 27.5633H16.0894C16.8515 27.5633 17.4776 26.9372 17.4776 26.1751V26.1499C17.4776 25.3878 16.8515 24.7617 16.0894 24.7617H13.6664C13.3179 24.7617 13.0354 24.4792 13.0354 24.1307Z" fill="#232D44"/>
</svg>
