<svg width="60" height="60" viewBox="0 0 60 60" fill="none" xmlns="http://www.w3.org/2000/svg">
    <rect x="0.5" y="0.5" width="59" height="59" rx="5.5" fill="#232D44" stroke="#36394C"/>
    <path d="M40.8558 25.4833C41.7371 19.627 37.5866 14.1823 31.5853 13.3223C25.5839 12.4622 20.0045 16.5125 19.1231 22.3688C18.2418 28.2252 22.3924 33.6699 28.3937 34.5299C34.395 35.3899 39.9745 31.3396 40.8558 25.4833Z" fill="#7392E1"/>
    <path fill-rule="evenodd" clip-rule="evenodd" d="M30.2795 27.7528C30.6259 27.7528 30.9067 28.0268 30.9067 28.3648V30.2499C30.9067 30.5879 30.6259 30.8619 30.2795 30.8619C29.9331 30.8619 29.6523 30.5879 29.6523 30.2499V28.3648C29.6523 28.0268 29.9331 27.7528 30.2795 27.7528Z" fill="#232D44"/>
    <path fill-rule="evenodd" clip-rule="evenodd" d="M30.2795 16.9565C30.6259 16.9565 30.9067 17.2306 30.9067 17.5686V19.4536C30.9067 19.7917 30.6259 20.0657 30.2795 20.0657C29.9331 20.0657 29.6523 19.7917 29.6523 19.4536V17.5686C29.6523 17.2306 29.9331 16.9565 30.2795 16.9565Z" fill="#232D44"/>
    <path fill-rule="evenodd" clip-rule="evenodd" d="M28.1721 16.9565C28.5185 16.9565 28.7993 17.2306 28.7993 17.5686V30.2499C28.7993 30.5879 28.5185 30.8619 28.1721 30.8619C27.8257 30.8619 27.5449 30.5879 27.5449 30.2499V17.5686C27.5449 17.2306 27.8257 16.9565 28.1721 16.9565Z" fill="#232D44"/>
    <path fill-rule="evenodd" clip-rule="evenodd" d="M25.7891 19.4536C25.7891 19.1156 26.0699 18.8416 26.4162 18.8416H30.9069C32.5076 18.8416 33.7919 20.0949 33.7919 21.6569V21.6814C33.7919 23.2435 32.5076 24.4968 30.9069 24.4968H28.1724C27.826 24.4968 27.5452 24.2228 27.5452 23.8847C27.5452 23.5467 27.826 23.2727 28.1724 23.2727H30.9069C31.8149 23.2727 32.5376 22.5675 32.5376 21.6814V21.6569C32.5376 20.7709 31.8149 20.0656 30.9069 20.0656H26.4162C26.0699 20.0656 25.7891 19.7916 25.7891 19.4536Z" fill="#232D44"/>
    <path fill-rule="evenodd" clip-rule="evenodd" d="M27.5452 23.9092C27.5452 23.5712 27.826 23.2972 28.1724 23.2972H30.9069C32.5076 23.2972 33.7919 24.5505 33.7919 26.1126V26.137C33.7919 27.6991 32.5076 28.9524 30.9069 28.9524H26.4162C26.0699 28.9524 25.7891 28.6784 25.7891 28.3404C25.7891 28.0023 26.0699 27.7283 26.4162 27.7283H30.9069C31.8149 27.7283 32.5376 27.0231 32.5376 26.137V26.1126C32.5376 25.2265 31.8149 24.5213 30.9069 24.5213H28.1724C27.826 24.5213 27.5452 24.2473 27.5452 23.9092Z" fill="#232D44"/>
    <path fill-rule="evenodd" clip-rule="evenodd" d="M30.0153 11.4641C22.9866 11.4641 17.2621 17.0232 17.2621 23.9092C17.2621 30.7681 22.9588 36.3543 30.0153 36.3543C37.0439 36.3543 42.7685 30.7952 42.7685 23.9092C42.7685 21.6155 42.1173 19.4577 41.0098 17.6011C40.8014 17.2517 40.9227 16.8035 41.2808 16.6001C41.6389 16.3967 42.0981 16.5151 42.3065 16.8645C43.5396 18.9317 44.2688 21.342 44.2688 23.9092C44.2688 31.6059 37.8704 37.8184 30.0153 37.8184C22.128 37.8184 15.7617 31.5745 15.7617 23.9092C15.7617 16.2125 22.1602 10 30.0153 10C32.6113 10 35.0505 10.6799 37.1413 11.8546C37.5003 12.0563 37.6238 12.5039 37.4171 12.8543C37.2104 13.2047 36.7517 13.3252 36.3926 13.1234C34.5225 12.0727 32.3405 11.4641 30.0153 11.4641Z" fill="#ACBFEB"/>
    <path fill-rule="evenodd" clip-rule="evenodd" d="M16.002 45.1684C16.002 44.7641 16.3378 44.4363 16.7521 44.4363H49.2502C49.6646 44.4363 50.0004 44.7641 50.0004 45.1684C50.0004 45.5727 49.6646 45.9005 49.2502 45.9005H16.7521C16.3378 45.9005 16.002 45.5727 16.002 45.1684Z" fill="#ACBFEB"/>
    <path fill-rule="evenodd" clip-rule="evenodd" d="M10 41.0688C10 40.6645 10.3359 40.3367 10.7502 40.3367H43.2483C43.6626 40.3367 43.9985 40.6645 43.9985 41.0688C43.9985 41.4731 43.6626 41.8009 43.2483 41.8009H10.7502C10.3359 41.8009 10 41.4731 10 41.0688Z" fill="#ACBFEB"/>
    <path fill-rule="evenodd" clip-rule="evenodd" d="M10 49.268C10 48.8636 10.3359 48.5359 10.7502 48.5359H43.2483C43.6626 48.5359 43.9985 48.8636 43.9985 49.268C43.9985 49.6723 43.6626 50 43.2483 50H10.7502C10.3359 50 10 49.6723 10 49.268Z" fill="#ACBFEB"/>
</svg>
