<svg width="60" height="60" viewBox="0 0 60 60" fill="none" xmlns="http://www.w3.org/2000/svg">
    <path d="M0.5 6C0.5 2.96244 2.96243 0.5 6 0.5H54C57.0376 0.5 59.5 2.96243 59.5 6V54C59.5 57.0376 57.0376 59.5 54 59.5H6C2.96244 59.5 0.5 57.0376 0.5 54V6Z" fill="#232D44"/>
    <path d="M0.5 6C0.5 2.96244 2.96243 0.5 6 0.5H54C57.0376 0.5 59.5 2.96243 59.5 6V54C59.5 57.0376 57.0376 59.5 54 59.5H6C2.96244 59.5 0.5 57.0376 0.5 54V6Z" fill="#232D44"/>
    <path d="M0.5 6C0.5 2.96244 2.96243 0.5 6 0.5H54C57.0376 0.5 59.5 2.96243 59.5 6V54C59.5 57.0376 57.0376 59.5 54 59.5H6C2.96244 59.5 0.5 57.0376 0.5 54V6Z" stroke="#36394C"/>
    <path fill-rule="evenodd" clip-rule="evenodd" d="M25.9333 10.0403C26.2744 9.91445 26.6515 10.093 26.7759 10.4395L27.9089 13.5937C28.611 13.5024 29.3302 13.4494 30.0526 13.4494C30.775 13.4494 31.4942 13.5024 32.1963 13.5937L33.3293 10.4395C33.4538 10.093 33.8308 9.91445 34.1719 10.0403L39.4614 11.9922C39.6256 12.0528 39.7593 12.1772 39.8331 12.338C39.9069 12.4989 39.9147 12.6829 39.8549 12.8497L38.7247 15.9961C39.9436 16.7762 41.0363 17.726 42.0038 18.8003L44.8544 17.1223C45.0061 17.033 45.1866 17.0089 45.3558 17.0554C45.525 17.1018 45.669 17.215 45.7558 17.3697L48.5453 22.3429C48.7243 22.6621 48.6163 23.0682 48.3035 23.2523L45.4562 24.9284C45.8893 26.2907 46.1295 27.7317 46.1944 29.2209L49.4546 29.796C49.6267 29.8264 49.7799 29.925 49.8803 30.0702C49.9808 30.2154 50.0203 30.3953 49.9901 30.5701L49.0164 36.2118C48.9862 36.387 48.8885 36.5427 48.7449 36.6445C48.6014 36.7463 48.4238 36.7857 48.2515 36.7541L44.995 36.1567C44.4496 37.5109 43.7313 38.7904 42.8522 39.9385L44.9776 42.5115C45.211 42.794 45.175 43.2152 44.8973 43.4527L40.5815 47.1425C40.4479 47.2567 40.275 47.3123 40.101 47.297C39.9271 47.2816 39.7662 47.1966 39.654 47.0607L37.525 44.4835C36.257 45.153 34.9017 45.6603 33.4737 45.9759V49.3316C33.4737 49.7007 33.1791 50 32.8158 50H27.1842C26.8209 50 26.5263 49.7007 26.5263 49.3316V45.9761C25.099 45.6614 23.7295 45.1557 22.473 44.4859L20.346 47.0607C20.2338 47.1966 20.0729 47.2816 19.899 47.297C19.725 47.3123 19.5521 47.2567 19.4185 47.1425L15.1027 43.4527C14.825 43.2152 14.789 42.794 15.0224 42.5115L17.1512 39.9344C16.2889 38.7905 15.5548 37.5118 15.0043 36.1531L11.7441 36.7282C11.3866 36.7912 11.0463 36.5482 10.9836 36.185L10.0099 30.5433C9.97972 30.3685 10.0192 30.1887 10.1197 30.0435C10.2201 29.8983 10.3733 29.7996 10.5454 29.7693L13.8059 29.1941C13.8714 27.7207 14.1126 26.2803 14.5458 24.9028L11.6965 23.2256C11.3823 23.0406 11.275 22.6319 11.4568 22.3125L14.2726 17.366C14.4533 17.0486 14.852 16.9383 15.1661 17.1189L18.0939 18.8023C19.0559 17.7229 20.1668 16.7897 21.3824 16.001L20.2504 12.8497C20.1905 12.6829 20.1983 12.4989 20.2721 12.338C20.3459 12.1772 20.4797 12.0528 20.6438 11.9922L25.9333 10.0403ZM21.7123 13.0202L22.8022 16.0544C22.9106 16.356 22.7926 16.6932 22.5212 16.8576C21.0775 17.7327 19.7937 18.8087 18.7406 20.0825C18.5367 20.3291 18.1887 20.3929 17.9128 20.2343L15.0853 18.6086L12.925 22.4036L15.6719 24.0206C15.9472 24.1827 16.0689 24.5217 15.961 24.8258C15.409 26.3807 15.1305 28.0447 15.1052 29.7694C15.1005 30.0907 14.8715 30.3631 14.5599 30.418L11.4197 30.9719L12.1661 35.2968L15.3085 34.7425C15.6209 34.6874 15.9276 34.8666 16.0379 35.1686C16.6166 36.7538 17.4738 38.2404 18.5087 39.5227C18.7094 39.7714 18.7074 40.13 18.5039 40.3763L16.4527 42.8596L19.7617 45.6886L21.8119 43.2067C22.0164 42.9591 22.366 42.8956 22.6422 43.056C24.0501 43.8734 25.6372 44.4626 27.3019 44.7701C27.6147 44.8279 27.8421 45.1048 27.8421 45.4278V48.6631H32.1579V45.4278C32.1579 45.1048 32.3853 44.8279 32.6981 44.7701C34.36 44.4631 35.9228 43.8745 37.3621 43.0535C37.6379 42.8962 37.9848 42.9605 38.1881 43.2067L40.2383 45.6886L43.5473 42.8596L41.4961 40.3763C41.2907 40.1277 41.2908 39.7651 41.4962 39.5166C42.5499 38.2422 43.3814 36.7592 43.9621 35.1686C44.073 34.865 44.3822 34.6858 44.6958 34.7433L47.8346 35.3191L48.5803 30.9987L45.4401 30.4448C45.1285 30.3898 44.8995 30.1173 44.8948 29.796C44.8694 28.0434 44.5906 26.381 44.0402 24.8559C43.9302 24.5511 44.0516 24.2101 44.3281 24.0474L47.0787 22.4282L44.9407 18.6166L42.1982 20.2309C41.9243 20.3922 41.5761 20.3323 41.3696 20.0884C40.2808 18.8021 39.0209 17.7029 37.5914 16.8621C37.3152 16.6996 37.1936 16.3591 37.303 16.0544L38.3929 13.0202L34.3402 11.5247L33.2496 14.5609C33.1419 14.8608 32.8405 15.0414 32.53 14.9921C31.7158 14.8629 30.8817 14.7862 30.0526 14.7862C29.2235 14.7862 28.3894 14.8629 27.5752 14.9921C27.2648 15.0414 26.9634 14.8608 26.8557 14.5609L25.7651 11.5247L21.7123 13.0202Z" fill="#ACBFEB"/>
    <path d="M30.0263 38.6899C34.7498 38.6899 38.5789 34.7993 38.5789 30.0001C38.5789 25.2009 34.7498 21.3103 30.0263 21.3103C25.3028 21.3103 21.4736 25.2009 21.4736 30.0001C21.4736 34.7993 25.3028 38.6899 30.0263 38.6899Z" fill="#7392E1"/>
    <path fill-rule="evenodd" clip-rule="evenodd" d="M30.3161 33.7701C30.6794 33.7701 30.974 34.0694 30.974 34.4386V36.3102C30.974 36.6794 30.6794 36.9787 30.3161 36.9787C29.9528 36.9787 29.6582 36.6794 29.6582 36.3102V34.4386C29.6582 34.0694 29.9528 33.7701 30.3161 33.7701Z" fill="#232D44"/>
    <path fill-rule="evenodd" clip-rule="evenodd" d="M30.3161 23.0482C30.6794 23.0482 30.974 23.3475 30.974 23.7167V25.5883C30.974 25.9575 30.6794 26.2568 30.3161 26.2568C29.9528 26.2568 29.6582 25.9575 29.6582 25.5883V23.7167C29.6582 23.3475 29.9528 23.0482 30.3161 23.0482Z" fill="#232D44"/>
    <path fill-rule="evenodd" clip-rule="evenodd" d="M28.3161 23.0482C28.6794 23.0482 28.974 23.3475 28.974 23.7167V36.3102C28.974 36.6794 28.6794 36.9786 28.3161 36.9786C27.9528 36.9786 27.6582 36.6794 27.6582 36.3102V23.7167C27.6582 23.3475 27.9528 23.0482 28.3161 23.0482Z" fill="#232D44"/>
    <path fill-rule="evenodd" clip-rule="evenodd" d="M25.9736 25.5884C25.9736 25.2192 26.2682 24.9199 26.6315 24.9199H30.8947C32.4422 24.9199 33.7105 26.2085 33.7105 27.7809V27.8076C33.7105 29.38 32.4422 30.6686 30.8947 30.6686H28.2894C27.9261 30.6686 27.6315 30.3693 27.6315 30.0001C27.6315 29.6309 27.9261 29.3317 28.2894 29.3317H30.8947C31.7155 29.3317 32.3947 28.6416 32.3947 27.8076V27.7809C32.3947 26.9468 31.7155 26.2568 30.8947 26.2568H26.6315C26.2682 26.2568 25.9736 25.9575 25.9736 25.5884Z" fill="#232D44"/>
    <path fill-rule="evenodd" clip-rule="evenodd" d="M27.6579 30.0001C27.6579 29.6309 27.9524 29.3317 28.3158 29.3317H30.9211C32.4686 29.3317 33.7368 30.6202 33.7368 32.1926V32.2193C33.7368 33.7917 32.4686 35.0803 30.9211 35.0803H26.6579C26.2945 35.0803 26 34.781 26 34.4119C26 34.0427 26.2945 33.7434 26.6579 33.7434H30.9211C31.7419 33.7434 32.4211 33.0534 32.4211 32.2193V32.1926C32.4211 31.3586 31.7419 30.6686 30.9211 30.6686H28.3158C27.9524 30.6686 27.6579 30.3693 27.6579 30.0001Z" fill="#232D44"/>
    <path fill-rule="evenodd" clip-rule="evenodd" d="M30.0002 19.7328C24.4161 19.7328 19.8949 24.3265 19.8949 30.0001C19.8949 35.6737 24.4161 40.2674 30.0002 40.2674C35.5842 40.2674 40.1054 35.6737 40.1054 30.0001C40.1054 28.1145 39.6108 26.3334 38.723 24.8051C38.5384 24.4872 38.6423 24.0773 38.9552 23.8897C39.2682 23.7021 39.6715 23.8077 39.8562 24.1256C40.8632 25.8593 41.4212 27.875 41.4212 30.0001C41.4212 36.412 36.3109 41.6043 30.0002 41.6043C23.6894 41.6043 18.5791 36.412 18.5791 30.0001C18.5791 23.5882 23.6894 18.3959 30.0002 18.3959C32.0947 18.3959 34.0228 18.9643 35.7223 19.9551C36.0375 20.1388 36.1464 20.5474 35.9655 20.8676C35.7847 21.1878 35.3826 21.2984 35.0675 21.1147C33.5565 20.2338 31.8529 19.7328 30.0002 19.7328Z" fill="#ACBFEB"/>
</svg>
