<svg width="60" height="60" viewBox="0 0 60 60" fill="none" xmlns="http://www.w3.org/2000/svg">
    <rect x="0.5" y="0.5" width="59" height="59" rx="5.5" fill="#232D44" stroke="#36394C"/>
    <path d="M29.9997 46.036C38.8727 46.036 46.0657 38.843 46.0657 29.97C46.0657 21.0969 38.8727 13.9039 29.9997 13.9039C21.1266 13.9039 13.9336 21.0969 13.9336 29.97C13.9336 38.843 21.1266 46.036 29.9997 46.036Z" fill="#7392E1"/>
    <path fill-rule="evenodd" clip-rule="evenodd" d="M30.5408 36.997C30.9554 36.997 31.2915 37.3331 31.2915 37.7478V41.0511C31.2915 41.4657 30.9554 41.8018 30.5408 41.8018C30.1262 41.8018 29.79 41.4657 29.79 41.0511V37.7478C29.79 37.3331 30.1262 36.997 30.5408 36.997Z" fill="#232D44"/>
    <path fill-rule="evenodd" clip-rule="evenodd" d="M30.5408 18.1381C30.9554 18.1381 31.2915 18.4742 31.2915 18.8889V22.1922C31.2915 22.6068 30.9554 22.9429 30.5408 22.9429C30.1262 22.9429 29.79 22.6068 29.79 22.1922V18.8889C29.79 18.4742 30.1262 18.1381 30.5408 18.1381Z" fill="#232D44"/>
    <path fill-rule="evenodd" clip-rule="evenodd" d="M26.9373 18.1381C27.3519 18.1381 27.688 18.4742 27.688 18.8889V41.0511C27.688 41.4657 27.3519 41.8018 26.9373 41.8018C26.5226 41.8018 26.1865 41.4657 26.1865 41.0511V18.8889C26.1865 18.4742 26.5226 18.1381 26.9373 18.1381Z" fill="#232D44"/>
    <path fill-rule="evenodd" clip-rule="evenodd" d="M23.1836 22.1922C23.1836 21.7776 23.5197 21.4414 23.9343 21.4414H31.592C34.1388 21.4414 36.2166 23.5193 36.2166 26.0661V26.0961C36.2166 28.6428 34.1388 30.7207 31.592 30.7207H26.9373C26.5227 30.7207 26.1866 30.3846 26.1866 29.97C26.1866 29.5553 26.5227 29.2192 26.9373 29.2192H31.592C33.3095 29.2192 34.7151 27.8136 34.7151 26.0961V26.0661C34.7151 24.3486 33.3095 22.9429 31.592 22.9429H23.9343C23.5197 22.9429 23.1836 22.6068 23.1836 22.1922Z" fill="#232D44"/>
    <path fill-rule="evenodd" clip-rule="evenodd" d="M26.1866 29.97C26.1866 29.5554 26.5227 29.2192 26.9373 29.2192H31.592C34.1388 29.2192 36.2166 31.2971 36.2166 33.8439V33.8739C36.2166 36.4207 34.1388 38.4985 31.592 38.4985H23.9343C23.5197 38.4985 23.1836 38.1624 23.1836 37.7478C23.1836 37.3331 23.5197 36.997 23.9343 36.997H31.592C33.3095 36.997 34.7151 35.5914 34.7151 33.8739V33.8439C34.7151 32.1264 33.3095 30.7207 31.592 30.7207H26.9373C26.5227 30.7207 26.1866 30.3846 26.1866 29.97Z" fill="#232D44"/>
    <path fill-rule="evenodd" clip-rule="evenodd" d="M30 11.5015C19.784 11.5015 11.5015 19.784 11.5015 30C11.5015 40.216 19.784 48.4985 30 48.4985C33.5492 48.4985 36.8678 47.4889 39.6981 45.7561C40.0517 45.5396 40.5139 45.6508 40.7304 46.0044C40.9469 46.358 40.8357 46.8202 40.4821 47.0367C37.4265 48.9074 33.8382 50 30 50C18.9547 50 10 41.0452 10 30C10 18.9547 18.9547 10 30 10C33.649 10 37.0516 10.9675 40.0158 12.6836C40.3746 12.8914 40.4971 13.3506 40.2894 13.7095C40.0816 14.0683 39.6223 14.1908 39.2635 13.983C36.522 12.3959 33.3781 11.5015 30 11.5015Z" fill="#ACBFEB"/>
    <path fill-rule="evenodd" clip-rule="evenodd" d="M46.2251 19.5635C46.5823 19.3529 47.0425 19.4718 47.2531 19.829C49.0019 22.7958 49.9997 26.2906 49.9997 29.97C49.9997 34.3991 48.5643 38.4881 46.1299 41.7963C45.8842 42.1303 45.4142 42.2018 45.0803 41.9561C44.7463 41.7103 44.6748 41.2404 44.9205 40.9064C47.1709 37.8483 48.4982 34.0694 48.4982 29.97C48.4982 26.5623 47.574 23.3303 45.9596 20.5915C45.749 20.2343 45.8679 19.774 46.2251 19.5635Z" fill="#ACBFEB"/>
    <path fill-rule="evenodd" clip-rule="evenodd" d="M42.1279 44.1279C42.2382 44.0176 42.399 43.9745 42.5497 44.0149L48.6807 45.6568C48.8314 45.6972 48.9491 45.8149 48.9895 45.9656C49.0299 46.1163 48.9868 46.2771 48.8765 46.3874L47.9276 47.3363L49.8721 49.2808C49.954 49.3626 50 49.4737 50 49.5895C50 49.7053 49.954 49.8164 49.8721 49.8983L47.8983 51.8721C47.7278 52.0426 47.4513 52.0426 47.2807 51.8721L45.3363 49.9276L44.3874 50.8765C44.2771 50.9868 44.1163 51.0299 43.9656 50.9895C43.8149 50.9491 43.6972 50.8314 43.6568 50.6807L42.0149 44.5497C41.9745 44.399 42.0176 44.2382 42.1279 44.1279ZM43.0541 45.0541L44.3047 49.724L45.0275 49.0013C45.198 48.8307 45.4745 48.8307 45.645 49.0013L47.5895 50.9458L48.9458 49.5895L47.0013 47.645C46.9194 47.5631 46.8734 47.4521 46.8734 47.3363C46.8734 47.2204 46.9194 47.1094 47.0013 47.0275L47.724 46.3047L43.0541 45.0541Z" fill="#ACBFEB"/>
</svg>
