<svg width="60" height="60" viewBox="0 0 60 60" fill="none" xmlns="http://www.w3.org/2000/svg">
    <rect x="0.5" y="0.5" width="59" height="59" rx="5.5" fill="white" fill-opacity="0.03"/>
    <rect x="0.5" y="0.5" width="59" height="59" rx="5.5" fill="#232D44"/>
    <rect x="0.5" y="0.5" width="59" height="59" rx="5.5" stroke="#36394C"/>
    <path d="M24.2471 16.9857V27.0086C24.2471 27.6748 23.7021 28.2199 23.0359 28.2199H13.013C12.3468 28.2199 11.8018 27.6748 11.8018 27.0086V16.9857C11.8018 16.3196 12.3468 15.7745 13.013 15.7745H23.0359C23.7021 15.7745 24.2471 16.3196 24.2471 16.9857Z" fill="#7392E1"/>
    <path fill-rule="evenodd" clip-rule="evenodd" d="M8.75702 25.9594C8.33893 25.9594 8 25.6205 8 25.2024V12.757C8 12.3389 8.33893 12 8.75702 12H21.2024C21.6205 12 21.9594 12.3389 21.9594 12.757V25.2024C21.9594 25.6205 21.6205 25.9594 21.2024 25.9594H8.75702ZM9.51403 24.4453H20.4454V13.514H9.51403V24.4453Z" fill="#ACBFEB"/>
    <path d="M52.2393 11.2112V21.2341C52.2393 21.9003 51.6942 22.4454 51.0281 22.4454H41.0052C40.339 22.4454 39.7939 21.9003 39.7939 21.2341V11.2112C39.7939 10.5451 40.339 10 41.0052 10H51.0281C51.6942 10 52.2393 10.5451 52.2393 11.2112Z" fill="#7392E1"/>
    <path fill-rule="evenodd" clip-rule="evenodd" d="M36.757 26.2492C36.3389 26.2492 36 25.9103 36 25.4922V13.0468C36 12.6287 36.3389 12.2898 36.757 12.2898H49.2024C49.6205 12.2898 49.9594 12.6287 49.9594 13.0468V25.4922C49.9594 25.9103 49.6205 26.2492 49.2024 26.2492H36.757ZM37.514 24.7352H48.4454V13.8039H37.514V24.7352Z" fill="#ACBFEB"/>
    <path d="M38.2504 41.0024V51.0373C38.2504 51.7043 37.7046 52.25 37.0377 52.25H27.0027C26.3357 52.25 25.79 51.7043 25.79 51.0373V41.0024C25.79 40.3354 26.3357 39.7897 27.0027 39.7897H37.0377C37.7046 39.7897 38.2504 40.3354 38.2504 41.0024Z" fill="#7392E1"/>
    <path fill-rule="evenodd" clip-rule="evenodd" d="M22 36.7579C22 36.3393 22.3393 36 22.7579 36H35.2182C35.6368 36 35.9762 36.3393 35.9762 36.7579V49.2183C35.9762 49.6368 35.6368 49.9762 35.2182 49.9762H22.7579C22.3393 49.9762 22 49.6368 22 49.2183V36.7579ZM23.5159 37.5159V48.4603H34.4603V37.5159H23.5159Z" fill="#ACBFEB"/>
</svg>
