<svg width="160" height="178" viewBox="0 0 160 178" fill="none" xmlns="http://www.w3.org/2000/svg">
<g opacity="0.3" filter="url(#filter0_f_235_20696)">
<path d="M77.6469 9.4438C79.1871 8.55939 81.0812 8.55939 82.6215 9.44381L143.596 44.4551C145.147 45.3458 146.104 46.9981 146.104 48.7869V118.762C146.104 120.551 145.147 122.203 143.596 123.094L82.6215 158.105C81.0812 158.99 79.1871 158.99 77.6469 158.105L16.6724 123.094C15.1211 122.203 14.1646 120.551 14.1646 118.762V48.7869C14.1646 46.9981 15.1211 45.3458 16.6724 44.4551L77.6469 9.4438Z" fill="#931A42"/>
</g>
<g opacity="0.4" filter="url(#filter1_f_235_20696)">
<path d="M77.6466 13.6065C79.1869 12.722 81.081 12.722 82.6214 13.6065L144.317 49.0339C145.868 49.9246 146.825 51.5768 146.825 53.3656V124.174C146.825 125.962 145.868 127.615 144.317 128.505L82.6214 163.933C81.081 164.817 79.1869 164.817 77.6466 163.933L15.9511 128.505C14.3999 127.615 13.4434 125.962 13.4434 124.174V53.3656C13.4434 51.5769 14.3998 49.9246 15.9511 49.0339L77.6466 13.6065Z" fill="#931A42"/>
</g>
<path d="M77.6461 2.78429C79.1866 1.89955 81.081 1.89955 82.6215 2.78429L146.48 39.46C148.031 40.3507 148.987 42.0029 148.987 43.7915V117.097C148.987 118.886 148.031 120.538 146.48 121.429L82.6215 158.105C81.081 158.989 79.1866 158.989 77.6461 158.105L13.7876 121.429C12.2366 120.538 11.2803 118.886 11.2803 117.097V43.7915C11.2803 42.0029 12.2366 40.3507 13.7876 39.46L77.6461 2.78429Z" fill="url(#paint0_linear_235_20696)"/>
<path d="M51.181 109.735H62.8941C65.652 109.735 67.0308 109.735 68.2615 109.397C69.6107 108.998 70.8414 108.292 71.8644 107.319C72.8039 106.43 73.4819 105.251 74.8193 102.926L74.8594 102.857L90.051 76.1788C91.4003 73.8369 92.0675 72.6585 92.364 71.4213C92.6901 70.0809 92.6901 68.6669 92.364 67.3265C92.0697 66.0986 91.3957 64.9287 90.0665 62.6216L84.0906 52.2586C82.86 50.1081 82.2373 49.0328 81.4515 48.6352C80.6063 48.208 79.5981 48.208 78.753 48.6352C77.9671 49.0328 77.3445 50.1081 76.1138 52.2586L47.1926 102.901C45.9769 105.022 45.3689 106.083 45.4134 106.951C45.4727 107.894 45.962 108.748 46.7627 109.264C47.504 109.735 48.7197 109.735 51.181 109.735Z" fill="white"/>
<path d="M109.257 109.735H92.4737C89.9976 109.735 88.7522 109.735 88.0256 109.264C87.225 108.748 86.7358 107.88 86.6764 106.937C86.6322 106.075 87.245 105.024 88.4711 102.921L88.5001 102.872L96.8773 88.5843C98.1079 86.4781 98.7306 85.4323 99.5016 85.0346C100.346 84.6074 101.34 84.6074 102.185 85.0346C102.951 85.4218 103.547 86.4232 104.727 88.4059L104.824 88.5696L113.231 102.857C113.272 102.927 113.313 102.997 113.353 103.065C114.518 105.062 115.113 106.082 115.07 106.923C115.025 107.865 114.521 108.734 113.721 109.25C112.979 109.735 111.733 109.735 109.257 109.735Z" fill="white"/>
<defs>
<filter id="filter0_f_235_20696" x="9.16946" y="3.7854" width="141.93" height="159.978" filterUnits="userSpaceOnUse" color-interpolation-filters="sRGB">
<feFlood flood-opacity="0" result="BackgroundImageFix"/>
<feBlend mode="normal" in="SourceGraphic" in2="BackgroundImageFix" result="shape"/>
<feGaussianBlur stdDeviation="2.49755" result="effect1_foregroundBlur_235_20696"/>
</filter>
<filter id="filter1_f_235_20696" x="0.955629" y="0.4554" width="158.357" height="176.628" filterUnits="userSpaceOnUse" color-interpolation-filters="sRGB">
<feFlood flood-opacity="0" result="BackgroundImageFix"/>
<feBlend mode="normal" in="SourceGraphic" in2="BackgroundImageFix" result="shape"/>
<feGaussianBlur stdDeviation="6.24387" result="effect1_foregroundBlur_235_20696"/>
</filter>
<linearGradient id="paint0_linear_235_20696" x1="80.1338" y1="2.12074" x2="80.1338" y2="158.768" gradientUnits="userSpaceOnUse">
<stop stop-color="#E3638E"/>
<stop offset="1" stop-color="#DC386E"/>
</linearGradient>
</defs>
</svg>
