<svg width="162" height="181" viewBox="0 0 162 181" fill="none" xmlns="http://www.w3.org/2000/svg">
<g opacity="0.3" filter="url(#filter0_f_235_20903)">
<path d="M77.9998 10.91C79.8562 9.83818 82.1433 9.83817 83.9998 10.91L142.952 44.9459C144.808 46.0177 145.952 47.9984 145.952 50.142V118.214C145.952 120.357 144.808 122.338 142.952 123.41L83.9998 157.446C82.1433 158.518 79.8562 158.518 77.9998 157.446L19.0479 123.41C17.1914 122.338 16.0479 120.357 16.0479 118.214V50.142C16.0479 47.9984 17.1914 46.0177 19.0479 44.9459L77.9998 10.91Z" fill="#093867"/>
</g>
<g opacity="0.4" filter="url(#filter1_f_235_20903)">
<path d="M78.0001 15.91C79.8565 14.8382 82.1437 14.8382 84.0001 15.91L143.818 50.4459C145.674 51.5177 146.818 53.4984 146.818 55.642V124.714C146.818 126.857 145.674 128.838 143.818 129.91L84.0001 164.446C82.1437 165.518 79.8565 165.518 78.0001 164.446L18.1821 129.91C16.3257 128.838 15.1821 126.857 15.1821 124.714V55.642C15.1821 53.4984 16.3257 51.5177 18.1821 50.4459L78.0001 15.91Z" fill="#093867"/>
</g>
<path d="M78 2.90996C79.8564 1.83816 82.1436 1.83816 84 2.90996L146.416 38.9459C148.272 40.0177 149.416 41.9984 149.416 44.142V116.214C149.416 118.357 148.272 120.338 146.416 121.41L84 157.446C82.1436 158.518 79.8564 158.518 78 157.446L15.584 121.41C13.7276 120.338 12.584 118.357 12.584 116.214V44.142C12.584 41.9984 13.7276 40.0177 15.584 38.9459L78 2.90996Z" fill="url(#paint0_linear_235_20903)"/>
<g clip-path="url(#clip0_235_20903)">
<path d="M66.8101 85.4003C68.6956 85.4003 70.5352 84.7718 72.0221 83.622L60.0651 71.6651C57.1832 75.3901 57.873 80.7554 61.5981 83.6374C63.1004 84.7718 64.9246 85.4003 66.8101 85.4003Z" fill="white"/>
<path d="M102.374 76.8617C102.374 74.9762 101.746 73.1367 100.596 71.6497L88.6392 83.6067C92.3642 86.4887 97.7142 85.7988 100.596 82.0738C101.746 80.5868 102.374 78.7473 102.374 76.8617Z" fill="white"/>
<path d="M108.399 63.847L103.11 69.1357C107.372 74.2404 106.697 81.8438 101.592 86.1054C97.1163 89.8458 90.6166 89.8458 86.1403 86.1054L80.3305 91.9153L74.5359 86.1207C69.4312 90.3823 61.8278 89.7078 57.5662 84.6031C53.8258 80.1269 53.8258 73.6272 57.5662 69.151L54.8529 66.4377L52.2775 63.847C49.1656 68.9671 47.5254 74.8536 47.5254 80.8474C47.5254 98.9669 62.211 113.652 80.3305 113.652C98.4499 113.652 113.136 98.9669 113.136 80.8474C113.151 74.8536 111.495 68.9671 108.399 63.847Z" fill="white"/>
<path d="M104.06 58.2058C91.5667 45.0991 70.8106 44.6085 57.7039 57.1021C57.3207 57.47 56.9528 57.8379 56.6002 58.2058C55.7877 59.0642 55.0213 59.9533 54.3008 60.8884L80.3302 86.9332L106.36 60.8884C105.655 59.9533 104.873 59.0642 104.06 58.2058ZM80.3302 52.3346C87.995 52.3346 95.1385 55.2932 100.504 60.6892L80.3302 80.8628L60.1566 60.6892C65.522 55.2932 72.6655 52.3346 80.3302 52.3346Z" fill="white"/>
</g>
<defs>
<filter id="filter0_f_235_20903" x="10.0479" y="4.10612" width="141.904" height="160.144" filterUnits="userSpaceOnUse" color-interpolation-filters="sRGB">
<feFlood flood-opacity="0" result="BackgroundImageFix"/>
<feBlend mode="normal" in="SourceGraphic" in2="BackgroundImageFix" result="shape"/>
<feGaussianBlur stdDeviation="3" result="effect1_foregroundBlur_235_20903"/>
</filter>
<filter id="filter1_f_235_20903" x="0.182129" y="0.106125" width="161.636" height="180.144" filterUnits="userSpaceOnUse" color-interpolation-filters="sRGB">
<feFlood flood-opacity="0" result="BackgroundImageFix"/>
<feBlend mode="normal" in="SourceGraphic" in2="BackgroundImageFix" result="shape"/>
<feGaussianBlur stdDeviation="7.5" result="effect1_foregroundBlur_235_20903"/>
</filter>
<linearGradient id="paint0_linear_235_20903" x1="81" y1="2.10611" x2="81" y2="158.25" gradientUnits="userSpaceOnUse">
<stop stop-color="#1480EB"/>
<stop offset="1" stop-color="#1066BC"/>
</linearGradient>
<clipPath id="clip0_235_20903">
<rect width="65.6102" height="65.6102" fill="white" transform="translate(47.5254 48.0423)"/>
</clipPath>
</defs>
</svg>
