<svg width="159" height="178" viewBox="0 0 159 178" fill="none" xmlns="http://www.w3.org/2000/svg">
<g opacity="0.3" filter="url(#filter0_f_235_20699)">
<path d="M76.9056 9.63553C78.4511 8.74324 80.3552 8.74324 81.9007 9.63553L142.438 44.5866C143.983 45.4789 144.935 47.1279 144.935 48.9125V118.815C144.935 120.599 143.983 122.248 142.438 123.14L81.9007 158.091C80.3552 158.984 78.4511 158.984 76.9056 158.091L16.3686 123.14C14.8232 122.248 13.8711 120.599 13.8711 118.815V48.9125C13.8711 47.1279 14.8232 45.4789 16.3686 44.5866L76.9056 9.63553Z" fill="#0B0BCB"/>
</g>
<g opacity="0.4" filter="url(#filter1_f_235_20699)">
<path d="M76.9059 13.7981C78.4514 12.9058 80.3555 12.9058 81.901 13.7981L143.159 49.1654C144.704 50.0577 145.657 51.7067 145.657 53.4913V124.226C145.657 126.01 144.704 127.66 143.159 128.552L81.901 163.919C80.3555 164.811 78.4514 164.811 76.9059 163.919L15.6479 128.552C14.1025 127.66 13.1504 126.01 13.1504 124.226V53.4913C13.1504 51.7067 14.1024 50.0577 15.6479 49.1654L76.9059 13.7981Z" fill="#0B0BCB"/>
</g>
<path d="M76.9058 2.97541C78.4513 2.08312 80.3554 2.08312 81.9009 2.97541L145.322 39.5915C146.867 40.4838 147.819 42.1328 147.819 43.9174V117.15C147.819 118.934 146.867 120.583 145.322 121.475L81.9009 158.091C80.3554 158.984 78.4513 158.984 76.9058 158.091L13.4849 121.475C11.9394 120.583 10.9873 118.934 10.9873 117.15V43.9174C10.9873 42.1328 11.9394 40.4838 13.4849 39.5915L76.9058 2.97541Z" fill="url(#paint0_linear_235_20699)"/>
<path d="M76.3128 121.549C76.3857 121.549 76.4449 121.49 76.4449 121.417C76.4449 121.344 76.3857 121.285 76.3128 121.285C76.2398 121.285 76.1807 121.344 76.1807 121.417C76.1807 121.49 76.2398 121.549 76.3128 121.549Z" fill="white"/>
<path d="M72.5601 120.491C72.706 120.491 72.8243 120.373 72.8243 120.227C72.8243 120.081 72.706 119.962 72.5601 119.962C72.4142 119.962 72.2959 120.081 72.2959 120.227C72.2959 120.373 72.4142 120.491 72.5601 120.491Z" fill="white"/>
<path d="M68.9412 119.09C69.1601 119.09 69.3375 118.912 69.3375 118.693C69.3375 118.474 69.1601 118.296 68.9412 118.296C68.7224 118.296 68.5449 118.474 68.5449 118.693C68.5449 118.912 68.7224 119.09 68.9412 119.09Z" fill="white"/>
<path d="M65.5323 117.292C65.8242 117.292 66.0607 117.055 66.0607 116.763C66.0607 116.471 65.8242 116.234 65.5323 116.234C65.2405 116.234 65.0039 116.471 65.0039 116.763C65.0039 117.055 65.2405 117.292 65.5323 117.292Z" fill="white"/>
<path d="M62.3368 115.176C62.7162 115.176 63.0238 114.869 63.0238 114.489C63.0238 114.109 62.7162 113.801 62.3368 113.801C61.9575 113.801 61.6499 114.109 61.6499 114.489C61.6499 114.869 61.9575 115.176 62.3368 115.176Z" fill="white"/>
<path d="M59.3767 112.691C59.829 112.691 60.1957 112.324 60.1957 111.871C60.1957 111.418 59.829 111.051 59.3767 111.051C58.9243 111.051 58.5576 111.418 58.5576 111.871C58.5576 112.324 58.9243 112.691 59.3767 112.691Z" fill="white"/>
<path d="M56.7348 109.941C57.2601 109.941 57.686 109.515 57.686 108.989C57.686 108.463 57.2601 108.037 56.7348 108.037C56.2095 108.037 55.7837 108.463 55.7837 108.989C55.7837 109.515 56.2095 109.941 56.7348 109.941Z" fill="white"/>
<path d="M54.4104 106.9C55.0087 106.9 55.4936 106.414 55.4936 105.816C55.4936 105.217 55.0087 104.731 54.4104 104.731C53.8121 104.731 53.3271 105.217 53.3271 105.816C53.3271 106.414 53.8121 106.9 54.4104 106.9Z" fill="white"/>
<path d="M52.4815 103.595C53.1527 103.595 53.6968 103.05 53.6968 102.378C53.6968 101.707 53.1527 101.162 52.4815 101.162C51.8102 101.162 51.2661 101.707 51.2661 102.378C51.2661 103.05 51.8102 103.595 52.4815 103.595Z" fill="white"/>
<path d="M51.054 100.078C51.7982 100.078 52.4015 99.474 52.4015 98.7292C52.4015 97.9845 51.7982 97.3807 51.054 97.3807C50.3098 97.3807 49.7065 97.9845 49.7065 98.7292C49.7065 99.474 50.3098 100.078 51.054 100.078Z" fill="white"/>
<path d="M50.1031 96.4028C50.9202 96.4028 51.5826 95.7398 51.5826 94.922C51.5826 94.1043 50.9202 93.4413 50.1031 93.4413C49.286 93.4413 48.6235 94.1043 48.6235 94.922C48.6235 95.7398 49.286 96.4028 50.1031 96.4028Z" fill="white"/>
<path d="M49.6541 92.6213C50.5442 92.6213 51.2658 91.8991 51.2658 91.0083C51.2658 90.1175 50.5442 89.3954 49.6541 89.3954C48.764 89.3954 48.0425 90.1175 48.0425 91.0083C48.0425 91.8991 48.764 92.6213 49.6541 92.6213Z" fill="white"/>
<path d="M49.7336 88.8403C50.7112 88.8403 51.5037 88.0471 51.5037 87.0686C51.5037 86.0902 50.7112 85.297 49.7336 85.297C48.7559 85.297 47.9634 86.0902 47.9634 87.0686C47.9634 88.0471 48.7559 88.8403 49.7336 88.8403Z" fill="white"/>
<path d="M50.3149 85.0856C51.3655 85.0856 52.2172 84.2332 52.2172 83.1818C52.2172 82.1303 51.3655 81.278 50.3149 81.278C49.2643 81.278 48.4126 82.1303 48.4126 83.1818C48.4126 84.2332 49.2643 85.0856 50.3149 85.0856Z" fill="white"/>
<path d="M105.269 112.479C105.342 112.479 105.401 112.42 105.401 112.347C105.401 112.274 105.342 112.215 105.269 112.215C105.196 112.215 105.137 112.274 105.137 112.347C105.137 112.42 105.196 112.479 105.269 112.479Z" fill="white"/>
<path d="M101.783 113.933C101.65 113.933 101.545 114.039 101.545 114.171C101.545 114.304 101.65 114.409 101.783 114.409C101.915 114.409 102.02 114.304 102.02 114.171C102.02 114.039 101.915 113.933 101.783 113.933ZM98.1365 115.256C97.9515 115.256 97.7666 115.414 97.7666 115.626C97.7666 115.837 97.9251 115.996 98.1365 115.996C98.3479 115.996 98.5064 115.837 98.5064 115.626C98.48 115.414 98.3214 115.256 98.1365 115.256Z" fill="white"/>
<path d="M94.3574 117.159C94.6201 117.159 94.833 116.946 94.833 116.683C94.833 116.421 94.6201 116.207 94.3574 116.207C94.0948 116.207 93.8818 116.421 93.8818 116.683C93.8818 116.946 94.0948 117.159 94.3574 117.159Z" fill="white"/>
<path d="M90.4744 116.736C90.1309 116.736 89.8667 117.001 89.8667 117.344C89.8667 117.662 90.1309 117.953 90.4744 117.953C90.7914 117.953 91.0821 117.688 91.0821 117.344C91.0821 117.001 90.8178 116.736 90.4744 116.736Z" fill="white"/>
<path d="M86.5639 118.296C86.9579 118.296 87.2773 117.977 87.2773 117.582C87.2773 117.188 86.9579 116.868 86.5639 116.868C86.17 116.868 85.8506 117.188 85.8506 117.582C85.8506 117.977 86.17 118.296 86.5639 118.296Z" fill="white"/>
<path d="M82.6267 118.244C83.0936 118.244 83.4722 117.865 83.4722 117.397C83.4722 116.93 83.0936 116.551 82.6267 116.551C82.1598 116.551 81.7812 116.93 81.7812 117.397C81.7812 117.865 82.1598 118.244 82.6267 118.244Z" fill="white"/>
<path d="M78.7436 117.768C79.2689 117.768 79.6948 117.342 79.6948 116.816C79.6948 116.29 79.2689 115.864 78.7436 115.864C78.2183 115.864 77.7925 116.29 77.7925 116.816C77.7925 117.342 78.2183 117.768 78.7436 117.768Z" fill="white"/>
<path d="M74.9646 116.816C75.5629 116.816 76.0478 116.331 76.0478 115.732C76.0478 115.133 75.5629 114.648 74.9646 114.648C74.3663 114.648 73.8813 115.133 73.8813 115.732C73.8813 116.331 74.3663 116.816 74.9646 116.816Z" fill="white"/>
<path d="M71.372 115.362C72.0287 115.362 72.561 114.829 72.561 114.172C72.561 113.515 72.0287 112.982 71.372 112.982C70.7154 112.982 70.1831 113.515 70.1831 114.172C70.1831 114.829 70.7154 115.362 71.372 115.362Z" fill="white"/>
<path d="M67.99 113.484C68.7196 113.484 69.311 112.892 69.311 112.162C69.311 111.432 68.7196 110.84 67.99 110.84C67.2604 110.84 66.6689 111.432 66.6689 112.162C66.6689 112.892 67.2604 113.484 67.99 113.484Z" fill="white"/>
<path d="M64.9257 111.131C65.7137 111.131 66.3525 110.491 66.3525 109.703C66.3525 108.914 65.7137 108.275 64.9257 108.275C64.1378 108.275 63.499 108.914 63.499 109.703C63.499 110.491 64.1378 111.131 64.9257 111.131Z" fill="white"/>
<path d="M62.2043 108.434C63.0652 108.434 63.7631 107.735 63.7631 106.874C63.7631 106.012 63.0652 105.314 62.2043 105.314C61.3434 105.314 60.6455 106.012 60.6455 106.874C60.6455 107.735 61.3434 108.434 62.2043 108.434Z" fill="white"/>
<path d="M59.8793 105.393C60.7986 105.393 61.5438 104.647 61.5438 103.727C61.5438 102.807 60.7986 102.061 59.8793 102.061C58.9601 102.061 58.2148 102.807 58.2148 103.727C58.2148 104.647 58.9601 105.393 59.8793 105.393Z" fill="white"/>
<path d="M57.9763 102.087C58.9685 102.087 59.7729 101.282 59.7729 100.289C59.7729 99.2963 58.9685 98.4913 57.9763 98.4913C56.9841 98.4913 56.1797 99.2963 56.1797 100.289C56.1797 101.282 56.9841 102.087 57.9763 102.087Z" fill="white"/>
<path d="M119.325 85.535C119.383 85.535 119.431 85.4876 119.431 85.4292C119.431 85.3708 119.383 85.3235 119.325 85.3235C119.267 85.3235 119.219 85.3708 119.219 85.4292C119.219 85.4876 119.267 85.535 119.325 85.535Z" fill="white"/>
<path d="M118.163 89.3953C118.279 89.3953 118.374 89.3006 118.374 89.1838C118.374 89.0669 118.279 88.9722 118.163 88.9722C118.046 88.9722 117.951 89.0669 117.951 89.1838C117.951 89.3006 118.046 89.3953 118.163 89.3953Z" fill="white"/>
<path d="M116.604 92.4895C116.419 92.4895 116.287 92.6217 116.287 92.8068C116.287 92.9919 116.419 93.1241 116.604 93.1241C116.789 93.1241 116.921 92.9919 116.921 92.8068C116.921 92.6217 116.789 92.4895 116.604 92.4895ZM114.675 95.7947C114.437 95.7947 114.252 95.9798 114.252 96.2178C114.252 96.4558 114.437 96.6409 114.675 96.6409C114.913 96.6409 115.098 96.4558 115.098 96.2178C115.098 95.9798 114.913 95.7947 114.675 95.7947Z" fill="white"/>
<path d="M112.403 99.9721C112.695 99.9721 112.931 99.7353 112.931 99.4433C112.931 99.1512 112.695 98.9144 112.403 98.9144C112.111 98.9144 111.875 99.1512 111.875 99.4433C111.875 99.7353 112.111 99.9721 112.403 99.9721Z" fill="white"/>
<path d="M109.814 103.013C110.164 103.013 110.448 102.729 110.448 102.379C110.448 102.028 110.164 101.744 109.814 101.744C109.464 101.744 109.18 102.028 109.18 102.379C109.18 102.729 109.464 103.013 109.814 103.013Z" fill="white"/>
<path d="M106.908 105.789C107.316 105.789 107.648 105.458 107.648 105.049C107.648 104.64 107.316 104.309 106.908 104.309C106.499 104.309 106.168 104.64 106.168 105.049C106.168 105.458 106.499 105.789 106.908 105.789Z" fill="white"/>
<path d="M103.737 108.222C104.204 108.222 104.583 107.843 104.583 107.376C104.583 106.909 104.204 106.53 103.737 106.53C103.27 106.53 102.892 106.909 102.892 107.376C102.892 107.843 103.27 108.222 103.737 108.222Z" fill="white"/>
<path d="M100.303 108.328C99.7741 108.328 99.3514 108.751 99.3514 109.28C99.3514 109.809 99.7741 110.232 100.303 110.232C100.831 110.232 101.254 109.809 101.254 109.28C101.28 108.751 100.831 108.328 100.303 108.328ZM96.6565 109.65C96.0752 109.65 95.5732 110.126 95.5732 110.734C95.5732 111.342 96.0488 111.818 96.6565 111.818C97.2377 111.818 97.7397 111.342 97.7397 110.734C97.7397 110.126 97.2377 109.65 96.6565 109.65Z" fill="white"/>
<path d="M92.8515 112.876C93.5082 112.876 94.0405 112.343 94.0405 111.686C94.0405 111.029 93.5082 110.496 92.8515 110.496C92.1949 110.496 91.6626 111.029 91.6626 111.686C91.6626 112.343 92.1949 112.876 92.8515 112.876Z" fill="white"/>
<path d="M88.9416 113.405C89.6566 113.405 90.2362 112.825 90.2362 112.109C90.2362 111.394 89.6566 110.814 88.9416 110.814C88.2266 110.814 87.647 111.394 87.647 112.109C87.647 112.825 88.2266 113.405 88.9416 113.405Z" fill="white"/>
<path d="M85.0312 113.457C85.8045 113.457 86.4315 112.83 86.4315 112.056C86.4315 111.282 85.8045 110.655 85.0312 110.655C84.2578 110.655 83.6309 111.282 83.6309 112.056C83.6309 112.83 84.2578 113.457 85.0312 113.457Z" fill="white"/>
<path d="M82.6267 111.474C82.6267 110.655 81.9662 109.967 81.1207 109.967C80.3017 109.967 79.6147 110.628 79.6147 111.474C79.6147 112.294 80.2753 112.982 81.1207 112.982C81.9662 112.955 82.6267 112.294 82.6267 111.474Z" fill="white"/>
<path d="M77.3695 112.003C78.2596 112.003 78.9811 111.281 78.9811 110.39C78.9811 109.5 78.2596 108.777 77.3695 108.777C76.4794 108.777 75.7578 109.5 75.7578 110.39C75.7578 111.281 76.4794 112.003 77.3695 112.003Z" fill="white"/>
<path d="M73.7501 110.523C74.6985 110.523 75.4674 109.753 75.4674 108.804C75.4674 107.855 74.6985 107.085 73.7501 107.085C72.8016 107.085 72.0327 107.855 72.0327 108.804C72.0327 109.753 72.8016 110.523 73.7501 110.523Z" fill="white"/>
<path d="M110.263 56.5811C110.316 56.5811 110.369 56.5282 110.369 56.4753C110.369 56.4225 110.316 56.3696 110.263 56.3696C110.211 56.3696 110.158 56.4225 110.158 56.4753C110.158 56.5282 110.211 56.5811 110.263 56.5811ZM112.086 60.1507C112.192 60.1507 112.298 60.045 112.298 59.9392C112.298 59.8334 112.192 59.7277 112.086 59.7277C111.981 59.7277 111.875 59.8334 111.875 59.9392C111.875 60.0714 111.981 60.1507 112.086 60.1507ZM113.54 63.9319C113.725 63.9319 113.857 63.7997 113.857 63.6146C113.857 63.4295 113.725 63.2973 113.54 63.2973C113.355 63.2973 113.223 63.4295 113.223 63.6146C113.223 63.7733 113.355 63.9319 113.54 63.9319ZM114.596 67.8189C114.834 67.8189 115.019 67.6338 115.019 67.3958C115.019 67.1578 114.834 66.9727 114.596 66.9727C114.359 66.9727 114.174 67.1578 114.174 67.3958C114.174 67.6338 114.359 67.8189 114.596 67.8189Z" fill="white"/>
<path d="M115.256 71.7853C115.548 71.7853 115.785 71.5485 115.785 71.2565C115.785 70.9644 115.548 70.7276 115.256 70.7276C114.965 70.7276 114.728 70.9644 114.728 71.2565C114.728 71.5485 114.965 71.7853 115.256 71.7853Z" fill="white"/>
<path d="M115.494 75.8045C115.844 75.8045 116.128 75.5204 116.128 75.1699C116.128 74.8194 115.844 74.5353 115.494 74.5353C115.144 74.5353 114.86 74.8194 114.86 75.1699C114.86 75.5204 115.144 75.8045 115.494 75.8045Z" fill="white"/>
<path d="M115.336 78.3694C114.914 78.3694 114.597 78.7132 114.597 79.1098C114.597 79.5329 114.94 79.8502 115.336 79.8502C115.759 79.8502 116.076 79.5064 116.076 79.1098C116.076 78.6867 115.733 78.3694 115.336 78.3694ZM114.729 82.1506C114.253 82.1506 113.883 82.5473 113.883 82.9968C113.883 83.4727 114.253 83.8429 114.729 83.8429C115.204 83.8429 115.574 83.4727 115.574 82.9968C115.601 82.5208 115.204 82.1506 114.729 82.1506Z" fill="white"/>
<path d="M113.671 87.7297C114.197 87.7297 114.622 87.3035 114.622 86.7778C114.622 86.2521 114.197 85.8259 113.671 85.8259C113.146 85.8259 112.72 86.2521 112.72 86.7778C112.72 87.3035 113.146 87.7297 113.671 87.7297Z" fill="white"/>
<path d="M112.113 91.4579C112.711 91.4579 113.196 90.9726 113.196 90.3738C113.196 89.7751 112.711 89.2897 112.113 89.2897C111.515 89.2897 111.03 89.7751 111.03 90.3738C111.03 90.9726 111.515 91.4579 112.113 91.4579Z" fill="white"/>
<path d="M110.078 94.9483C110.735 94.9483 111.267 94.4156 111.267 93.7584C111.267 93.1013 110.735 92.5685 110.078 92.5685C109.421 92.5685 108.889 93.1013 108.889 93.7584C108.889 94.4156 109.421 94.9483 110.078 94.9483Z" fill="white"/>
<path d="M107.621 95.5299C106.908 95.5299 106.327 96.1116 106.327 96.8256C106.327 97.5395 106.908 98.1212 107.621 98.1212C108.335 98.1212 108.916 97.5395 108.916 96.8256C108.916 96.1116 108.335 95.5299 107.621 95.5299Z" fill="white"/>
<path d="M104.794 100.951C105.567 100.951 106.194 100.323 106.194 99.5492C106.194 98.7752 105.567 98.1478 104.794 98.1478C104.02 98.1478 103.394 98.7752 103.394 99.5492C103.394 100.323 104.02 100.951 104.794 100.951Z" fill="white"/>
<path d="M101.65 103.41C102.481 103.41 103.156 102.735 103.156 101.903C103.156 101.07 102.481 100.395 101.65 100.395C100.818 100.395 100.144 101.07 100.144 101.903C100.144 102.735 100.818 103.41 101.65 103.41Z" fill="white"/>
<path d="M98.2157 105.419C99.1058 105.419 99.8273 104.697 99.8273 103.806C99.8273 102.915 99.1058 102.193 98.2157 102.193C97.3256 102.193 96.604 102.915 96.604 103.806C96.604 104.697 97.3256 105.419 98.2157 105.419Z" fill="white"/>
<path d="M94.5692 103.515C93.6181 103.515 92.8519 104.282 92.8519 105.234C92.8519 106.186 93.6181 106.953 94.5692 106.953C95.5204 106.953 96.2866 106.186 96.2866 105.234C96.2601 104.282 95.4939 103.515 94.5692 103.515ZM83.3933 42.4877C83.4461 42.4877 83.499 42.4348 83.499 42.3819C83.499 42.329 83.4461 42.2762 83.3933 42.2762C83.3404 42.2762 83.2876 42.329 83.2876 42.3819C83.2876 42.4613 83.314 42.4877 83.3933 42.4877Z" fill="white"/>
<path d="M87.1445 43.7834C87.2612 43.7834 87.3558 43.6887 87.3558 43.5718C87.3558 43.455 87.2612 43.3603 87.1445 43.3603C87.0277 43.3603 86.9331 43.455 86.9331 43.5718C86.9331 43.6887 87.0277 43.7834 87.1445 43.7834Z" fill="white"/>
<path d="M90.7389 45.4494C90.9239 45.4494 91.056 45.3172 91.056 45.1321C91.056 44.947 90.9239 44.8148 90.7389 44.8148C90.554 44.8148 90.4219 44.947 90.4219 45.1321C90.4219 45.2907 90.554 45.4494 90.7389 45.4494ZM94.1736 47.4589C94.4114 47.4589 94.5963 47.2738 94.5963 47.0359C94.5963 46.7979 94.4114 46.6128 94.1736 46.6128C93.9358 46.6128 93.7509 46.7979 93.7509 47.0359C93.7509 47.2738 93.9358 47.4589 94.1736 47.4589ZM97.3705 49.8651C97.6611 49.8651 97.8989 49.6272 97.8989 49.3363C97.8989 49.0455 97.6611 48.8075 97.3705 48.8075C97.0799 48.8075 96.8421 49.0455 96.8421 49.3363C96.8421 49.6272 97.0799 49.8651 97.3705 49.8651Z" fill="white"/>
<path d="M100.303 52.562C100.653 52.562 100.937 52.2779 100.937 51.9274C100.937 51.5769 100.653 51.2928 100.303 51.2928C99.9528 51.2928 99.6689 51.5769 99.6689 51.9274C99.6689 52.2779 99.9528 52.562 100.303 52.562Z" fill="white"/>
<path d="M102.971 55.5763C103.394 55.5763 103.711 55.2326 103.711 54.836C103.711 54.4129 103.368 54.0956 102.971 54.0956C102.548 54.0956 102.231 54.4393 102.231 54.836C102.205 55.2326 102.548 55.5763 102.971 55.5763ZM105.296 58.8287C105.772 58.8287 106.142 58.4321 106.142 57.9825C106.142 57.5066 105.772 57.1364 105.296 57.1364C104.821 57.1364 104.451 57.5066 104.451 57.9825C104.451 58.4585 104.821 58.8287 105.296 58.8287Z" fill="white"/>
<path d="M107.198 62.3721C107.724 62.3721 108.149 61.946 108.149 61.4202C108.149 60.8945 107.724 60.4683 107.198 60.4683C106.673 60.4683 106.247 60.8945 106.247 61.4202C106.247 61.946 106.673 62.3721 107.198 62.3721Z" fill="white"/>
<path d="M107.595 65.0691C107.595 65.6508 108.07 66.1532 108.678 66.1532C109.259 66.1532 109.761 65.6772 109.761 65.0691C109.761 64.4874 109.286 63.985 108.678 63.985C108.07 64.0114 107.595 64.4874 107.595 65.0691ZM108.414 68.8767C108.414 69.5378 108.942 70.0666 109.603 70.0666C110.263 70.0666 110.792 69.5378 110.792 68.8767C110.792 68.2157 110.263 67.6868 109.603 67.6868C108.942 67.7133 108.414 68.2421 108.414 68.8767ZM108.757 72.7901C108.757 73.504 109.338 74.0857 110.052 74.0857C110.765 74.0857 111.346 73.504 111.346 72.7901C111.346 72.0762 110.765 71.4945 110.052 71.4945C109.338 71.4945 108.757 72.0762 108.757 72.7901Z" fill="white"/>
<path d="M109.973 78.1312C110.746 78.1312 111.373 77.5038 111.373 76.7298C111.373 75.9558 110.746 75.3284 109.973 75.3284C109.199 75.3284 108.572 75.9558 108.572 76.7298C108.572 77.5038 109.199 78.1312 109.973 78.1312Z" fill="white"/>
<path d="M109.392 82.1241C110.224 82.1241 110.898 81.4493 110.898 80.6169C110.898 79.7845 110.224 79.1097 109.392 79.1097C108.56 79.1097 107.886 79.7845 107.886 80.6169C107.886 81.4493 108.56 82.1241 109.392 82.1241Z" fill="white"/>
<path d="M108.308 86.0108C109.199 86.0108 109.92 85.2886 109.92 84.3978C109.92 83.507 109.199 82.7849 108.308 82.7849C107.418 82.7849 106.697 83.507 106.697 84.3978C106.697 85.2886 107.418 86.0108 108.308 86.0108Z" fill="white"/>
<path d="M106.75 89.7129C107.698 89.7129 108.467 88.9434 108.467 87.9942C108.467 87.045 107.698 86.2755 106.75 86.2755C105.801 86.2755 105.032 87.045 105.032 87.9942C105.032 88.9434 105.801 89.7129 106.75 89.7129Z" fill="white"/>
<path d="M54.4367 51.5572C54.4951 51.5572 54.5424 51.5098 54.5424 51.4514C54.5424 51.393 54.4951 51.3456 54.4367 51.3456C54.3784 51.3456 54.3311 51.393 54.3311 51.4514C54.3311 51.5098 54.3784 51.5572 54.4367 51.5572Z" fill="white"/>
<path d="M57.9238 49.8386C58.0405 49.8386 58.1351 49.7439 58.1351 49.6271C58.1351 49.5103 58.0405 49.4155 57.9238 49.4155C57.807 49.4155 57.7124 49.5103 57.7124 49.6271C57.7124 49.7439 57.807 49.8386 57.9238 49.8386Z" fill="white"/>
<path d="M61.57 48.49C61.7451 48.49 61.887 48.3479 61.887 48.1727C61.887 47.9975 61.7451 47.8554 61.57 47.8554C61.3949 47.8554 61.2529 47.9975 61.2529 48.1727C61.2529 48.3479 61.3949 48.49 61.57 48.49Z" fill="white"/>
<path d="M65.348 47.5381C65.5815 47.5381 65.7708 47.3487 65.7708 47.1151C65.7708 46.8814 65.5815 46.692 65.348 46.692C65.1146 46.692 64.9253 46.8814 64.9253 47.1151C64.9253 47.3487 65.1146 47.5381 65.348 47.5381Z" fill="white"/>
<path d="M69.2057 46.983C69.4975 46.983 69.7341 46.7462 69.7341 46.4542C69.7341 46.1621 69.4975 45.9253 69.2057 45.9253C68.9138 45.9253 68.6772 46.1621 68.6772 46.4542C68.6772 46.7462 68.9138 46.983 69.2057 46.983Z" fill="white"/>
<path d="M73.1424 46.8506C73.4926 46.8506 73.7765 46.5665 73.7765 46.216C73.7765 45.8655 73.4926 45.5814 73.1424 45.5814C72.7922 45.5814 72.5083 45.8655 72.5083 46.216C72.5083 46.5665 72.7922 46.8506 73.1424 46.8506Z" fill="white"/>
<path d="M77.0518 47.1414C77.4604 47.1414 77.7916 46.81 77.7916 46.4011C77.7916 45.9922 77.4604 45.6607 77.0518 45.6607C76.6432 45.6607 76.312 45.9922 76.312 46.4011C76.312 46.81 76.6432 47.1414 77.0518 47.1414Z" fill="white"/>
<path d="M80.9363 47.829C81.4032 47.829 81.7817 47.4502 81.7817 46.9828C81.7817 46.5155 81.4032 46.1367 80.9363 46.1367C80.4693 46.1367 80.0908 46.5155 80.0908 46.9828C80.0908 47.4502 80.4693 47.829 80.9363 47.829Z" fill="white"/>
<path d="M84.7143 48.9925C85.2396 48.9925 85.6655 48.5664 85.6655 48.0406C85.6655 47.5149 85.2396 47.0887 84.7143 47.0887C84.189 47.0887 83.7632 47.5149 83.7632 48.0406C83.7632 48.5664 84.189 48.9925 84.7143 48.9925Z" fill="white"/>
<path d="M88.3342 50.6846C88.9155 50.6846 89.391 50.2086 89.391 49.6005C89.391 49.0188 88.9155 48.5164 88.3342 48.5164C87.753 48.5164 87.251 48.9923 87.251 49.6005C87.251 50.2086 87.7265 50.6846 88.3342 50.6846ZM90.5271 51.6365C90.5271 52.2975 91.0556 52.8264 91.7161 52.8264C92.3766 52.8264 92.905 52.2975 92.905 51.6365C92.905 50.9755 92.3766 50.4466 91.7161 50.4466C91.0556 50.4731 90.5271 51.0019 90.5271 51.6365ZM94.7544 55.3648C95.4678 55.3648 96.0491 54.7831 96.0491 54.0691C96.0491 53.3552 95.4678 52.7735 94.7544 52.7735C94.0411 52.7735 93.4598 53.3552 93.4598 54.0691C93.4598 54.7831 94.0675 55.3648 94.7544 55.3648ZM97.5022 58.3263C98.2684 58.3263 98.9025 57.6917 98.9025 56.9249C98.9025 56.1581 98.2684 55.5234 97.5022 55.5234C96.736 55.5234 96.1019 56.1581 96.1019 56.9249C96.1019 57.6917 96.7096 58.3263 97.5022 58.3263Z" fill="white"/>
<path d="M99.8268 61.5786C100.659 61.5786 101.333 60.9038 101.333 60.0715C101.333 59.2391 100.659 58.5643 99.8268 58.5643C98.995 58.5643 98.3208 59.2391 98.3208 60.0715C98.3208 60.9038 98.995 61.5786 99.8268 61.5786Z" fill="white"/>
<path d="M101.729 65.1219C102.619 65.1219 103.341 64.3997 103.341 63.5089C103.341 62.6181 102.619 61.896 101.729 61.896C100.839 61.896 100.118 62.6181 100.118 63.5089C100.118 64.3997 100.839 65.1219 101.729 65.1219Z" fill="white"/>
<path d="M101.438 67.1846C101.438 68.1365 102.204 68.9033 103.155 68.9033C104.106 68.9033 104.873 68.1365 104.873 67.1846C104.873 66.2327 104.106 65.4659 103.155 65.4659C102.231 65.4659 101.438 66.2327 101.438 67.1846Z" fill="white"/>
<path d="M104.107 72.8164C105.114 72.8164 105.93 71.9996 105.93 70.9919C105.93 69.9843 105.114 69.1675 104.107 69.1675C103.1 69.1675 102.284 69.9843 102.284 70.9919C102.284 71.9996 103.1 72.8164 104.107 72.8164Z" fill="white"/>
<path d="M41.5428 75.0111C41.7617 75.0111 41.9391 74.8335 41.9391 74.6145C41.9391 74.3954 41.7617 74.2178 41.5428 74.2178C41.3239 74.2178 41.1465 74.3954 41.1465 74.6145C41.1465 74.8335 41.3239 75.0111 41.5428 75.0111Z" fill="white"/>
<path d="M43.1013 71.6C43.4369 71.6 43.709 71.3278 43.709 70.9919C43.709 70.656 43.4369 70.3837 43.1013 70.3837C42.7657 70.3837 42.4937 70.656 42.4937 70.9919C42.4937 71.3278 42.7657 71.6 43.1013 71.6Z" fill="white"/>
<path d="M45.0305 68.4008C45.4828 68.4008 45.8495 68.0338 45.8495 67.5811C45.8495 67.1284 45.4828 66.7614 45.0305 66.7614C44.5781 66.7614 44.2114 67.1284 44.2114 67.5811C44.2114 68.0338 44.5781 68.4008 45.0305 68.4008Z" fill="white"/>
<path d="M47.3023 65.36C47.8568 65.36 48.3063 64.9101 48.3063 64.3552C48.3063 63.8003 47.8568 63.3504 47.3023 63.3504C46.7478 63.3504 46.2983 63.8003 46.2983 64.3552C46.2983 64.9101 46.7478 65.36 47.3023 65.36Z" fill="white"/>
<path d="M49.8921 62.6363C50.5633 62.6363 51.1075 62.0918 51.1075 61.42C51.1075 60.7483 50.5633 60.2037 49.8921 60.2037C49.2209 60.2037 48.6768 60.7483 48.6768 61.42C48.6768 62.0918 49.2209 62.6363 49.8921 62.6363Z" fill="white"/>
<path d="M52.7978 60.1773C53.5858 60.1773 54.2245 59.538 54.2245 58.7495C54.2245 57.9609 53.5858 57.3216 52.7978 57.3216C52.0099 57.3216 51.3711 57.9609 51.3711 58.7495C51.3711 59.538 52.0099 60.1773 52.7978 60.1773Z" fill="white"/>
<path d="M55.9427 58.0353C56.8328 58.0353 57.5544 57.3132 57.5544 56.4224C57.5544 55.5316 56.8328 54.8094 55.9427 54.8094C55.0526 54.8094 54.3311 55.5316 54.3311 56.4224C54.3311 57.3132 55.0526 58.0353 55.9427 58.0353Z" fill="white"/>
<path d="M59.3509 56.3169C60.3577 56.3169 61.1739 55.5001 61.1739 54.4925C61.1739 53.4848 60.3577 52.668 59.3509 52.668C58.344 52.668 57.5278 53.4848 57.5278 54.4925C57.5278 55.5001 58.344 56.3169 59.3509 56.3169Z" fill="white"/>
<path d="M62.9963 55.021C64.0003 55.021 64.8457 54.2806 64.9778 53.3023C65.3742 53.884 66.0347 54.2542 66.8009 54.2542C67.6463 54.2542 68.4125 53.7782 68.7824 53.0643C69.2316 53.646 69.9185 54.0426 70.7111 54.0426C71.4245 54.0426 72.0586 53.7253 72.5077 53.2494C72.9833 53.9104 73.7495 54.3599 74.6478 54.3599C75.2026 54.3599 75.7311 54.1748 76.1538 53.884C76.2595 54.0426 76.3652 54.1748 76.4973 54.3071C75.8367 54.3864 75.2291 54.6772 74.7799 55.1003C74.2779 54.6508 73.6174 54.3599 72.8776 54.3599C71.9529 54.3599 71.1074 54.8094 70.6054 55.5234C70.1563 55.1796 69.6015 54.9681 68.9674 54.9681C67.9105 54.9681 66.9858 55.6027 66.5631 56.5017C66.1668 56.2373 65.6912 56.0787 65.1628 56.0787C63.9739 56.0787 62.9699 56.8984 62.7321 58.0089C62.3886 57.7974 61.9659 57.6652 61.5167 57.6652C60.2221 57.6652 59.1653 58.7228 59.1653 60.0185C58.8482 59.8334 58.4784 59.7276 58.0821 59.7276C56.8667 59.7276 55.8891 60.706 55.8891 61.9223C55.8891 62.1338 55.9156 62.3454 55.9684 62.5305C55.6513 62.3454 55.3079 62.2396 54.9116 62.2396C53.8019 62.2396 52.8772 63.1386 52.8772 64.2756C52.8772 65.3862 53.7755 66.3116 54.9116 66.3116C56.0477 66.3116 56.946 65.4126 56.946 64.2756C56.946 64.0905 56.9195 63.9319 56.8667 63.7732C57.2102 64.0112 57.6329 64.1434 58.0556 64.1434C59.2446 64.1434 60.1957 63.1915 60.2485 62.0281C60.6184 62.266 61.0412 62.3982 61.4903 62.3982H61.6224C61.1204 62.8478 60.8034 63.4824 60.7505 64.1699C60.592 64.1434 60.4335 64.117 60.275 64.117C58.8483 64.117 57.7122 65.2804 57.7122 66.6818C57.7122 66.7876 57.7122 66.8934 57.7386 66.9727C57.6329 66.9727 57.5536 66.9462 57.448 66.9462C56.1005 66.9462 55.0173 68.0304 55.0173 69.3789C55.0173 69.6433 55.0701 69.9077 55.1494 70.1457H55.0173C53.7491 70.1457 52.7187 71.1769 52.7187 72.4461C52.7187 72.8957 52.8508 73.2923 53.0621 73.636H52.9829C51.7939 73.636 50.8164 74.6144 50.8164 75.8043C50.8164 76.4389 51.0806 76.9941 51.5033 77.3908H51.424C50.3144 77.3908 49.3896 78.2898 49.3896 79.4268C49.3896 80.5638 50.288 81.4628 51.424 81.4628C52.5337 81.4628 53.4584 80.5638 53.4584 79.4268C53.4584 78.8715 53.2206 78.3427 52.8508 77.9725H52.9829C53.617 77.9725 54.1718 77.7081 54.5681 77.285V77.3643C54.5681 77.9196 54.753 78.422 55.0701 78.8451C54.1454 79.1888 53.4849 80.0614 53.4849 81.0926C53.4849 81.833 53.8019 82.4676 54.3303 82.9171C53.5377 83.2873 53.0093 84.0541 53.0093 84.9796C53.0093 85.8521 53.5113 86.619 54.2246 86.9892C53.5377 87.3329 53.0357 88.0733 53.0357 88.9194C53.0357 89.9506 53.7491 90.7968 54.7002 91.0083C54.0397 91.352 53.5905 92.0131 53.5905 92.8064C53.5905 93.9169 54.4888 94.8424 55.6249 94.8424C55.757 94.8424 55.8627 94.8159 55.9948 94.8159C55.2286 95.0539 54.6474 95.7678 54.6474 96.6404C54.6474 97.6981 55.4928 98.5442 56.5497 98.5442C57.6065 98.5442 58.4519 97.6981 58.4519 96.6404C58.4519 95.5827 57.6065 94.7366 56.5497 94.7366C56.444 94.7366 56.3119 94.763 56.2062 94.763C57.0252 94.4986 57.6329 93.7318 57.6329 92.8328C57.6329 92.7799 57.6329 92.727 57.6065 92.7006C57.9235 93.0443 58.3463 93.2823 58.7954 93.4145C58.4519 93.8111 58.267 94.3135 58.267 94.8688C58.267 96.1116 59.271 97.1164 60.5128 97.1164H60.5656C60.3014 97.4601 60.1693 97.9096 60.1693 98.3591C60.1693 99.549 61.1204 100.501 62.3094 100.501C62.5207 100.501 62.7321 100.474 62.9435 100.422C62.7321 100.739 62.6 101.136 62.6 101.559C62.6 102.696 63.4983 103.595 64.6344 103.595C65.1099 103.595 65.5591 103.41 65.9026 103.145C65.6119 103.489 65.427 103.912 65.427 104.388C65.427 105.446 66.2989 106.318 67.3557 106.318C68.4125 106.318 69.2844 105.446 69.2844 104.388C69.2844 103.859 69.073 103.41 68.756 103.066C69.0202 103.066 69.258 103.013 69.4958 102.934V102.96C69.4958 103.885 70.0242 104.679 70.7904 105.049C70.6847 105.022 70.5526 105.022 70.4469 105.022C69.4429 105.022 68.6239 105.842 68.6239 106.847C68.6239 107.852 69.4429 108.671 70.4469 108.671C71.4509 108.671 72.2699 107.852 72.2699 106.847C72.2699 106.159 71.8736 105.551 71.3188 105.26C71.5037 105.313 71.6887 105.34 71.8736 105.34C72.3228 105.34 72.7455 105.208 73.1154 104.97C73.2211 106.133 74.1722 107.032 75.3612 107.032C75.9953 107.032 76.5765 106.768 76.9728 106.345C77.1314 107.376 78.0297 108.143 79.0865 108.143C79.9055 108.143 80.6189 107.693 80.9623 107.006C81.1473 107.931 81.9663 108.645 82.9439 108.645C84.0007 108.645 84.8462 107.852 84.9519 106.821C85.0311 107.825 85.8502 108.619 86.8542 108.619C87.911 108.619 88.7829 107.746 88.7829 106.688C88.7829 105.631 87.9374 104.784 86.907 104.758C87.0919 104.573 87.224 104.361 87.3562 104.15C87.7789 104.599 88.3866 104.864 89.0471 104.864C89.2849 104.864 89.5491 104.837 89.7604 104.758C89.2849 105.075 88.9678 105.631 88.9678 106.265C88.9678 107.27 89.7869 108.09 90.7908 108.09C91.7948 108.09 92.6139 107.27 92.6139 106.265C92.6139 105.26 91.7948 104.441 90.7908 104.441C90.6059 104.441 90.4209 104.467 90.2624 104.52C90.7908 104.203 91.1871 103.674 91.3457 103.039C91.742 103.383 92.244 103.568 92.7988 103.568C94.0406 103.568 95.0446 102.563 95.0446 101.321V101.268C95.388 101.532 95.8372 101.664 96.2863 101.664C97.4753 101.664 98.4264 100.712 98.4264 99.5226C98.4264 99.311 98.4 99.0995 98.3471 98.888C98.6642 99.0995 99.0605 99.2317 99.4832 99.2317C100.619 99.2317 101.518 98.3327 101.518 97.1957C101.518 96.7197 101.333 96.2702 101.068 95.9265C101.412 96.2173 101.835 96.4024 102.31 96.4024C103.367 96.4024 104.239 95.5299 104.239 94.4722C104.239 93.4145 103.367 92.5419 102.31 92.5419C101.782 92.5419 101.333 92.7535 100.989 93.0708C100.989 92.8064 100.936 92.5684 100.857 92.3304H100.884C101.808 92.3304 102.601 91.8016 102.971 91.0347C102.944 91.1405 102.944 91.2727 102.944 91.3785C102.944 92.3833 103.763 93.203 104.767 93.203C105.771 93.203 106.59 92.3833 106.59 91.3785C106.59 90.3737 105.771 89.554 104.767 89.554C104.08 89.554 103.473 89.9506 103.182 90.5059C103.235 90.3208 103.261 90.1357 103.261 89.9506C103.261 89.5011 103.129 89.0781 102.892 88.7079C104.054 88.6021 104.952 87.6502 104.952 86.4603C104.952 85.8257 104.688 85.244 104.265 84.8474C105.296 84.6887 106.062 83.7897 106.062 82.732C106.062 81.9123 105.613 81.1984 104.926 80.8546C105.851 80.6696 106.564 79.8499 106.564 78.8715C106.564 77.8138 105.771 76.9677 104.741 76.8619C105.745 76.7826 106.538 75.9629 106.538 74.9581C106.538 73.9004 105.666 73.0279 104.609 73.0279C103.552 73.0279 102.68 73.9004 102.68 74.9581C102.68 75.9629 103.42 76.7562 104.397 76.8619C103.341 76.9413 102.495 77.8138 102.495 78.8715C102.495 79.6383 102.918 80.2994 103.552 80.6431C102.548 80.8282 101.782 81.7008 101.782 82.7585C101.782 83.3402 102.02 83.869 102.416 84.2656C101.306 84.4243 100.461 85.3498 100.461 86.4867C100.461 86.9098 100.566 87.28 100.778 87.6238C99.5361 87.7031 98.5585 88.7079 98.5585 89.9771C98.5585 90.215 98.5849 90.453 98.6642 90.6646H98.5585C97.2111 90.6646 96.1014 91.7751 96.1014 93.1236V93.3087C95.9693 93.2823 95.8372 93.2823 95.7051 93.2823C94.4105 93.2823 93.3536 94.2342 93.1687 95.477C92.9573 95.4241 92.7195 95.3712 92.4553 95.3712C91.3721 95.3712 90.4474 96.0058 90.0246 96.9048C89.4962 96.4818 88.8093 96.2967 88.0959 96.4289C87.3033 96.5875 86.6956 97.0899 86.3786 97.7774C85.8766 97.2221 85.1104 96.9313 84.3178 97.037C83.5516 97.1428 82.9175 97.6188 82.574 98.2534C82.1513 97.7245 81.4908 97.3808 80.751 97.3808C80.064 97.3808 79.4564 97.6716 79.0072 98.1212C78.743 97.513 78.2146 97.037 77.5277 96.8255C76.8143 96.614 76.0745 96.7462 75.4933 97.1693C75.3347 96.4818 74.8856 95.8736 74.2251 95.5563C73.5646 95.239 72.8512 95.2654 72.2435 95.5299C72.2171 94.8688 71.9265 94.2078 71.3452 93.7583C70.7904 93.3352 70.1299 93.1765 69.4958 93.2823C69.6543 92.6213 69.5222 91.9073 69.0995 91.3256C68.6503 90.7174 67.937 90.4001 67.25 90.3737C67.5142 89.7391 67.5142 88.9987 67.1708 88.3377C66.8537 87.7295 66.3253 87.3329 65.7176 87.1742C66.0875 86.6718 66.2725 86.0372 66.1668 85.3498C66.0611 84.6094 65.6119 84.0277 65.0043 83.6839C65.5855 83.2344 65.929 82.5469 65.929 81.7801C65.929 81.0926 65.6119 80.458 65.1099 80.0349C65.6912 79.7441 66.1668 79.1888 66.3517 78.5013C66.5367 77.8138 66.3781 77.1263 65.9818 76.5711C66.5895 76.4389 67.1443 76.0422 67.4878 75.4605C67.8577 74.8259 67.8841 74.112 67.6728 73.4774C68.3597 73.5038 69.0466 73.2394 69.5486 72.6841C70.0506 72.1288 70.2356 71.4414 70.1299 70.7539C70.764 70.9125 71.4509 70.8068 72.0322 70.4101C72.6398 69.9871 72.9833 69.3525 73.0361 68.6914C73.6438 69.0087 74.3836 69.0616 75.0441 68.7707C75.6782 68.5063 76.1274 68.0039 76.3387 67.3958C76.8143 67.8188 77.4748 68.0568 78.1618 68.0039C78.928 67.9246 79.5621 67.5015 79.9319 66.9198C80.3283 67.4751 80.9623 67.8717 81.6757 67.9246C82.3891 67.9775 83.0232 67.7131 83.4987 67.2635C83.7365 67.8717 84.2649 68.4005 84.9519 68.6385C85.6652 68.8765 86.405 68.7443 86.9863 68.3741C87.1184 69.0351 87.5147 69.6698 88.1752 70.0135C88.7036 70.3044 89.3113 70.3572 89.8661 70.225C89.919 70.3044 89.9982 70.4101 90.0775 70.4895C90.1039 70.9918 90.3153 71.4942 90.6587 71.8909L90.7116 71.9438C91.9005 73.213 94.7011 76.2538 94.1727 80.3523C94.0406 81.3835 94.6218 81.8859 95.3352 81.0926C99.7739 76.3066 99.0869 70.4366 98.9812 69.7491C98.9548 69.2996 98.8491 68.8765 98.6906 68.4799C98.7435 68.2419 98.7699 67.9775 98.7699 67.7131C98.7699 66.4703 98.1886 65.3862 97.2639 64.6987C97.3167 64.4872 97.3432 64.2492 97.3432 64.0112C97.3432 62.4776 96.392 61.1819 95.071 60.6266C95.0446 58.9079 93.7764 57.5065 92.1383 57.2685C91.8477 55.7349 90.5002 54.545 88.8885 54.545H88.7036C88.3073 53.2758 87.1184 52.3768 85.7181 52.3768C85.4539 52.3768 85.1897 52.4032 84.9254 52.4826C84.4499 51.4513 83.4195 50.7374 82.2305 50.7374C81.755 50.7374 81.3322 50.8432 80.9359 51.0283C80.4604 50.2086 79.5621 49.6533 78.5052 49.6533C77.8447 49.6533 77.237 49.8913 76.7615 50.2615C76.2859 49.6004 75.5197 49.1773 74.6478 49.1773C73.8288 49.1773 73.089 49.574 72.6134 50.1557C72.1643 49.6004 71.5037 49.2567 70.7375 49.2567C69.76 49.2567 68.9145 49.8384 68.5446 50.6845C68.1483 50.2086 67.5406 49.8913 66.8537 49.8913C65.7176 49.8913 64.7665 50.7638 64.6608 51.8744C64.2909 51.3985 63.7097 51.0811 63.0491 51.0811C61.9395 51.0811 61.0412 51.9802 61.0412 53.0907C60.9883 54.122 61.8866 55.021 62.9963 55.021Z" fill="white"/>
<path d="M49.4432 107.482C49.5307 107.482 49.6017 107.411 49.6017 107.323C49.6017 107.235 49.5307 107.164 49.4432 107.164C49.3556 107.164 49.2847 107.235 49.2847 107.323C49.2847 107.411 49.3556 107.482 49.4432 107.482Z" fill="white"/>
<path d="M47.6198 104.177C47.7949 104.177 47.9368 104.035 47.9368 103.859C47.9368 103.684 47.7949 103.542 47.6198 103.542C47.4447 103.542 47.3027 103.684 47.3027 103.859C47.3027 104.035 47.4447 104.177 47.6198 104.177Z" fill="white"/>
<path d="M46.166 100.686C46.4287 100.686 46.6416 100.473 46.6416 100.21C46.6416 99.9474 46.4287 99.7343 46.166 99.7343C45.9033 99.7343 45.6904 99.9474 45.6904 100.21C45.6904 100.473 45.9033 100.686 46.166 100.686Z" fill="white"/>
<path d="M45.0838 97.0373C45.434 97.0373 45.7179 96.7532 45.7179 96.4027C45.7179 96.0522 45.434 95.7681 45.0838 95.7681C44.7336 95.7681 44.4497 96.0522 44.4497 96.4027C44.4497 96.7532 44.7336 97.0373 45.0838 97.0373Z" fill="white"/>
<path d="M44.4489 93.3355C44.8866 93.3355 45.2415 92.9804 45.2415 92.5423C45.2415 92.1042 44.8866 91.749 44.4489 91.749C44.0111 91.749 43.6562 92.1042 43.6562 92.5423C43.6562 92.9804 44.0111 93.3355 44.4489 93.3355Z" fill="white"/>
<path d="M44.185 89.5276C44.6957 89.5276 45.1097 89.1133 45.1097 88.6022C45.1097 88.091 44.6957 87.6767 44.185 87.6767C43.6743 87.6767 43.2603 88.091 43.2603 88.6022C43.2603 89.1133 43.6743 89.5276 44.185 89.5276Z" fill="white"/>
<path d="M44.3704 85.773C44.9686 85.773 45.4536 85.2876 45.4536 84.6889C45.4536 84.0901 44.9686 83.6048 44.3704 83.6048C43.7721 83.6048 43.2871 84.0901 43.2871 84.6889C43.2871 85.2876 43.7721 85.773 44.3704 85.773Z" fill="white"/>
<path d="M44.9508 82.0444C45.6366 82.0444 46.1925 81.488 46.1925 80.8016C46.1925 80.1153 45.6366 79.5589 44.9508 79.5589C44.2649 79.5589 43.709 80.1153 43.709 80.8016C43.709 81.488 44.2649 82.0444 44.9508 82.0444Z" fill="white"/>
<path d="M46.0346 78.4223C46.8079 78.4223 47.4349 77.7948 47.4349 77.0209C47.4349 76.2469 46.8079 75.6194 46.0346 75.6194C45.2612 75.6194 44.6343 76.2469 44.6343 77.0209C44.6343 77.7948 45.2612 78.4223 46.0346 78.4223Z" fill="white"/>
<path d="M47.594 74.9847C48.4549 74.9847 49.1528 74.2863 49.1528 73.4247C49.1528 72.5631 48.4549 71.8646 47.594 71.8646C46.7331 71.8646 46.0352 72.5631 46.0352 73.4247C46.0352 74.2863 46.7331 74.9847 47.594 74.9847Z" fill="white"/>
<path d="M49.628 71.759C50.5765 71.759 51.3453 70.9895 51.3453 70.0403C51.3453 69.091 50.5765 68.3215 49.628 68.3215C48.6795 68.3215 47.9106 69.091 47.9106 70.0403C47.9106 70.9895 48.6795 71.759 49.628 71.759Z" fill="white"/>
<path d="M52.059 68.8503C53.095 68.8503 53.9348 68.0097 53.9348 66.9729C53.9348 65.9361 53.095 65.0955 52.059 65.0955C51.023 65.0955 50.1831 65.9361 50.1831 66.9729C50.1831 68.0097 51.023 68.8503 52.059 68.8503Z" fill="white"/>
<defs>
<filter id="filter0_f_235_20699" x="8.876" y="3.97122" width="141.054" height="159.785" filterUnits="userSpaceOnUse" color-interpolation-filters="sRGB">
<feFlood flood-opacity="0" result="BackgroundImageFix"/>
<feBlend mode="normal" in="SourceGraphic" in2="BackgroundImageFix" result="shape"/>
<feGaussianBlur stdDeviation="2.49755" result="effect1_foregroundBlur_235_20699"/>
</filter>
<filter id="filter1_f_235_20699" x="0.662661" y="0.641161" width="157.482" height="176.435" filterUnits="userSpaceOnUse" color-interpolation-filters="sRGB">
<feFlood flood-opacity="0" result="BackgroundImageFix"/>
<feBlend mode="normal" in="SourceGraphic" in2="BackgroundImageFix" result="shape"/>
<feGaussianBlur stdDeviation="6.24387" result="effect1_foregroundBlur_235_20699"/>
</filter>
<linearGradient id="paint0_linear_235_20699" x1="79.4033" y1="2.30619" x2="79.4033" y2="158.761" gradientUnits="userSpaceOnUse">
<stop stop-color="#7878F8"/>
<stop offset="1" stop-color="#4747F5"/>
</linearGradient>
</defs>
</svg>
