<svg width="159" height="177" viewBox="0 0 159 177" fill="none" xmlns="http://www.w3.org/2000/svg">
<g opacity="0.3" filter="url(#filter0_f_235_20543)">
<path d="M76.9056 9.10208C78.4511 8.20979 80.3552 8.20979 81.9007 9.10208L142.438 44.0531C143.983 44.9454 144.935 46.5944 144.935 48.379V118.281C144.935 120.066 143.983 121.715 142.438 122.607L81.9007 157.558C80.3552 158.45 78.4511 158.45 76.9056 157.558L16.3686 122.607C14.8232 121.715 13.8711 120.066 13.8711 118.281V48.379C13.8711 46.5944 14.8232 44.9454 16.3686 44.0531L76.9056 9.10208Z" fill="#931A42"/>
</g>
<g opacity="0.4" filter="url(#filter1_f_235_20543)">
<path d="M76.9059 13.2646C78.4514 12.3724 80.3555 12.3724 81.901 13.2646L143.159 48.632C144.704 49.5242 145.657 51.1733 145.657 52.9578V123.692C145.657 125.477 144.704 127.126 143.159 128.018L81.901 163.386C80.3555 164.278 78.4514 164.278 76.9059 163.386L15.6479 128.018C14.1025 127.126 13.1504 125.477 13.1504 123.692V52.9578C13.1504 51.1733 14.1025 49.5242 15.6479 48.632L76.9059 13.2646Z" fill="#931A42"/>
</g>
<path d="M76.9058 2.44195C78.4513 1.54966 80.3554 1.54966 81.9009 2.44195L145.322 39.058C146.867 39.9503 147.819 41.5993 147.819 43.3839V116.616C147.819 118.401 146.867 120.05 145.322 120.942L81.9009 157.558C80.3554 158.45 78.4513 158.45 76.9058 157.558L13.4848 120.942C11.9394 120.05 10.9873 118.401 10.9873 116.616V43.3839C10.9873 41.5993 11.9394 39.9503 13.4849 39.058L76.9058 2.44195Z" fill="url(#paint0_linear_235_20543)"/>
<path d="M74.3123 49.1661C60.7411 51.0225 50.2266 61.409 48.7222 74.4521C47.762 82.9021 51.0268 91.7362 57.2522 97.6256C65.3502 105.259 76.7289 107.916 87.6114 104.715C88.3636 104.507 89.0198 104.363 89.0678 104.427C89.1318 104.491 90.092 105.9 91.2123 107.58C92.3486 109.244 93.2768 110.637 93.3088 110.669C93.3248 110.701 95.2933 109.452 97.6778 107.884C100.719 105.9 101.999 104.971 101.935 104.827C101.887 104.699 101.023 103.371 100.014 101.883L98.158 99.1779L99.9664 97.3855C104.543 92.8404 107.296 87.4952 108.192 81.3817C108.544 78.9171 108.432 74.356 107.936 72.0515C105.584 61.0569 97.1657 52.5269 85.9311 49.7902C82.4582 48.942 77.7851 48.7019 74.3123 49.1661ZM82.1061 57.168C86.4432 57.9361 90.4281 60.0486 93.5329 63.2654C95.7414 65.5539 97.2297 68.0185 98.254 71.0593C100.607 78.0849 98.8941 86.0068 93.8849 91.3521L92.7807 92.5203L94.7651 95.433C95.8534 97.0334 96.7336 98.3937 96.7336 98.4417C96.7336 98.5698 89.2118 103.531 88.8918 103.611C88.7157 103.659 87.9795 102.683 86.4912 100.474C84.8748 98.0577 84.2667 97.2735 84.0746 97.3375C82.1862 97.9456 78.1212 98.2177 75.9127 97.9136C71.9757 97.3375 68.807 96.0092 65.7503 93.6406C61.6693 90.4879 58.9166 85.8308 58.0684 80.6935C57.5563 77.4928 57.9724 73.1878 59.1247 70.2431C60.9331 65.586 64.454 61.633 68.887 59.2645C70.4874 58.4163 73.112 57.504 74.9044 57.184C76.6328 56.8799 80.3297 56.8639 82.1061 57.168Z" fill="#ECECEC"/>
<defs>
<filter id="filter0_f_235_20543" x="8.876" y="3.43777" width="141.054" height="159.785" filterUnits="userSpaceOnUse" color-interpolation-filters="sRGB">
<feFlood flood-opacity="0" result="BackgroundImageFix"/>
<feBlend mode="normal" in="SourceGraphic" in2="BackgroundImageFix" result="shape"/>
<feGaussianBlur stdDeviation="2.49755" result="effect1_foregroundBlur_235_20543"/>
</filter>
<filter id="filter1_f_235_20543" x="0.662661" y="0.107698" width="157.482" height="176.435" filterUnits="userSpaceOnUse" color-interpolation-filters="sRGB">
<feFlood flood-opacity="0" result="BackgroundImageFix"/>
<feBlend mode="normal" in="SourceGraphic" in2="BackgroundImageFix" result="shape"/>
<feGaussianBlur stdDeviation="6.24387" result="effect1_foregroundBlur_235_20543"/>
</filter>
<linearGradient id="paint0_linear_235_20543" x1="79.4033" y1="1.77274" x2="79.4033" y2="158.227" gradientUnits="userSpaceOnUse">
<stop stop-color="#E3638E"/>
<stop offset="1" stop-color="#DC386E"/>
</linearGradient>
</defs>
</svg>
