<svg width="163" height="181" viewBox="0 0 163 181" fill="none" xmlns="http://www.w3.org/2000/svg">
<g opacity="0.3" filter="url(#filter0_f_235_20915)">
<path d="M78.5339 10.91C80.3903 9.83824 82.6775 9.83824 84.5339 10.91L143.486 44.9459C145.342 46.0177 146.486 47.9985 146.486 50.1421V118.214C146.486 120.357 145.342 122.338 143.486 123.41L84.5339 157.446C82.6775 158.518 80.3903 158.518 78.5339 157.446L19.582 123.41C17.7256 122.338 16.582 120.357 16.582 118.214V50.1421C16.582 47.9985 17.7256 46.0177 19.582 44.9459L78.5339 10.91Z" fill="#521B6F"/>
</g>
<g opacity="0.4" filter="url(#filter1_f_235_20915)">
<path d="M78.5337 15.91C80.3902 14.8382 82.6773 14.8382 84.5338 15.91L144.352 50.4459C146.208 51.5177 147.352 53.4985 147.352 55.6421V124.714C147.352 126.857 146.208 128.838 144.352 129.91L84.5338 164.446C82.6773 165.518 80.3902 165.518 78.5338 164.446L18.7158 129.91C16.8594 128.838 15.7158 126.857 15.7158 124.714V55.6421C15.7158 53.4985 16.8594 51.5177 18.7158 50.4459L78.5337 15.91Z" fill="#521B6F"/>
</g>
<path d="M78.5337 2.91002C80.3901 1.83822 82.6773 1.83822 84.5337 2.91002L146.95 38.9459C148.806 40.0177 149.95 41.9985 149.95 44.1421V116.214C149.95 118.357 148.806 120.338 146.95 121.41L84.5337 157.446C82.6773 158.518 80.3901 158.518 78.5337 157.446L16.1177 121.41C14.2613 120.338 13.1177 118.357 13.1177 116.214V44.1421C13.1177 41.9985 14.2613 40.0177 16.1177 38.9459L78.5337 2.91002Z" fill="url(#paint0_linear_235_20915)"/>
<g clip-path="url(#clip0_235_20915)">
<path d="M74.5945 106.199C85.1349 106.199 93.6768 97.6573 93.6768 87.117C93.6768 76.5766 85.1349 68.0347 74.5945 68.0347C64.0542 68.0347 55.5122 76.5766 55.5122 87.117C55.5122 97.6573 64.0542 106.199 74.5945 106.199ZM74.5945 113.138C60.2238 113.138 48.5732 101.488 48.5732 87.117C48.5732 72.7463 60.2238 61.0957 74.5945 61.0957C88.9652 61.0957 100.616 72.7463 100.616 87.117C100.616 101.488 88.9652 113.138 74.5945 113.138Z" fill="white"/>
<path d="M88.4724 92.3212C99.0128 92.3212 107.555 83.7793 107.555 73.239C107.555 62.6986 99.0128 54.1567 88.4724 54.1567C77.9321 54.1567 69.3902 62.6986 69.3902 73.239C69.3902 83.7793 77.9321 92.3212 88.4724 92.3212ZM88.4724 99.2602C74.1018 99.2602 62.4512 87.6097 62.4512 73.239C62.4512 58.8683 74.1018 47.2177 88.4724 47.2177C102.843 47.2177 114.494 58.8683 114.494 73.239C114.494 87.6097 102.843 99.2602 88.4724 99.2602Z" fill="white"/>
<path d="M89.3329 99.2602C91.137 97.0744 92.4277 94.514 93.1146 91.7592C95.8625 91.0722 98.423 89.7816 100.616 87.9774C100.519 91.1624 99.8316 94.2988 98.5895 97.241C95.6543 98.4761 92.5179 99.1631 89.3329 99.2602ZM69.9522 68.5968C67.2044 69.2837 64.6439 70.5744 62.4512 72.3785C62.5483 69.1935 63.2353 66.0571 64.4774 63.1219C67.4126 61.8868 70.5559 61.1998 73.734 61.0957C71.9299 63.2815 70.6392 65.842 69.9522 68.5968Z" fill="#973AC8"/>
</g>
<defs>
<filter id="filter0_f_235_20915" x="10.582" y="4.10619" width="141.904" height="160.144" filterUnits="userSpaceOnUse" color-interpolation-filters="sRGB">
<feFlood flood-opacity="0" result="BackgroundImageFix"/>
<feBlend mode="normal" in="SourceGraphic" in2="BackgroundImageFix" result="shape"/>
<feGaussianBlur stdDeviation="3" result="effect1_foregroundBlur_235_20915"/>
</filter>
<filter id="filter1_f_235_20915" x="0.71582" y="0.106186" width="161.636" height="180.144" filterUnits="userSpaceOnUse" color-interpolation-filters="sRGB">
<feFlood flood-opacity="0" result="BackgroundImageFix"/>
<feBlend mode="normal" in="SourceGraphic" in2="BackgroundImageFix" result="shape"/>
<feGaussianBlur stdDeviation="7.5" result="effect1_foregroundBlur_235_20915"/>
</filter>
<linearGradient id="paint0_linear_235_20915" x1="81.5337" y1="2.10617" x2="81.5337" y2="158.25" gradientUnits="userSpaceOnUse">
<stop stop-color="#A64ED4"/>
<stop offset="1" stop-color="#8E2FC1"/>
</linearGradient>
<clipPath id="clip0_235_20915">
<rect width="65.9205" height="65.9205" fill="white" transform="translate(48.5732 47.2177)"/>
</clipPath>
</defs>
</svg>
