<svg width="19" height="19" viewBox="0 0 19 19" fill="none" xmlns="http://www.w3.org/2000/svg">
<rect x="0.5" y="0.5" width="18" height="18" rx="5.5" fill="#252536"/>
<rect x="0.5" y="0.5" width="18" height="18" rx="5.5" stroke="black"/>
<rect x="0.5" y="0.5" width="18" height="18" rx="5.5" stroke="#36394C"/>
<rect x="0.5" y="0.5" width="18" height="18" rx="5.5" stroke="#36394C"/>
<g opacity="0.9">
<path fill-rule="evenodd" clip-rule="evenodd" d="M13.8536 6.48808C14.0488 6.69419 14.0488 7.02836 13.8536 7.23447L8.53033 12.8534C8.23744 13.1626 7.76256 13.1626 7.46967 12.8534L5.14645 10.4011C4.95118 10.195 4.95118 9.86086 5.14645 9.65475C5.34171 9.44864 5.65829 9.44864 5.85355 9.65475L8 11.9204L13.1464 6.48808C13.3417 6.28197 13.6583 6.28197 13.8536 6.48808Z" fill="white" fill-opacity="0.7"/>
<path fill-rule="evenodd" clip-rule="evenodd" d="M13.8536 6.48808C14.0488 6.69419 14.0488 7.02836 13.8536 7.23447L8.53033 12.8534C8.23744 13.1626 7.76256 13.1626 7.46967 12.8534L5.14645 10.4011C4.95118 10.195 4.95118 9.86086 5.14645 9.65475C5.34171 9.44864 5.65829 9.44864 5.85355 9.65475L8 11.9204L13.1464 6.48808C13.3417 6.28197 13.6583 6.28197 13.8536 6.48808Z" fill="#00E8EB"/>
</g>
</svg>
