<svg width="159" height="177" viewBox="0 0 159 177" fill="none" xmlns="http://www.w3.org/2000/svg">
<g opacity="0.3" filter="url(#filter0_f_235_20638)">
<path d="M76.68 9.10208C78.2255 8.20979 80.1297 8.20979 81.6751 9.10208L142.212 44.0531C143.758 44.9454 144.71 46.5944 144.71 48.379V118.281C144.71 120.066 143.758 121.715 142.212 122.607L81.6751 157.558C80.1297 158.45 78.2255 158.45 76.68 157.558L16.1431 122.607C14.5976 121.715 13.6455 120.066 13.6455 118.281V48.379C13.6455 46.5944 14.5976 44.9454 16.1431 44.0531L76.68 9.10208Z" fill="#194327"/>
</g>
<g opacity="0.4" filter="url(#filter1_f_235_20638)">
<path d="M76.6803 13.2646C78.2258 12.3724 80.1299 12.3724 81.6754 13.2646L142.933 48.632C144.479 49.5242 145.431 51.1733 145.431 52.9578V123.692C145.431 125.477 144.479 127.126 142.933 128.018L81.6754 163.386C80.1299 164.278 78.2258 164.278 76.6803 163.386L15.4224 128.018C13.8769 127.126 12.9248 125.477 12.9248 123.692V52.9578C12.9248 51.1733 13.8769 49.5242 15.4224 48.632L76.6803 13.2646Z" fill="#194327"/>
</g>
<path d="M76.6802 2.44195C78.2257 1.54966 80.1298 1.54966 81.6753 2.44195L145.096 39.058C146.642 39.9503 147.594 41.5993 147.594 43.3839V116.616C147.594 118.401 146.642 120.05 145.096 120.942L81.6753 157.558C80.1298 158.45 78.2257 158.45 76.6802 157.558L13.2593 120.942C11.7138 120.05 10.7617 118.401 10.7617 116.616V43.3839C10.7617 41.5993 11.7138 39.9503 13.2593 39.058L76.6802 2.44195Z" fill="url(#paint0_linear_235_20638)"/>
<path d="M46.9836 75.141C44.3648 76.0325 42.1916 76.8126 42.1359 76.8126C42.0245 76.8126 41.9688 77.0355 41.9688 77.2584C41.9688 77.4812 43.0832 77.9827 44.4205 78.4285C47.708 79.3757 52.2214 82.3847 59.4094 88.4583C70.8879 98.2094 75.457 100.94 83.5366 103.001C96.3524 106.289 108.11 101.776 114.907 91.0214C116.189 89.0712 117.192 87.2881 117.192 87.0652C117.192 86.8981 116.022 88.0125 114.629 89.5727C109.948 94.8105 101.98 97.4851 94.6808 96.3149C85.7654 94.9219 78.2988 90.5757 68.2133 80.9917C59.9109 73.135 55.899 72.0206 46.9836 75.141Z" fill="white"/>
<path d="M56.1784 59.7621C50.9963 61.378 47.5973 63.774 44.6999 67.7859C42.6939 70.6277 40.4093 76.0326 41.0223 76.5898C41.1894 76.757 42.7496 76.2555 44.5327 75.5311C51.665 72.5779 56.457 72.2993 60.9704 74.5838C62.1962 75.2525 65.3723 77.7599 68.0469 80.2674C80.6399 92.0245 88.4408 96.0364 98.582 95.9807C103.318 95.9807 103.931 95.8692 107.887 93.919C112.679 91.523 115.744 88.4584 117.973 83.7778C119.756 79.9888 120.536 75.9212 119.366 76.3669C118.92 76.5341 116.58 77.4813 114.184 78.4843C104.098 82.5519 101.201 81.6047 85.7662 69.569C78.6896 64.0526 73.8419 61.2108 69.3285 59.8735C65.7066 58.8148 59.2987 58.7591 56.1784 59.7621Z" fill="white"/>
<defs>
<filter id="filter0_f_235_20638" x="8.65042" y="3.43777" width="141.054" height="159.785" filterUnits="userSpaceOnUse" color-interpolation-filters="sRGB">
<feFlood flood-opacity="0" result="BackgroundImageFix"/>
<feBlend mode="normal" in="SourceGraphic" in2="BackgroundImageFix" result="shape"/>
<feGaussianBlur stdDeviation="2.49755" result="effect1_foregroundBlur_235_20638"/>
</filter>
<filter id="filter1_f_235_20638" x="0.437075" y="0.107698" width="157.482" height="176.435" filterUnits="userSpaceOnUse" color-interpolation-filters="sRGB">
<feFlood flood-opacity="0" result="BackgroundImageFix"/>
<feBlend mode="normal" in="SourceGraphic" in2="BackgroundImageFix" result="shape"/>
<feGaussianBlur stdDeviation="6.24387" result="effect1_foregroundBlur_235_20638"/>
</filter>
<linearGradient id="paint0_linear_235_20638" x1="79.1777" y1="1.77274" x2="79.1777" y2="158.227" gradientUnits="userSpaceOnUse">
<stop stop-color="#1EA3A3"/>
<stop offset="1" stop-color="#1A8D8D"/>
</linearGradient>
</defs>
</svg>
