<svg width="40" height="40" viewBox="0 0 40 40" fill="none" xmlns="http://www.w3.org/2000/svg">
<path d="M20.0001 36.0361C28.8732 36.0361 36.0662 28.843 36.0662 19.97C36.0662 11.097 28.8732 3.90393 20.0001 3.90393C11.1271 3.90393 3.93408 11.097 3.93408 19.97C3.93408 28.843 11.1271 36.0361 20.0001 36.0361Z" fill="#7392E1"/>
<path fill-rule="evenodd" clip-rule="evenodd" d="M20 1.5015C9.784 1.5015 1.5015 9.78399 1.5015 20C1.5015 30.216 9.784 38.4985 20 38.4985C23.5492 38.4985 26.8678 37.4889 29.6981 35.7561C30.0517 35.5396 30.5139 35.6508 30.7304 36.0044C30.9469 36.358 30.8357 36.8202 30.4821 37.0367C27.4265 38.9074 23.8382 40 20 40C8.95474 40 0 31.0452 0 20C0 8.95473 8.95474 0 20 0C23.649 0 27.0516 0.967478 30.0158 2.68361C30.3746 2.89135 30.4971 3.35065 30.2894 3.70948C30.0816 4.06831 29.6223 4.19079 29.2635 3.98305C26.522 2.39587 23.3781 1.5015 20 1.5015Z" fill="#ACBFEB"/>
<path fill-rule="evenodd" clip-rule="evenodd" d="M36.2256 9.56347C36.5827 9.35292 37.043 9.47179 37.2535 9.82898C39.0024 12.7958 40.0002 16.2906 40.0002 19.97C40.0002 24.3991 38.5647 28.4881 36.1304 31.7963C35.8846 32.1303 35.4147 32.2018 35.0807 31.9561C34.7468 31.7103 34.6753 31.2404 34.921 30.9064C37.1713 27.8483 38.4987 24.0694 38.4987 19.97C38.4987 16.5623 37.5745 13.3303 35.96 10.5915C35.7495 10.2343 35.8684 9.77403 36.2256 9.56347Z" fill="#ACBFEB"/>
<path d="M12.7048 15.2188C13.3208 14.6739 14.1151 14.3737 14.9375 14.375H25.0625C25.9183 14.375 26.6997 14.6938 27.2952 15.2188C27.2267 14.675 26.9621 14.1749 26.551 13.8124C26.1399 13.4499 25.6106 13.2499 25.0625 13.25H14.9375C14.3894 13.2499 13.8601 13.4499 13.449 13.8124C13.0379 14.1749 12.7733 14.675 12.7048 15.2188ZM12.7048 17.4688C13.3208 16.9239 14.1151 16.6237 14.9375 16.625H25.0625C25.9183 16.625 26.6997 16.9437 27.2952 17.4688C27.2267 16.925 26.9621 16.4249 26.551 16.0624C26.1399 15.6999 25.6106 15.4999 25.0625 15.5H14.9375C14.3894 15.4999 13.8601 15.6999 13.449 16.0624C13.0379 16.4249 12.7733 16.925 12.7048 17.4688ZM14.9375 17.75C14.3408 17.75 13.7685 17.9871 13.3465 18.409C12.9246 18.831 12.6875 19.4033 12.6875 20V24.5C12.6875 25.0967 12.9246 25.669 13.3465 26.091C13.7685 26.5129 14.3408 26.75 14.9375 26.75H25.0625C25.6592 26.75 26.2315 26.5129 26.6535 26.091C27.0754 25.669 27.3125 25.0967 27.3125 24.5V20C27.3125 19.4033 27.0754 18.831 26.6535 18.409C26.2315 17.9871 25.6592 17.75 25.0625 17.75H22.25C22.1008 17.75 21.9577 17.8093 21.8523 17.9148C21.7468 18.0202 21.6875 18.1633 21.6875 18.3125C21.6875 18.7601 21.5097 19.1893 21.1932 19.5057C20.8768 19.8222 20.4476 20 20 20C19.5524 20 19.1232 19.8222 18.8068 19.5057C18.4903 19.1893 18.3125 18.7601 18.3125 18.3125C18.3125 18.1633 18.2532 18.0202 18.1477 17.9148C18.0423 17.8093 17.8992 17.75 17.75 17.75H14.9375Z" fill="#232D44"/>
</svg>
