<svg width="163" height="181" viewBox="0 0 163 181" fill="none" xmlns="http://www.w3.org/2000/svg">
<g opacity="0.3" filter="url(#filter0_f_235_20958)">
<path d="M78.4031 11.0879C80.2595 10.0161 82.5467 10.0161 84.4031 11.0879L143.355 45.1238C145.211 46.1956 146.355 48.1763 146.355 50.3199V118.392C146.355 120.535 145.211 122.516 143.355 123.588L84.4031 157.624C82.5467 158.696 80.2595 158.696 78.4031 157.624L19.4512 123.588C17.5948 122.516 16.4512 120.535 16.4512 118.392V50.3199C16.4512 48.1763 17.5948 46.1956 19.4512 45.1238L78.4031 11.0879Z" fill="#073B54"/>
</g>
<g opacity="0.4" filter="url(#filter1_f_235_20958)">
<path d="M78.4034 16.0879C80.2598 15.0161 82.547 15.0161 84.4034 16.0879L144.221 50.6238C146.078 51.6956 147.221 53.6763 147.221 55.8199V124.892C147.221 127.035 146.078 129.016 144.221 130.088L84.4034 164.624C82.547 165.696 80.2598 165.696 78.4034 164.624L18.5855 130.088C16.729 129.016 15.5854 127.035 15.5854 124.892V55.8199C15.5854 53.6763 16.729 51.6956 18.5854 50.6238L78.4034 16.0879Z" fill="#073B54"/>
</g>
<path d="M78.4033 3.08789C80.2597 2.01609 82.5469 2.01609 84.4033 3.08789L146.819 39.1238C148.676 40.1956 149.819 42.1763 149.819 44.3199V116.392C149.819 118.535 148.676 120.516 146.819 121.588L84.4033 157.624C82.5469 158.696 80.2597 158.696 78.4033 157.624L15.9873 121.588C14.1309 120.516 12.9873 118.535 12.9873 116.392V44.3199C12.9873 42.1763 14.1309 40.1956 15.9873 39.1238L78.4033 3.08789Z" fill="url(#paint0_linear_235_20958)"/>
<g clip-path="url(#clip0_235_20958)">
<mask id="mask0_235_20958" style="mask-type:luminance" maskUnits="userSpaceOnUse" x="50" y="50" width="62" height="62">
<path d="M111.224 50.5346H50.5356V111.223H111.224V50.5346Z" fill="white"/>
</mask>
<g mask="url(#mask0_235_20958)">
<path fill-rule="evenodd" clip-rule="evenodd" d="M105.061 62.5776C100.462 56.6983 93.729 52.9527 86.2851 52.9527C71.8715 52.9527 61.2984 66.3706 61.2984 80.879C61.2984 90.978 68.0311 98.5641 75.4749 98.5641C76.1861 98.5641 76.8499 98.5167 77.5611 98.3744C72.5353 94.7236 69.3586 88.0858 69.3586 80.879C69.3586 69.4051 77.1344 60.444 86.2851 60.444C96.2893 60.444 103.212 70.3533 103.212 80.879C103.164 88.6548 100.414 96.3831 95.5307 102.073C91.2635 107.051 85.7636 110.18 79.6947 111.176C79.6947 111.176 80.2162 111.223 80.88 111.223C97.6168 111.223 111.224 97.6158 111.224 80.879C111.224 74.0041 108.949 67.6508 105.061 62.5776ZM100.462 80.879C100.462 70.78 93.729 63.1939 86.2851 63.1939C85.5739 63.1939 84.9101 63.2414 84.1989 63.3836C89.2247 67.0344 92.4014 73.6722 92.4014 80.879C92.4014 92.353 84.6256 101.314 75.4749 101.314C65.4708 101.314 58.5485 91.4047 58.5485 80.879C58.5959 73.1033 61.3458 65.3749 66.2294 59.6854C70.4966 54.707 75.9965 51.5777 82.0653 50.5821C82.0653 50.5821 81.5438 50.5346 80.88 50.5346C64.1432 50.5346 50.5356 64.1422 50.5356 80.879C50.5356 87.7539 52.8115 94.1073 56.6993 99.1805C61.2984 105.06 68.0311 108.758 75.4749 108.758C89.8885 108.805 100.462 95.3874 100.462 80.879Z" fill="white"/>
</g>
</g>
<defs>
<filter id="filter0_f_235_20958" x="10.4512" y="4.28404" width="141.904" height="160.144" filterUnits="userSpaceOnUse" color-interpolation-filters="sRGB">
<feFlood flood-opacity="0" result="BackgroundImageFix"/>
<feBlend mode="normal" in="SourceGraphic" in2="BackgroundImageFix" result="shape"/>
<feGaussianBlur stdDeviation="3" result="effect1_foregroundBlur_235_20958"/>
</filter>
<filter id="filter1_f_235_20958" x="0.585449" y="0.284042" width="161.636" height="180.144" filterUnits="userSpaceOnUse" color-interpolation-filters="sRGB">
<feFlood flood-opacity="0" result="BackgroundImageFix"/>
<feBlend mode="normal" in="SourceGraphic" in2="BackgroundImageFix" result="shape"/>
<feGaussianBlur stdDeviation="7.5" result="effect1_foregroundBlur_235_20958"/>
</filter>
<linearGradient id="paint0_linear_235_20958" x1="81.4033" y1="2.28404" x2="81.4033" y2="158.428" gradientUnits="userSpaceOnUse">
<stop stop-color="#149DE1"/>
<stop offset="1" stop-color="#107CB2"/>
</linearGradient>
<clipPath id="clip0_235_20958">
<rect width="60.6887" height="60.6887" fill="white" transform="translate(50.5356 50.5346)"/>
</clipPath>
</defs>
</svg>
