<svg width="159" height="177" viewBox="0 0 159 177" fill="none" xmlns="http://www.w3.org/2000/svg">
<g opacity="0.3" filter="url(#filter0_f_235_20590)">
<path d="M76.7279 9.45792C78.2734 8.56563 80.1775 8.56563 81.723 9.45792L142.26 44.409C143.805 45.3013 144.758 46.9503 144.758 48.7348V118.637C144.758 120.422 143.805 122.071 142.26 122.963L81.723 157.914C80.1775 158.806 78.2734 158.806 76.7279 157.914L16.1909 122.963C14.6454 122.071 13.6934 120.422 13.6934 118.637V48.7348C13.6934 46.9503 14.6454 45.3013 16.1909 44.409L76.7279 9.45792Z" fill="#274319"/>
</g>
<g opacity="0.4" filter="url(#filter1_f_235_20590)">
<path d="M76.7282 13.6205C78.2737 12.7282 80.1778 12.7282 81.7233 13.6205L142.981 48.9878C144.527 49.8801 145.479 51.5291 145.479 53.3137V124.048C145.479 125.833 144.527 127.482 142.981 128.374L81.7233 163.741C80.1778 164.634 78.2737 164.634 76.7282 163.741L15.4702 128.374C13.9247 127.482 12.9727 125.833 12.9727 124.048V53.3137C12.9727 51.5291 13.9247 49.8801 15.4702 48.9878L76.7282 13.6205Z" fill="#274319"/>
</g>
<path d="M76.728 2.79779C78.2735 1.90551 80.1776 1.90551 81.7231 2.79779L145.144 39.4139C146.69 40.3062 147.642 41.9552 147.642 43.7398V116.972C147.642 118.756 146.69 120.406 145.144 121.298L81.7231 157.914C80.1776 158.806 78.2735 158.806 76.728 157.914L13.3071 121.298C11.7616 120.406 10.8096 118.756 10.8096 116.972V43.7398C10.8096 41.9552 11.7616 40.3062 13.3071 39.4139L76.728 2.79779Z" fill="url(#paint0_linear_235_20590)"/>
<g clip-path="url(#clip0_235_20590)">
<path d="M68.6672 63.8157C68.7009 63.7941 68.7371 63.7767 68.775 63.7639C69.1719 63.5827 69.5731 63.4058 69.97 63.2505V55.3819C69.97 54.6954 69.6973 54.0371 69.2119 53.5516C68.7264 53.0662 68.0681 52.7935 67.3816 52.7935H56.6528V75.3727C59.2735 70.3008 63.4975 66.2376 68.6672 63.8157Z" fill="white"/>
<path d="M79.5949 77.5729H81.9848C82.8106 77.574 83.6285 77.4124 84.3918 77.0973C85.1551 76.7822 85.8488 76.3198 86.4333 75.7365C87.0178 75.1532 87.4817 74.4604 87.7984 73.6978C88.115 72.9351 88.2783 72.1176 88.2789 71.2918V64.5577C86.9847 64.3334 81.0703 64.2083 79.6984 64.2083C66.4244 64.0918 55.6223 75.7093 56.6447 88.9186V103.275C56.6447 103.962 56.9174 104.62 57.4028 105.106C57.8882 105.591 58.5466 105.864 59.2331 105.864H69.9619V87.1714C69.9687 84.6219 70.9869 82.1792 72.793 80.3796C74.599 78.58 77.0453 77.5706 79.5949 77.5729Z" fill="white"/>
<path d="M93.1617 94.8285C93.1294 94.8488 93.0946 94.8647 93.0582 94.8759C92.6613 95.0614 92.2601 95.2383 91.8589 95.3936V103.262C91.8589 103.949 92.1316 104.607 92.617 105.092C93.1024 105.578 93.7608 105.851 94.4473 105.851H105.167V83.2714C102.549 88.3419 98.3282 92.4049 93.1617 94.8285Z" fill="white"/>
<path d="M105.168 69.73V55.3689C105.168 54.6824 104.895 54.0241 104.409 53.5386C103.924 53.0532 103.266 52.7805 102.579 52.7805H91.8504V71.4685C91.8447 74.0151 90.8299 76.4556 89.0284 78.2555C87.2269 80.0554 84.7855 81.0679 82.2389 81.0714H79.8274C79.0017 81.0702 78.1838 81.232 77.4207 81.5475C76.6577 81.863 75.9643 82.3259 75.3804 82.9098C74.7965 83.4937 74.3336 84.187 74.0181 84.9501C73.7027 85.7132 73.5409 86.531 73.542 87.3568V94.0908C75.1295 94.3281 80.9404 94.4618 82.6013 94.4316C85.8187 94.3743 88.9879 93.6393 91.9021 92.2747L91.9625 92.2445C96.1795 90.2638 99.698 87.0529 102.055 83.0341C104.412 79.0154 105.497 74.3773 105.168 69.73Z" fill="white"/>
</g>
<defs>
<filter id="filter0_f_235_20590" x="8.69827" y="3.79361" width="141.054" height="159.785" filterUnits="userSpaceOnUse" color-interpolation-filters="sRGB">
<feFlood flood-opacity="0" result="BackgroundImageFix"/>
<feBlend mode="normal" in="SourceGraphic" in2="BackgroundImageFix" result="shape"/>
<feGaussianBlur stdDeviation="2.49755" result="effect1_foregroundBlur_235_20590"/>
</filter>
<filter id="filter1_f_235_20590" x="0.484926" y="0.463549" width="157.482" height="176.435" filterUnits="userSpaceOnUse" color-interpolation-filters="sRGB">
<feFlood flood-opacity="0" result="BackgroundImageFix"/>
<feBlend mode="normal" in="SourceGraphic" in2="BackgroundImageFix" result="shape"/>
<feGaussianBlur stdDeviation="6.24387" result="effect1_foregroundBlur_235_20590"/>
</filter>
<linearGradient id="paint0_linear_235_20590" x1="79.2256" y1="2.12858" x2="79.2256" y2="158.583" gradientUnits="userSpaceOnUse">
<stop stop-color="#63A840"/>
<stop offset="1" stop-color="#528D34"/>
</linearGradient>
<clipPath id="clip0_235_20590">
<rect width="64.7091" height="64.7091" fill="white" transform="translate(48.1587 46.8917)"/>
</clipPath>
</defs>
</svg>
