<svg width="159" height="160" viewBox="0 0 159 160" fill="none" xmlns="http://www.w3.org/2000/svg">
<g opacity="0.3" filter="url(#filter0_f_235_20948)">
<path d="M79.3061 0.672061C79.3664 0.637235 79.4407 0.637237 79.501 0.672063L147.609 39.9945C147.67 40.0293 147.707 40.0937 147.707 40.1634V118.808C147.707 118.878 147.67 118.942 147.609 118.977L79.501 158.3C79.4407 158.334 79.3664 158.334 79.3061 158.3L11.1976 118.977C11.1373 118.942 11.1001 118.878 11.1001 118.808V40.1634C11.1001 40.0937 11.1373 40.0293 11.1976 39.9945L79.3061 0.672061Z" fill="#0C378D"/>
</g>
<g opacity="0.4" filter="url(#filter1_f_235_20948)">
<path d="M79.3059 0.834529C79.3662 0.799703 79.4405 0.799705 79.5008 0.834531L147.637 40.1732C147.698 40.2081 147.735 40.2724 147.735 40.3421V119.019C147.735 119.089 147.698 119.153 147.637 119.188L79.5008 158.527C79.4405 158.562 79.3662 158.562 79.3059 158.527L11.1693 119.188C11.1089 119.153 11.0718 119.089 11.0718 119.019V40.3421C11.0718 40.2724 11.1089 40.2081 11.1693 40.1732L79.3059 0.834529Z" fill="#0C378D"/>
</g>
<path d="M79.3058 0.412113C79.3662 0.377287 79.4405 0.377288 79.5008 0.412114L147.722 39.7996C147.782 39.8344 147.819 39.8987 147.819 39.9684V118.743C147.819 118.813 147.782 118.877 147.722 118.912L79.5008 158.3C79.4405 158.334 79.3661 158.334 79.3058 158.3L11.0848 118.912C11.0245 118.877 10.9873 118.813 10.9873 118.743V39.9684C10.9873 39.8987 11.0245 39.8344 11.0848 39.7996L79.3058 0.412113Z" fill="url(#paint0_linear_235_20948)"/>
<path d="M59.5615 93.908L78.7278 47.7668L97.8942 93.908L78.7278 113.962L59.5615 93.908Z" fill="white"/>
<path d="M59.5615 93.908L78.7278 47.7668L97.8942 93.908L78.7278 113.962L59.5615 93.908Z" fill="white"/>
<path d="M54.5923 95.2322L78.7277 39.0711L102.863 95.2322L78.7277 119.641L54.5923 95.2322Z" stroke="white" stroke-width="0.0324933"/>
<defs>
<filter id="filter0_f_235_20948" x="10.9051" y="0.450983" width="136.997" height="158.07" filterUnits="userSpaceOnUse" color-interpolation-filters="sRGB">
<feFlood flood-opacity="0" result="BackgroundImageFix"/>
<feBlend mode="normal" in="SourceGraphic" in2="BackgroundImageFix" result="shape"/>
<feGaussianBlur stdDeviation="0.09748" result="effect1_foregroundBlur_235_20948"/>
</filter>
<filter id="filter1_f_235_20948" x="10.5844" y="0.321011" width="137.638" height="158.72" filterUnits="userSpaceOnUse" color-interpolation-filters="sRGB">
<feFlood flood-opacity="0" result="BackgroundImageFix"/>
<feBlend mode="normal" in="SourceGraphic" in2="BackgroundImageFix" result="shape"/>
<feGaussianBlur stdDeviation="0.2437" result="effect1_foregroundBlur_235_20948"/>
</filter>
<linearGradient id="paint0_linear_235_20948" x1="79.4033" y1="0.385994" x2="79.4033" y2="158.326" gradientUnits="userSpaceOnUse">
<stop stop-color="#4D83EF"/>
<stop offset="1" stop-color="#145CEB"/>
</linearGradient>
</defs>
</svg>
