<svg width="408" height="383" viewBox="0 0 408 383" fill="none" xmlns="http://www.w3.org/2000/svg">
<g opacity="0.73">
<path d="M205.393 112.354C205.393 112.354 164.389 142.187 148.426 155.727C132.464 169.271 118.267 182.659 118.267 182.659C118.267 182.659 103.258 197.361 89.4978 213.868C75.7378 230.374 66.7404 248.805 66.7404 248.805C66.7404 248.805 61.7686 263.371 61.522 278.583C61.275 293.8 62.7388 300.381 64.5497 311.712C66.3609 323.043 67.09 325.069 67.09 325.069C67.09 325.069 61.1473 319.227 46.9569 303.514C31.9701 286.927 15.7636 253.354 15.7636 253.354C15.7636 253.354 12.0016 245.808 9.12861 236.62C6.25634 227.432 2.18312 214.711 2.18312 214.711C2.18312 214.711 -1.49582 198.443 0.697882 185.217C2.89085 171.99 3.93342 167.73 10.8918 155.181C17.8503 142.627 31.7575 130.775 31.7575 130.775C31.7575 130.775 40.8221 122.583 54.2158 113.349C67.6095 104.121 69.5927 103.413 82.1052 98.0916C94.618 92.7648 109.734 90.4149 109.734 90.4149C109.734 90.4149 124.264 87.6299 141.309 88.6963C149.443 89.2017 158.903 90.8189 158.903 90.8189C158.903 90.8189 168.595 93.2751 176.757 96.7018C192.37 103.257 205.393 112.354 205.393 112.354Z" fill="url(#paint0_linear_233_13280)"/>
<path d="M212.903 110.126C212.903 110.126 197.391 96.2879 173.838 88.2068C150.286 80.1257 118.244 80.0699 118.244 80.0699C118.244 80.0699 93.45 79.9032 73.3135 87.1706C53.1766 94.4383 44.9648 102.858 44.9648 102.858C44.5292 103.131 30.8361 114.472 29.3501 115.766L0.545898 141.379C0.545898 141.379 2.48855 132.338 9.27492 119.395C16.0609 106.451 18.6312 102.853 27.6895 89.6119C36.7482 76.3706 52.5985 60.3395 52.5985 60.3395C52.5985 60.3395 72.3429 41.1645 97.178 27.0185C120.438 13.7621 143.184 8.22805 143.184 8.22805L179.552 1.76409C179.552 1.76409 207.827 -1.63723 231.142 1.00598C254.457 3.64918 254.879 4.18996 273.898 10.8561C292.918 17.5172 308.704 27.5138 308.704 27.5138C308.704 27.5138 329.396 38.9055 343.653 54.8556C357.911 70.8061 363.626 90.0212 363.626 90.0212C363.626 90.0212 367.406 107.574 361.802 125.773C356.201 143.972 346.37 158.34 342.752 162.707C340.293 165.674 337.413 169.798 330.58 176.378C327.349 179.491 316.902 188.275 316.902 188.275C316.529 188.628 312.778 191.717 311.127 192.849L309.954 193.658C308.303 194.789 306.868 195.618 306.747 195.512C306.747 195.512 214.442 111.015 212.903 110.126Z" fill="url(#paint1_linear_233_13280)"/>
<path d="M124.701 202.638C124.701 202.638 103.751 221.64 92.4873 235.286C81.2238 248.937 79.6467 257.225 79.6467 257.225C77.5925 260.945 75.1943 267.252 74.2894 271.306L74.1141 272.094C73.2095 276.152 71.3858 281.201 70.6385 289.722C69.8909 298.243 71.1244 306.173 71.1244 306.173C73.0382 321.87 82.3203 333.919 82.3203 333.919C82.3203 333.919 91.5448 347.829 107.179 357.747C122.814 367.668 145.451 374.74 145.451 374.74C145.451 374.74 153.6 377.661 163.319 379.338C173.037 381.023 184.324 381.46 184.324 381.46C184.324 381.46 208.329 383.087 227.578 381.527C246.827 379.964 261.322 375.22 261.322 375.22C265.904 374.26 273.139 372.189 277.483 370.586L285.711 367.558C290.054 365.959 296.877 362.978 300.951 360.902L328.761 346.734C344.501 336.896 345.114 335.597 356.54 325.317C367.967 315.032 374.464 305.607 374.464 305.607C374.464 305.607 380.537 299.148 386.81 289.889C393.079 280.625 393.016 279.675 398.14 269.112C403.264 258.554 407.3 247.643 407.3 247.643C407.3 247.643 384.838 267.955 369.262 279.321C362.639 284.153 359.003 286.285 359.003 286.285C359.003 286.285 348.854 292.022 340.178 295.327C332.359 298.299 328.84 298.875 325.002 299.587C321.427 300.255 317.61 301.104 308.866 302.296C298.469 303.717 290.352 304.369 290.352 304.369C290.352 304.369 283.44 304.879 276.516 304.267C260.285 302.832 258.165 302.549 245.913 298.905C233.662 295.256 223.467 288.413 223.467 288.413C223.467 288.413 207.136 278.745 197.344 270.199C187.552 261.652 185.723 260.596 173.629 249.452C161.536 238.313 157.625 233.184 144.84 221.817C132.054 210.456 124.701 202.638 124.701 202.638Z" fill="url(#paint2_linear_233_13280)"/>
</g>
<defs>
<linearGradient id="paint0_linear_233_13280" x1="182.454" y1="111.42" x2="-20.4491" y2="349.975" gradientUnits="userSpaceOnUse">
<stop stop-color="#092C3E"/>
<stop offset="0.547521" stop-color="#00E8EB"/>
<stop offset="1" stop-color="#8BFFFF"/>
</linearGradient>
<linearGradient id="paint1_linear_233_13280" x1="330.218" y1="198.123" x2="50.1495" y2="-43.3306" gradientUnits="userSpaceOnUse">
<stop stop-color="#092C3E"/>
<stop offset="0.547521" stop-color="#00E8EB"/>
<stop offset="1" stop-color="#8BFFFF"/>
</linearGradient>
<linearGradient id="paint2_linear_233_13280" x1="71.4777" y1="292.515" x2="407.303" y2="292.515" gradientUnits="userSpaceOnUse">
<stop stop-color="#092C3E"/>
<stop offset="0.547521" stop-color="#00E8EB"/>
<stop offset="1" stop-color="#8BFFFF"/>
</linearGradient>
</defs>
</svg>
