<svg width="150" height="28" viewBox="0 0 150 28" fill="none" xmlns="http://www.w3.org/2000/svg">
<path d="M14.5601 8.33582C14.5601 8.33582 11.6533 10.4817 10.5218 11.4555C9.39021 12.4298 8.3838 13.3927 8.3838 13.3927C8.3838 13.3927 7.31981 14.4502 6.34439 15.6375C5.36896 16.8247 4.73115 18.1505 4.73115 18.1505C4.73115 18.1505 4.3787 19.1981 4.36122 20.2923C4.34371 21.3869 4.44748 21.8602 4.57585 22.6752C4.70424 23.4902 4.75593 23.636 4.75593 23.636C4.75593 23.636 4.33466 23.2157 3.32872 22.0856C2.26632 20.8925 1.11746 18.4776 1.11746 18.4776C1.11746 18.4776 0.85078 17.9349 0.647116 17.274C0.443505 16.6131 0.154759 15.6982 0.154759 15.6982C0.154759 15.6982 -0.106037 14.528 0.049472 13.5767C0.204929 12.6253 0.278836 12.3189 0.772109 11.4163C1.26538 10.5133 2.25125 9.66085 2.25125 9.66085C2.25125 9.66085 2.89383 9.07159 3.84329 8.40744C4.79275 7.74365 4.93335 7.69276 5.82034 7.30998C6.70736 6.92683 7.77891 6.75781 7.77891 6.75781C7.77891 6.75781 8.80893 6.55749 10.0172 6.6342C10.5938 6.67054 11.2644 6.78687 11.2644 6.78687C11.2644 6.78687 11.9515 6.96354 12.5301 7.21001C13.6369 7.68149 14.5601 8.33582 14.5601 8.33582Z" fill="url(#paint0_linear_235_19997)"/>
<path d="M15.0923 8.17556C15.0923 8.17556 13.9927 7.18023 12.3231 6.59897C10.6535 6.01771 8.38209 6.0137 8.38209 6.0137C8.38209 6.0137 6.62444 6.00171 5.19698 6.52444C3.76951 7.04719 3.18738 7.6528 3.18738 7.6528C3.1565 7.67243 2.18581 8.48818 2.08047 8.58124L0.0385742 10.4236C0.0385742 10.4236 0.176287 9.7732 0.657364 8.84224C1.13842 7.91127 1.32062 7.65245 1.96275 6.70003C2.60492 5.74762 3.72852 4.59453 3.72852 4.59453C3.72852 4.59453 5.12818 3.21532 6.88871 2.19783C8.5376 1.24433 10.15 0.84628 10.15 0.84628L12.7281 0.381343C12.7281 0.381343 14.7325 0.136693 16.3853 0.326813C18.038 0.516933 18.0679 0.55583 19.4162 1.03531C20.7645 1.51443 21.8835 2.23346 21.8835 2.23346C21.8835 2.23346 23.3504 3.05284 24.361 4.20009C25.3717 5.34738 25.7769 6.72948 25.7769 6.72948C25.7769 6.72948 26.0449 7.99198 25.6476 9.30101C25.2506 10.61 24.5536 11.6435 24.2971 11.9576C24.1228 12.171 23.9187 12.4676 23.4343 12.9409C23.2053 13.1649 22.4647 13.7966 22.4647 13.7966C22.4383 13.8221 22.1723 14.0442 22.0553 14.1256L21.9721 14.1838C21.8551 14.2652 21.7534 14.3248 21.7448 14.3172C21.7448 14.3172 15.2014 8.23953 15.0923 8.17556Z" fill="url(#paint1_linear_235_19997)"/>
<path d="M8.83969 14.8297C8.83969 14.8297 7.35458 16.1965 6.55612 17.178C5.75767 18.1599 5.64586 18.7561 5.64586 18.7561C5.50025 19.0236 5.33024 19.4773 5.2661 19.7688L5.25366 19.8256C5.18955 20.1174 5.06026 20.4806 5.00729 21.0935C4.95429 21.7064 5.04173 22.2767 5.04173 22.2767C5.1774 23.4058 5.8354 24.2725 5.8354 24.2725C5.8354 24.2725 6.48931 25.273 7.59763 25.9864C8.70592 26.7 10.3106 27.2086 10.3106 27.2086C10.3106 27.2086 10.8883 27.4187 11.5773 27.5394C12.2662 27.6605 13.0664 27.692 13.0664 27.692C13.0664 27.692 14.768 27.809 16.1326 27.6968C17.4971 27.5844 18.5246 27.2431 18.5246 27.2431C18.8494 27.1741 19.3623 27.0251 19.6702 26.9098L20.2535 26.6921C20.5614 26.5771 21.0451 26.3626 21.3338 26.2133L23.3053 25.1943C24.4211 24.4866 24.4645 24.3932 25.2745 23.6538C26.0845 22.914 26.5451 22.236 26.5451 22.236C26.5451 22.236 26.9757 21.7715 27.4203 21.1055C27.8647 20.4392 27.8602 20.3708 28.2235 19.6111C28.5867 18.8517 28.8728 18.0668 28.8728 18.0668C28.8728 18.0668 27.2805 19.5278 26.1764 20.3454C25.7069 20.6929 25.4491 20.8463 25.4491 20.8463C25.4491 20.8463 24.7296 21.2589 24.1146 21.4966C23.5603 21.7104 23.3109 21.7518 23.0388 21.8031C22.7854 21.8511 22.5148 21.9121 21.8949 21.9979C21.1579 22.1001 20.5825 22.147 20.5825 22.147C20.5825 22.147 20.0925 22.1837 19.6017 22.1397C18.4511 22.0365 18.3008 22.0161 17.4323 21.754C16.5638 21.4915 15.8411 20.9993 15.8411 20.9993C15.8411 20.9993 14.6835 20.3039 13.9893 19.6892C13.2951 19.0745 13.1655 18.9985 12.3082 18.197C11.4509 17.3958 11.1737 17.0268 10.2673 16.2093C9.36096 15.3921 8.83969 14.8297 8.83969 14.8297Z" fill="url(#paint2_linear_235_19997)"/>
<path d="M49.8885 21.7572C52.5999 21.7572 54.946 20.2561 56.1083 18.0632L53.5104 16.7416C52.8497 18.0183 51.5069 18.8684 49.8885 18.8684C47.5877 18.8684 45.8341 17.1236 45.8341 14.8623C45.8341 12.6015 47.5877 10.8547 49.8885 10.8547C51.5069 10.8547 52.8497 11.7049 53.5104 12.9815L56.1083 11.6599C54.946 9.46702 52.5999 7.96594 49.8885 7.96594C46.0168 7.96594 42.8726 11.0553 42.8726 14.8623C42.8726 18.6674 46.0168 21.7572 49.8885 21.7572Z" fill="#F5F8FC"/>
<path d="M62.4849 21.7572C65.5373 21.7572 67.5427 19.7865 67.5427 17.1001C67.5427 14.4142 65.5373 12.4435 62.4849 12.4435C59.4325 12.4435 57.4053 14.4142 57.4053 17.1001C57.4053 19.7865 59.4325 21.7572 62.4849 21.7572ZM62.4849 19.2269C61.2314 19.2053 60.3209 18.3088 60.3209 17.1001C60.3209 15.8919 61.2314 14.9949 62.4849 14.9738C63.7147 14.9949 64.6489 15.8919 64.6489 17.1001C64.6489 18.3088 63.7147 19.2053 62.4849 19.2269Z" fill="#F5F8FC"/>
<path d="M71.1179 11.1238C71.9828 11.1238 72.7125 10.4063 72.7125 9.5566C72.7125 8.68301 71.9828 7.98938 71.1179 7.98938C70.2514 7.98938 69.5229 8.68301 69.5229 9.5566C69.5229 10.4063 70.2514 11.1238 71.1179 11.1238ZM69.6601 21.5778H72.5522V12.6231H69.6601V21.5778Z" fill="#F5F8FC"/>
<path d="M80.821 12.4435C79.7733 12.4435 78.8612 12.9365 78.2247 13.7201V12.623H75.3091V21.5777H78.2247V16.3849C78.2247 15.5779 78.9068 14.9738 79.7499 14.9738C80.5926 14.9738 81.1858 15.5779 81.1858 16.3849V21.5777H84.0776V15.913C84.0776 13.9441 82.6198 12.4435 80.821 12.4435Z" fill="#F5F8FC"/>
<path d="M90.7971 21.7572C93.3498 21.7572 95.5132 20.2795 95.5132 17.7727C95.5132 12.8021 89.2263 14.0341 89.2263 11.7049C89.2263 10.9442 89.8172 10.5857 90.5473 10.5857C91.3206 10.5857 92.096 11.0108 92.7784 11.7494L94.7838 9.86871C93.7818 8.72794 92.2549 7.96594 90.5691 7.96594C88.4051 7.96594 86.1954 9.24257 86.1954 11.9289C86.1954 16.496 92.5068 15.3985 92.5068 17.7493C92.5068 18.4883 91.8683 18.9813 90.8209 18.9813C89.5674 18.9813 88.5872 18.2873 88.0875 17.2346L85.6045 18.7573C86.4928 20.4356 88.4051 21.7572 90.7971 21.7572Z" fill="#F5F8FC"/>
<path d="M106.651 17.079C106.651 14.2797 104.691 12.4219 101.754 12.4219C98.8147 12.4219 96.7422 14.3013 96.7422 17.1001C96.7422 19.8994 98.7925 21.7572 101.845 21.7572C104.372 21.7572 106.058 20.4356 106.514 18.4883H103.712C103.462 19.2054 102.801 19.6304 101.8 19.6304C100.479 19.6304 99.7946 18.8469 99.6816 17.5702H106.651V17.079ZM101.8 14.6148C102.779 14.6148 103.349 15.0633 103.644 15.8469H99.8617C100.159 15.0849 100.774 14.6148 101.8 14.6148Z" fill="#F5F8FC"/>
<path d="M114.19 12.4435C113.143 12.4435 112.231 12.9365 111.594 13.7201V12.623H108.678V21.5777H111.594V16.3849C111.594 15.5779 112.276 14.9738 113.119 14.9738C113.962 14.9738 114.555 15.5779 114.555 16.3849V21.5777H117.447V15.913C117.447 13.9441 115.989 12.4435 114.19 12.4435Z" fill="#F5F8FC"/>
<path d="M126.421 6.24268V13.4066C125.739 12.8021 124.872 12.4436 123.825 12.4436C121.296 12.4436 119.314 14.5038 119.314 17.1002C119.314 19.697 121.296 21.7573 123.825 21.7573C124.872 21.7573 125.739 21.3988 126.421 20.7942V21.5994L129.315 21.5778V6.24268H126.421ZM124.394 19.227C123.186 19.227 122.231 18.2873 122.231 17.1002C122.231 15.9131 123.186 14.9739 124.394 14.9739C125.579 14.9739 126.558 15.9131 126.558 17.1002C126.558 18.2873 125.579 19.227 124.394 19.227Z" fill="#F5F8FC"/>
<path d="M141.273 17.079C141.273 14.2797 139.313 12.4219 136.376 12.4219C133.436 12.4219 131.364 14.3013 131.364 17.1001C131.364 19.8994 133.415 21.7572 136.467 21.7572C138.994 21.7572 140.68 20.4356 141.136 18.4883H138.334C138.084 19.2054 137.423 19.6304 136.421 19.6304C135.1 19.6304 134.416 18.8469 134.303 17.5702H141.273V17.079ZM136.421 14.6148C137.401 14.6148 137.97 15.0633 138.266 15.8469H134.484C134.781 15.0849 135.396 14.6148 136.421 14.6148Z" fill="#F5F8FC"/>
<path d="M148.766 12.4435C147.696 12.4435 146.807 12.9815 146.216 13.8546V12.623H143.3V21.5777H146.216V17.3012C146.216 15.8235 147.239 14.9738 148.675 14.9738C149.017 14.9738 149.314 15.0183 149.518 15.0633V12.533C149.314 12.4669 149.04 12.4435 148.766 12.4435Z" fill="#F5F8FC"/>
<defs>
<linearGradient id="paint0_linear_235_19997" x1="12.9339" y1="8.26863" x2="-1.69301" y2="25.2173" gradientUnits="userSpaceOnUse">
<stop stop-color="#092C3E"/>
<stop offset="0.547521" stop-color="#00E8EB"/>
<stop offset="1" stop-color="#8BFFFF"/>
</linearGradient>
<linearGradient id="paint1_linear_235_19997" x1="23.4086" y1="14.505" x2="3.30915" y2="-2.57297" gradientUnits="userSpaceOnUse">
<stop stop-color="#092C3E"/>
<stop offset="0.547521" stop-color="#00E8EB"/>
<stop offset="1" stop-color="#8BFFFF"/>
</linearGradient>
<linearGradient id="paint2_linear_235_19997" x1="5.06678" y1="21.2944" x2="28.8731" y2="21.2944" gradientUnits="userSpaceOnUse">
<stop stop-color="#092C3E"/>
<stop offset="0.547521" stop-color="#00E8EB"/>
<stop offset="1" stop-color="#8BFFFF"/>
</linearGradient>
</defs>
</svg>
