<svg width="32" height="37" viewBox="0 0 32 37" fill="none" xmlns="http://www.w3.org/2000/svg">
<path d="M15.9882 2.66235C10.8509 2.66235 6.67383 6.95149 6.67383 12.2266C6.67383 13.1387 6.79386 14.0507 7.03392 14.8889H24.9184C25.1585 14.0507 25.2785 13.1633 25.2785 12.2266C25.3025 6.95149 21.1494 2.66235 15.9882 2.66235Z" fill="#7392E1"/>
<path fill-rule="evenodd" clip-rule="evenodd" d="M16.3243 4.93005C16.6557 4.93005 16.9244 5.20596 16.9244 5.54631V7.54299C16.9244 7.88333 16.6557 8.15924 16.3243 8.15924C15.9928 8.15924 15.7241 7.88333 15.7241 7.54299V5.54631C15.7241 5.20596 15.9928 4.93005 16.3243 4.93005Z" fill="#232D44"/>
<path fill-rule="evenodd" clip-rule="evenodd" d="M14.2115 4.93005C14.5429 4.93005 14.8116 5.20596 14.8116 5.54631V14.7162C14.8116 15.0565 14.5429 15.3325 14.2115 15.3325C13.88 15.3325 13.6113 15.0565 13.6113 14.7162V5.54631C13.6113 5.20596 13.88 4.93005 14.2115 4.93005Z" fill="#232D44"/>
<path fill-rule="evenodd" clip-rule="evenodd" d="M11.835 7.54301C11.835 7.20266 12.1037 6.92676 12.4351 6.92676H16.9242C18.4999 6.92676 19.805 8.23376 19.805 9.88478V9.90943C19.805 11.5274 18.5321 12.8675 16.9242 12.8675H14.1875C13.8561 12.8675 13.5874 12.5915 13.5874 12.2512C13.5874 11.9109 13.8561 11.6349 14.1875 11.6349H16.9242C17.861 11.6349 18.6047 10.8551 18.6047 9.90943V9.88478C18.6047 8.92289 17.8452 8.15927 16.9242 8.15927H12.4351C12.1037 8.15927 11.835 7.88336 11.835 7.54301Z" fill="#232D44"/>
<path fill-rule="evenodd" clip-rule="evenodd" d="M13.6113 12.2265C13.6113 11.8861 13.88 11.6102 14.2115 11.6102H16.9482C18.5238 11.6102 19.8289 12.9172 19.8289 14.5683V14.5929C19.8289 14.9332 19.5602 15.2092 19.2287 15.2092C18.8973 15.2092 18.6286 14.9332 18.6286 14.5929V14.5683C18.6286 13.6064 17.8691 12.8427 16.9482 12.8427H14.2115C13.88 12.8427 13.6113 12.5668 13.6113 12.2265Z" fill="#232D44"/>
<path fill-rule="evenodd" clip-rule="evenodd" d="M15.988 1.23251C10.0779 1.23251 5.28135 6.15781 5.28135 12.2265C5.28135 13.0167 5.37194 13.8118 5.53235 14.5883C5.60113 14.9213 5.39404 15.2484 5.0698 15.319C4.74556 15.3897 4.42696 15.177 4.35818 14.8441C4.18251 13.9937 4.08105 13.1125 4.08105 12.2265C4.08105 5.47711 9.41501 0 15.988 0C18.162 0 20.1846 0.597577 21.9512 1.63417C22.239 1.80303 22.339 2.17947 22.1745 2.47498C22.0101 2.77049 21.6435 2.87315 21.3557 2.70429C19.7615 1.76887 17.9431 1.23251 15.988 1.23251Z" fill="#ACBFEB"/>
<path fill-rule="evenodd" clip-rule="evenodd" d="M25.4312 5.80347C25.7172 5.63146 26.0849 5.73009 26.2524 6.02377C27.2882 7.83964 27.8951 9.96792 27.8951 12.2266C27.8951 13.0787 27.8195 13.8891 27.6403 14.7041C27.5673 15.0361 27.246 15.2445 26.9227 15.1695C26.5994 15.0946 26.3964 14.7647 26.4694 14.4327C26.6263 13.7195 26.6948 13.0015 26.6948 12.2266C26.6948 10.1962 26.1494 8.28184 25.2167 6.64668C25.0491 6.353 25.1452 5.97548 25.4312 5.80347Z" fill="#ACBFEB"/>
<path fill-rule="evenodd" clip-rule="evenodd" d="M3.57689 15.3325C2.25508 15.3325 1.2003 16.4338 1.2003 17.7729V33.3271C1.2003 34.6844 2.27278 35.7675 3.57689 35.7675H28.4231C29.7241 35.7675 30.7997 34.663 30.7997 33.3271V17.7729C30.7997 16.4156 29.7272 15.3325 28.4231 15.3325H3.57689ZM0 17.7729C0 15.7595 1.58587 14.1 3.57689 14.1H28.4231C30.3838 14.1 32 15.7284 32 17.7729V33.3271C32 35.3437 30.387 37 28.4231 37H3.57689C1.61618 37 0 35.3716 0 33.3271V17.7729Z" fill="#ACBFEB"/>
<path fill-rule="evenodd" clip-rule="evenodd" d="M20.2373 22.9493C19.3881 22.9493 18.6769 23.6639 18.6769 24.5516V26.5482C18.6769 27.4404 19.3684 28.1505 20.2373 28.1505H30.7999V22.9493H20.2373ZM17.4766 24.5516C17.4766 22.9743 18.7338 21.7168 20.2373 21.7168H31.4C31.7315 21.7168 32.0002 21.9927 32.0002 22.3331V28.7668C32.0002 29.1071 31.7315 29.383 31.4 29.383H20.2373C18.7055 29.383 17.4766 28.1211 17.4766 26.5482V24.5516Z" fill="#ACBFEB"/>
<path d="M22.7575 25.5623C22.7575 26.4004 22.0853 27.0906 21.2691 27.0906C20.4529 27.0906 19.7808 26.4004 19.7808 25.5623C19.7808 24.7241 20.4529 24.0339 21.2691 24.0339C22.0853 24.0339 22.7575 24.6995 22.7575 25.5623Z" fill="#ACBFEB"/>
</svg>
