<svg width="159" height="177" viewBox="0 0 159 177" fill="none" xmlns="http://www.w3.org/2000/svg">
<g opacity="0.3" filter="url(#filter0_f_235_20651)">
<path d="M76.68 9.28006C78.2255 8.38777 80.1297 8.38777 81.6751 9.28006L142.212 44.2311C143.758 45.1234 144.71 46.7724 144.71 48.557V118.459C144.71 120.244 143.758 121.893 142.212 122.785L81.6751 157.736C80.1297 158.628 78.2255 158.628 76.68 157.736L16.1431 122.785C14.5976 121.893 13.6455 120.244 13.6455 118.459V48.557C13.6455 46.7724 14.5976 45.1234 16.1431 44.2311L76.68 9.28006Z" fill="#931A42"/>
</g>
<g opacity="0.4" filter="url(#filter1_f_235_20651)">
<path d="M76.6803 13.4426C78.2258 12.5504 80.1299 12.5504 81.6754 13.4426L142.933 48.8099C144.479 49.7022 145.431 51.3512 145.431 53.1358V123.87C145.431 125.655 144.479 127.304 142.933 128.196L81.6754 163.564C80.1299 164.456 78.2258 164.456 76.6803 163.564L15.4224 128.196C13.8769 127.304 12.9248 125.655 12.9248 123.87V53.1358C12.9248 51.3512 13.8769 49.7022 15.4224 48.8099L76.6803 13.4426Z" fill="#931A42"/>
</g>
<path d="M76.6802 2.61993C78.2257 1.72764 80.1298 1.72764 81.6753 2.61993L145.096 39.236C146.642 40.1283 147.594 41.7773 147.594 43.5619V116.794C147.594 118.579 146.642 120.228 145.096 121.12L81.6753 157.736C80.1298 158.628 78.2257 158.628 76.6802 157.736L13.2593 121.12C11.7138 120.228 10.7617 118.579 10.7617 116.794V43.5619C10.7617 41.7773 11.7138 40.1283 13.2593 39.236L76.6802 2.61993Z" fill="url(#paint0_linear_235_20651)"/>
<path d="M96.5994 66.3914C96.0409 67.0563 96.0764 68.5279 95.181 68.0757C95.181 68.0757 88.9488 65.691 92.7874 58.6787C93.8246 57.0564 94.8973 56.95 94.7377 53.0051C95.6952 54.4589 98.8334 57.3756 99.0816 61.9588C99.3298 65.0173 97.5036 65.4251 96.5994 66.3914Z" fill="white"/>
<path fill-rule="evenodd" clip-rule="evenodd" d="M91.6476 77.2907L91.633 77.2957C88.7873 77.8542 83.0072 75.9659 85.4274 70.3809C92.8741 54.5744 76.385 44.3175 76.385 44.3175C76.385 44.3175 77.3424 50.4876 74.5233 56.64C72.5589 60.2596 69.6014 63.238 66.6257 66.2347C61.5845 71.3116 56.4908 76.4413 56.0839 84.831C55.2772 110.549 81.1721 113.82 81.1721 113.82C82.5906 110.167 86.0834 107.738 89.5053 106.285C94.984 104.051 100.799 101.098 102.36 95.0259C105.531 82.1564 100.599 76.4463 97.4545 72.8054C96.7932 72.0397 96.2109 71.3655 95.7996 70.7355C95.6493 75.9493 93.1824 76.7763 91.6476 77.2907ZM66.1905 90.5045V81.9053H93.0518V90.5045H83.9207V99.6355H75.3216V90.5045H66.1905Z" fill="white"/>
<defs>
<filter id="filter0_f_235_20651" x="8.65042" y="3.61575" width="141.054" height="159.785" filterUnits="userSpaceOnUse" color-interpolation-filters="sRGB">
<feFlood flood-opacity="0" result="BackgroundImageFix"/>
<feBlend mode="normal" in="SourceGraphic" in2="BackgroundImageFix" result="shape"/>
<feGaussianBlur stdDeviation="2.49755" result="effect1_foregroundBlur_235_20651"/>
</filter>
<filter id="filter1_f_235_20651" x="0.437075" y="0.285692" width="157.482" height="176.435" filterUnits="userSpaceOnUse" color-interpolation-filters="sRGB">
<feFlood flood-opacity="0" result="BackgroundImageFix"/>
<feBlend mode="normal" in="SourceGraphic" in2="BackgroundImageFix" result="shape"/>
<feGaussianBlur stdDeviation="6.24387" result="effect1_foregroundBlur_235_20651"/>
</filter>
<linearGradient id="paint0_linear_235_20651" x1="79.1777" y1="1.95071" x2="79.1777" y2="158.405" gradientUnits="userSpaceOnUse">
<stop stop-color="#E3638E"/>
<stop offset="1" stop-color="#DC386E"/>
</linearGradient>
</defs>
</svg>
