<svg width="160" height="178" viewBox="0 0 160 178" fill="none" xmlns="http://www.w3.org/2000/svg">
<g opacity="0.15" filter="url(#filter0_f_235_20688)">
<path d="M77.1957 9.4438C78.736 8.55939 80.63 8.55939 82.1703 9.44381L143.145 44.4551C144.696 45.3458 145.653 46.9981 145.653 48.7869V118.762C145.653 120.551 144.696 122.203 143.145 123.094L82.1703 158.105C80.63 158.99 78.736 158.99 77.1957 158.105L16.2212 123.094C14.6699 122.203 13.7134 120.551 13.7134 118.762V48.7869C13.7134 46.9981 14.6699 45.3458 16.2212 44.4551L77.1957 9.4438Z" fill="#0E1011"/>
</g>
<g opacity="0.2" filter="url(#filter1_f_235_20688)">
<path d="M77.1954 13.6065C78.7357 12.722 80.6299 12.722 82.1702 13.6065L143.866 49.0339C145.417 49.9246 146.373 51.5768 146.373 53.3656V124.174C146.373 125.962 145.417 127.615 143.866 128.505L82.1702 163.933C80.6299 164.817 78.7357 164.817 77.1954 163.933L15.4999 128.505C13.9487 127.615 12.9922 125.962 12.9922 124.174V53.3656C12.9922 51.5769 13.9487 49.9246 15.4999 49.0339L77.1954 13.6065Z" fill="#0E1011"/>
</g>
<path d="M77.1949 2.78429C78.7354 1.89955 80.6299 1.89955 82.1704 2.78429L146.029 39.46C147.58 40.3507 148.536 42.0029 148.536 43.7915V117.097C148.536 118.886 147.58 120.538 146.029 121.429L82.1704 158.105C80.6299 158.989 78.7354 158.989 77.1949 158.105L13.3365 121.429C11.7854 120.538 10.8291 118.886 10.8291 117.097V43.7915C10.8291 42.0029 11.7855 40.3507 13.3365 39.46L77.1949 2.78429Z" fill="#7D808C"/>
<mask id="mask0_235_20688" style="mask-type:alpha" maskUnits="userSpaceOnUse" x="10" y="2" width="139" height="157">
<path d="M77.3067 2.78071C78.8459 1.8979 80.7379 1.8979 82.2771 2.78071L146.229 39.4602C147.781 40.3507 148.739 42.0036 148.739 43.7932V117.095C148.739 118.885 147.781 120.538 146.229 121.428L82.2771 158.108C80.7379 158.991 78.8459 158.991 77.3067 158.108L13.3551 121.428C11.8027 120.538 10.8452 118.885 10.8452 117.095V43.7932C10.8452 42.0036 11.8027 40.3507 13.3551 39.4602L77.3067 2.78071Z" fill="url(#paint0_linear_235_20688)"/>
</mask>
<g mask="url(#mask0_235_20688)">
<rect x="0.177734" y="1.35552" width="159.225" height="158.178" fill="#636574"/>
</g>
<path d="M99.3419 51.5994L85.8295 71.5208C84.8951 72.8774 86.6918 74.5197 87.9856 73.3772L101.283 61.8814C101.642 61.5958 102.145 61.81 102.145 62.3098V98.2253C102.145 98.7253 101.498 98.9396 101.211 98.5823L60.9604 50.7425C59.6666 49.1717 57.7979 48.3148 55.7135 48.3148H54.2759C50.5384 48.3148 47.4478 51.3852 47.4478 55.1695V105.723C47.4478 109.507 50.5384 112.577 54.3478 112.577C56.7197 112.577 58.9479 111.364 60.2417 109.293L73.7543 89.3716C74.6887 88.015 72.8918 86.3724 71.598 87.515L58.301 98.9396C57.9416 99.2249 57.4385 99.0109 57.4385 98.511V62.6668C57.4385 62.167 58.0854 61.9528 58.3729 62.3098L98.6232 110.15C99.917 111.72 101.858 112.577 103.87 112.577H105.308C109.117 112.577 112.208 109.507 112.208 105.723V55.1695C112.136 51.3852 109.045 48.3148 105.236 48.3148C102.864 48.3148 100.636 49.5287 99.3419 51.5994Z" fill="white"/>
<defs>
<filter id="filter0_f_235_20688" x="8.71829" y="3.7854" width="141.93" height="159.978" filterUnits="userSpaceOnUse" color-interpolation-filters="sRGB">
<feFlood flood-opacity="0" result="BackgroundImageFix"/>
<feBlend mode="normal" in="SourceGraphic" in2="BackgroundImageFix" result="shape"/>
<feGaussianBlur stdDeviation="2.49755" result="effect1_foregroundBlur_235_20688"/>
</filter>
<filter id="filter1_f_235_20688" x="0.504457" y="0.4554" width="158.357" height="176.628" filterUnits="userSpaceOnUse" color-interpolation-filters="sRGB">
<feFlood flood-opacity="0" result="BackgroundImageFix"/>
<feBlend mode="normal" in="SourceGraphic" in2="BackgroundImageFix" result="shape"/>
<feGaussianBlur stdDeviation="6.24387" result="effect1_foregroundBlur_235_20688"/>
</filter>
<linearGradient id="paint0_linear_235_20688" x1="79.7919" y1="2.11861" x2="79.7919" y2="158.77" gradientUnits="userSpaceOnUse">
<stop stop-opacity="0"/>
<stop offset="1"/>
</linearGradient>
</defs>
</svg>
