<svg width="162" height="182" viewBox="0 0 162 182" fill="none" xmlns="http://www.w3.org/2000/svg">
<g opacity="0.3" filter="url(#filter0_f_233_14694)">
<path d="M77.9998 11.7321C79.8562 10.6603 82.1433 10.6603 83.9998 11.7321L142.952 45.768C144.808 46.8398 145.952 48.8205 145.952 50.9641V119.036C145.952 121.18 144.808 123.16 142.952 124.232L83.9998 158.268C82.1433 159.34 79.8562 159.34 77.9998 158.268L19.0479 124.232C17.1914 123.16 16.0479 121.18 16.0479 119.036V50.9641C16.0479 48.8205 17.1914 46.8398 19.0479 45.768L77.9998 11.7321Z" fill="#073B54"/>
</g>
<g opacity="0.4" filter="url(#filter1_f_233_14694)">
<path d="M78.0001 16.7321C79.8565 15.6603 82.1437 15.6603 84.0001 16.7321L143.818 51.268C145.674 52.3398 146.818 54.3205 146.818 56.4641V125.536C146.818 127.68 145.674 129.66 143.818 130.732L84.0001 165.268C82.1437 166.34 79.8565 166.34 78.0001 165.268L18.1821 130.732C16.3257 129.66 15.1821 127.68 15.1821 125.536V56.4641C15.1821 54.3205 16.3257 52.3398 18.1821 51.268L78.0001 16.7321Z" fill="#073B54"/>
</g>
<path d="M78 3.73207C79.8564 2.66027 82.1436 2.66027 84 3.73207L146.416 39.768C148.272 40.8398 149.416 42.8205 149.416 44.9641V117.036C149.416 119.18 148.272 121.16 146.416 122.232L84 158.268C82.1436 159.34 79.8564 159.34 78 158.268L15.584 122.232C13.7276 121.16 12.584 119.18 12.584 117.036V44.9641C12.584 42.8205 13.7276 40.8398 15.584 39.768L78 3.73207Z" fill="url(#paint0_linear_233_14694)"/>
<g clip-path="url(#clip0_233_14694)">
<mask id="mask0_233_14694" style="mask-type:luminance" maskUnits="userSpaceOnUse" x="50" y="51" width="61" height="61">
<path d="M110.821 51.1787H50.1323V111.867H110.821V51.1787Z" fill="white"/>
</mask>
<g mask="url(#mask0_233_14694)">
<path fill-rule="evenodd" clip-rule="evenodd" d="M104.657 63.2216C100.058 57.3424 93.3256 53.5968 85.8818 53.5968C71.4682 53.5968 60.8951 67.0147 60.8951 81.5231C60.8951 91.6221 67.6278 99.2082 75.0716 99.2082C75.7828 99.2082 76.4466 99.1608 77.1578 99.0185C72.132 95.3677 68.9553 88.7299 68.9553 81.5231C68.9553 70.0491 76.7311 61.088 85.8818 61.088C95.8859 61.088 102.808 70.9974 102.808 81.5231C102.761 89.2988 100.011 97.0272 95.1273 102.717C90.8602 107.695 85.3602 110.824 79.2914 111.82C79.2914 111.82 79.8129 111.867 80.4767 111.867C97.2135 111.867 110.821 98.2599 110.821 81.5231C110.821 74.6482 108.545 68.2948 104.657 63.2216ZM100.058 81.5231C100.058 71.4241 93.3256 63.838 85.8818 63.838C85.1706 63.838 84.5068 63.8854 83.7956 64.0277C88.8214 67.6785 91.9981 74.3163 91.9981 81.5231C91.9981 92.997 84.2223 101.958 75.0716 101.958C65.0674 101.958 58.1451 92.0488 58.1451 81.5231C58.1925 73.7473 60.9425 66.019 65.8261 60.3294C70.0932 55.3511 75.5931 52.2218 81.662 51.2261C81.662 51.2261 81.1405 51.1787 80.4767 51.1787C63.7399 51.1787 50.1323 64.7863 50.1323 81.5231C50.1323 88.398 52.4082 94.7513 56.296 99.8245C60.8951 105.704 67.6278 109.402 75.0716 109.402C89.4852 109.449 100.058 96.0315 100.058 81.5231Z" fill="white"/>
</g>
</g>
<defs>
<filter id="filter0_f_233_14694" x="10.0479" y="4.92822" width="141.904" height="160.144" filterUnits="userSpaceOnUse" color-interpolation-filters="sRGB">
<feFlood flood-opacity="0" result="BackgroundImageFix"/>
<feBlend mode="normal" in="SourceGraphic" in2="BackgroundImageFix" result="shape"/>
<feGaussianBlur stdDeviation="3" result="effect1_foregroundBlur_233_14694"/>
</filter>
<filter id="filter1_f_233_14694" x="0.182129" y="0.928223" width="161.636" height="180.144" filterUnits="userSpaceOnUse" color-interpolation-filters="sRGB">
<feFlood flood-opacity="0" result="BackgroundImageFix"/>
<feBlend mode="normal" in="SourceGraphic" in2="BackgroundImageFix" result="shape"/>
<feGaussianBlur stdDeviation="7.5" result="effect1_foregroundBlur_233_14694"/>
</filter>
<linearGradient id="paint0_linear_233_14694" x1="81" y1="2.92822" x2="81" y2="159.072" gradientUnits="userSpaceOnUse">
<stop stop-color="#149DE1"/>
<stop offset="1" stop-color="#107CB2"/>
</linearGradient>
<clipPath id="clip0_233_14694">
<rect width="60.6887" height="60.6887" fill="white" transform="translate(50.1323 51.1787)"/>
</clipPath>
</defs>
</svg>
