<svg width="163" height="181" viewBox="0 0 163 181" fill="none" xmlns="http://www.w3.org/2000/svg">
<g opacity="0.3" filter="url(#filter0_f_235_20921)">
<path d="M78.5339 10.91C80.3903 9.83824 82.6775 9.83824 84.5339 10.91L143.486 44.9459C145.342 46.0177 146.486 47.9985 146.486 50.1421V118.214C146.486 120.357 145.342 122.338 143.486 123.41L84.5339 157.446C82.6775 158.518 80.3903 158.518 78.5339 157.446L19.582 123.41C17.7256 122.338 16.582 120.357 16.582 118.214V50.1421C16.582 47.9985 17.7256 46.0177 19.582 44.9459L78.5339 10.91Z" fill="#672268"/>
</g>
<g opacity="0.4" filter="url(#filter1_f_235_20921)">
<path d="M78.5337 15.91C80.3902 14.8382 82.6773 14.8382 84.5338 15.91L144.352 50.4459C146.208 51.5177 147.352 53.4985 147.352 55.6421V124.714C147.352 126.857 146.208 128.838 144.352 129.91L84.5338 164.446C82.6773 165.518 80.3902 165.518 78.5338 164.446L18.7158 129.91C16.8594 128.838 15.7158 126.857 15.7158 124.714V55.6421C15.7158 53.4985 16.8594 51.5177 18.7158 50.4459L78.5337 15.91Z" fill="#672268"/>
</g>
<path d="M78.5337 2.91002C80.3901 1.83822 82.6773 1.83822 84.5337 2.91002L146.95 38.9459C148.806 40.0177 149.95 41.9985 149.95 44.1421V116.214C149.95 118.357 148.806 120.338 146.95 121.41L84.5337 157.446C82.6773 158.518 80.3901 158.518 78.5337 157.446L16.1177 121.41C14.2613 120.338 13.1177 118.357 13.1177 116.214V44.1421C13.1177 41.9985 14.2613 40.0177 16.1177 38.9459L78.5337 2.91002Z" fill="url(#paint0_linear_235_20921)"/>
<path d="M48.9677 73.0049C48.7116 73.197 48.5195 74.0934 48.5195 74.9258C48.5195 76.0783 48.9037 76.3984 50.0562 76.3984C51.8491 76.3984 52.4253 75.3099 51.5929 73.6452C51.0167 72.5567 49.7361 72.1725 48.9677 73.0049Z" fill="white"/>
<path d="M54.2821 73.517C53.8339 74.0293 53.6418 74.9257 53.8979 75.4379C54.2181 76.2703 57.8677 76.3983 84.1838 76.2703L114.15 76.0782V74.4775V72.8767L84.6321 72.6846C59.0203 72.5566 54.9864 72.6846 54.2821 73.517Z" fill="white"/>
<path d="M37.2502 80.5603C36.6739 82.033 37.5063 83.5697 38.7229 83.3136C39.4272 83.1855 39.9394 82.4172 40.0675 81.3287C40.2596 79.92 40.0035 79.5999 38.915 79.5999C38.2106 79.5999 37.4423 80.0481 37.2502 80.5603Z" fill="white"/>
<path d="M42.3725 80.5604C42.1164 81.0726 42.3085 81.969 42.7567 82.4812C43.461 83.3136 46.6625 83.4417 65.4231 83.3136L87.2572 83.1215V81.5208V79.9201L64.9749 79.728C45.51 79.5999 42.6927 79.728 42.3725 80.5604Z" fill="white"/>
<path d="M48.6473 88.0518C48.8394 89.6526 50.9524 90.4209 51.7207 89.1403C52.5531 87.8597 51.7207 86.6432 49.9919 86.6432C48.7114 86.6432 48.4552 86.8993 48.6473 88.0518Z" fill="white"/>
<path d="M53.8334 87.6675C53.6413 88.1798 53.7694 88.9481 54.0895 89.2683C54.4097 89.5884 65.1666 89.7805 81.238 89.7165L107.746 89.5244L107.938 88.0517L108.13 86.643H81.174C57.291 86.643 54.2176 86.7711 53.8334 87.6675Z" fill="white"/>
<path d="M39.9393 94.2626C39.2991 95.2871 40.2595 96.8878 41.4761 96.8878C42.6926 96.8878 43.3969 95.7993 42.9487 94.4547C42.6286 93.5583 40.4516 93.4302 39.9393 94.2626Z" fill="white"/>
<path d="M45.3179 95.2871V96.8878H56.9072H68.4325L68.2404 95.4151C68.0483 94.0065 67.9203 94.0065 56.7151 93.8144L45.3179 93.6863V95.2871Z" fill="white"/>
<path d="M71.1858 94.5828C70.9937 95.095 70.9937 95.8633 71.2498 96.2475C71.5059 96.6957 79.1254 96.8878 94.0443 96.8878H116.455L116.262 95.4151L116.07 94.0065L93.7881 93.8144C74.7074 93.6863 71.5059 93.8144 71.1858 94.5828Z" fill="white"/>
<path d="M74.3872 101.05C73.8109 102.522 74.5792 103.931 75.9879 103.931C77.3325 103.931 78.1009 102.522 77.5886 101.05C77.3325 100.538 76.6282 100.089 75.9879 100.089C75.2836 100.089 74.5792 100.538 74.3872 101.05Z" fill="white"/>
<path d="M79.8938 101.05C79.2535 101.818 79.2535 102.202 79.8938 102.971C80.5981 103.803 82.8391 103.931 94.5565 103.803L108.387 103.611V102.01V100.409L94.5565 100.217C82.8391 100.089 80.5981 100.217 79.8938 101.05Z" fill="white"/>
<path d="M58.3156 108.157C58.1235 108.669 58.4437 109.63 59.0199 110.206C59.9804 111.166 60.1084 111.166 61.0689 110.206C62.4135 108.861 61.7732 107.132 60.0444 107.132C59.3401 107.132 58.5717 107.581 58.3156 108.157Z" fill="white"/>
<path d="M63.6301 108.093C63.438 108.605 63.7581 109.438 64.2704 110.014C65.1668 110.846 67.2798 110.974 78.8051 110.846L92.3793 110.654L92.5714 108.861L92.7635 107.132H78.4209C66.3193 107.132 63.9502 107.261 63.6301 108.093Z" fill="white"/>
<path d="M78.2925 42.7189C74.8349 43.5513 69.5845 46.2406 67.1514 48.4176C62.9254 52.2593 59.4038 60.199 59.4038 65.9616V68.7149H84.0551C106.273 68.7149 108.771 68.5868 109.155 67.6904C109.859 65.8336 108.002 58.2781 106.017 54.7565C100.447 44.896 89.2415 40.0297 78.2925 42.7189Z" fill="white"/>
<defs>
<filter id="filter0_f_235_20921" x="10.582" y="4.10619" width="141.904" height="160.144" filterUnits="userSpaceOnUse" color-interpolation-filters="sRGB">
<feFlood flood-opacity="0" result="BackgroundImageFix"/>
<feBlend mode="normal" in="SourceGraphic" in2="BackgroundImageFix" result="shape"/>
<feGaussianBlur stdDeviation="3" result="effect1_foregroundBlur_235_20921"/>
</filter>
<filter id="filter1_f_235_20921" x="0.71582" y="0.106186" width="161.636" height="180.144" filterUnits="userSpaceOnUse" color-interpolation-filters="sRGB">
<feFlood flood-opacity="0" result="BackgroundImageFix"/>
<feBlend mode="normal" in="SourceGraphic" in2="BackgroundImageFix" result="shape"/>
<feGaussianBlur stdDeviation="7.5" result="effect1_foregroundBlur_235_20921"/>
</filter>
<linearGradient id="paint0_linear_235_20921" x1="81.5337" y1="2.10617" x2="81.5337" y2="158.25" gradientUnits="userSpaceOnUse">
<stop stop-color="#C859C9"/>
<stop offset="1" stop-color="#B33BB5"/>
</linearGradient>
</defs>
</svg>
