<svg width="162" height="181" viewBox="0 0 162 181" fill="none" xmlns="http://www.w3.org/2000/svg">
<g opacity="0.3" filter="url(#filter0_f_235_20910)">
<path d="M77.9998 10.91C79.8562 9.83818 82.1433 9.83817 83.9998 10.91L142.952 44.9459C144.808 46.0177 145.952 47.9984 145.952 50.142V118.214C145.952 120.357 144.808 122.338 142.952 123.41L83.9998 157.446C82.1433 158.518 79.8562 158.518 77.9998 157.446L19.0479 123.41C17.1914 122.338 16.0479 120.357 16.0479 118.214V50.142C16.0479 47.9984 17.1914 46.0177 19.0479 44.9459L77.9998 10.91Z" fill="#0B0BCB"/>
</g>
<g opacity="0.4" filter="url(#filter1_f_235_20910)">
<path d="M78.0001 15.91C79.8565 14.8382 82.1437 14.8382 84.0001 15.91L143.818 50.4459C145.674 51.5177 146.818 53.4984 146.818 55.642V124.714C146.818 126.857 145.674 128.838 143.818 129.91L84.0001 164.446C82.1437 165.518 79.8565 165.518 78.0001 164.446L18.1821 129.91C16.3257 128.838 15.1821 126.857 15.1821 124.714V55.642C15.1821 53.4984 16.3257 51.5177 18.1821 50.4459L78.0001 15.91Z" fill="#0B0BCB"/>
</g>
<path d="M78 2.90996C79.8564 1.83816 82.1436 1.83816 84 2.90996L146.416 38.9459C148.272 40.0177 149.416 41.9984 149.416 44.142V116.214C149.416 118.357 148.272 120.338 146.416 121.41L84 157.446C82.1436 158.518 79.8564 158.518 78 157.446L15.584 121.41C13.7276 120.338 12.584 118.357 12.584 116.214V44.142C12.584 41.9984 13.7276 40.0177 15.584 38.9459L78 2.90996Z" fill="url(#paint0_linear_235_20910)"/>
<path fill-rule="evenodd" clip-rule="evenodd" d="M84.817 70.1054L97.8503 62.5026V77.7081L84.817 70.1054ZM97.8503 102.689L80.4726 112.826L63.0949 102.689V84.9488L80.4726 95.0858L97.8503 84.9488V102.689ZM63.0949 62.5026L76.1282 70.1054L63.0949 77.7081V62.5026ZM82.6448 73.7257L95.6781 81.3284L82.6448 88.9312V73.7257ZM78.3004 88.9312L65.2671 81.3284L78.3004 73.7257V88.9312ZM95.6781 58.8823L80.4726 67.5711L65.2671 58.8823L80.4726 49.8314L95.6781 58.8823ZM58.7505 57.4341V104.861L80.4726 117.17L102.195 104.861V57.4341L80.4726 45.1249L58.7505 57.4341Z" fill="white"/>
<defs>
<filter id="filter0_f_235_20910" x="10.0479" y="4.10612" width="141.904" height="160.144" filterUnits="userSpaceOnUse" color-interpolation-filters="sRGB">
<feFlood flood-opacity="0" result="BackgroundImageFix"/>
<feBlend mode="normal" in="SourceGraphic" in2="BackgroundImageFix" result="shape"/>
<feGaussianBlur stdDeviation="3" result="effect1_foregroundBlur_235_20910"/>
</filter>
<filter id="filter1_f_235_20910" x="0.182129" y="0.106125" width="161.636" height="180.144" filterUnits="userSpaceOnUse" color-interpolation-filters="sRGB">
<feFlood flood-opacity="0" result="BackgroundImageFix"/>
<feBlend mode="normal" in="SourceGraphic" in2="BackgroundImageFix" result="shape"/>
<feGaussianBlur stdDeviation="7.5" result="effect1_foregroundBlur_235_20910"/>
</filter>
<linearGradient id="paint0_linear_235_20910" x1="81" y1="2.10611" x2="81" y2="158.25" gradientUnits="userSpaceOnUse">
<stop stop-color="#7878F8"/>
<stop offset="1" stop-color="#4747F5"/>
</linearGradient>
</defs>
</svg>
