<svg width="159" height="178" viewBox="0 0 159 178" fill="none" xmlns="http://www.w3.org/2000/svg">
<g opacity="0.3" filter="url(#filter0_f_235_20804)">
<path d="M77.0834 9.63553C78.6289 8.74324 80.533 8.74324 82.0785 9.63553L142.615 44.5866C144.161 45.4789 145.113 47.1279 145.113 48.9125V118.815C145.113 120.599 144.161 122.248 142.615 123.14L82.0785 158.091C80.533 158.984 78.6289 158.984 77.0834 158.091L16.5464 123.14C15.0009 122.248 14.0488 120.599 14.0488 118.815V48.9125C14.0488 47.1279 15.0009 45.4789 16.5464 44.5866L77.0834 9.63553Z" fill="#891A64"/>
</g>
<g opacity="0.4" filter="url(#filter1_f_235_20804)">
<path d="M77.0836 13.7981C78.6291 12.9058 80.5332 12.9058 82.0787 13.7981L143.337 49.1654C144.882 50.0577 145.834 51.7067 145.834 53.4913V124.226C145.834 126.01 144.882 127.66 143.337 128.552L82.0787 163.919C80.5332 164.811 78.6291 164.811 77.0836 163.919L15.8257 128.552C14.2802 127.66 13.3281 126.01 13.3281 124.226V53.4913C13.3281 51.7067 14.2802 50.0577 15.8257 49.1654L77.0836 13.7981Z" fill="#891A64"/>
</g>
<path d="M77.0835 2.97541C78.629 2.08312 80.5331 2.08312 82.0786 2.97541L145.5 39.5915C147.045 40.4838 147.997 42.1328 147.997 43.9174V117.15C147.997 118.934 147.045 120.583 145.5 121.475L82.0786 158.091C80.5331 158.984 78.629 158.984 77.0835 158.091L13.6626 121.475C12.1171 120.583 11.165 118.934 11.165 117.15V43.9174C11.165 42.1328 12.1171 40.4838 13.6626 39.5915L77.0835 2.97541Z" fill="url(#paint0_linear_235_20804)"/>
<path d="M80.3201 42.2762C75.5355 42.2762 71.6558 59.6303 71.6558 81.038C71.6558 102.446 75.5355 119.8 80.3201 119.8C85.1047 119.8 88.9844 102.446 88.9844 81.038C88.9844 59.6303 85.1047 42.2762 80.3201 42.2762ZM80.9183 117.612C80.3711 118.342 79.824 117.794 79.824 117.794C77.6205 115.241 76.5188 110.498 76.5188 110.498C72.6646 98.0946 73.582 71.463 73.582 71.463C75.3933 50.3203 78.6882 45.3257 79.8095 44.2169C79.924 44.1037 80.0747 44.0346 80.2352 44.0216C80.3956 44.0086 80.5555 44.0527 80.6867 44.146C82.3137 45.2988 83.6782 50.1199 83.6782 50.1199C87.7075 65.0774 87.3426 79.1228 87.3426 79.1228C87.7075 91.3441 85.3235 105.025 85.3235 105.025C83.4884 115.422 80.9183 117.612 80.9183 117.612Z" fill="white"/>
<path d="M113.941 61.7482C111.558 57.5965 94.5762 62.868 75.9983 73.5209C57.4204 84.1738 44.3157 96.176 46.6962 100.326C49.0766 104.476 66.0606 99.2061 84.6385 88.5532C103.216 77.9002 116.321 65.8981 113.941 61.7482ZM48.894 99.7564C47.9819 99.6415 48.188 98.8919 48.188 98.8919C49.3067 95.7108 52.8669 92.3946 52.8669 92.3946C61.7117 82.8785 85.27 70.4217 85.27 70.4217C104.509 61.4709 110.484 61.8485 112 62.2659C112.156 62.3093 112.291 62.4064 112.382 62.54C112.473 62.6736 112.513 62.835 112.497 62.9957C112.314 64.9814 108.803 68.5629 108.803 68.5629C97.8413 79.5055 85.476 86.1798 85.476 86.1798C75.0568 92.5804 62.0039 97.3175 62.0039 97.3175C52.0719 100.896 48.8943 99.7564 48.8943 99.7564H48.894Z" fill="white"/>
<path d="M113.858 100.464C116.258 96.3233 103.187 84.2661 84.6741 73.5331C66.1614 62.8 49.1813 57.4633 46.7828 61.611C44.3843 65.7588 57.4538 77.8088 75.9771 88.5419C94.5004 99.275 111.459 104.612 113.858 100.464ZM48.3736 63.211C48.019 62.3702 48.7675 62.1677 48.7675 62.1677C52.0816 61.5419 56.7368 62.9681 56.7368 62.9681C69.4014 65.8521 91.9842 79.9978 91.9842 79.9978C109.371 92.1645 112.038 97.5236 112.438 99.0448C112.478 99.2009 112.462 99.3662 112.393 99.5118C112.324 99.6573 112.205 99.7736 112.058 99.8402C110.245 100.67 105.389 99.4335 105.389 99.4335C90.4225 95.4205 78.4529 88.0678 78.4529 88.0678C67.6982 82.2672 57.0638 73.3419 57.0638 73.3419C48.9831 66.5382 48.376 63.2202 48.376 63.2202L48.3736 63.211Z" fill="white"/>
<path d="M80.2272 85.5069C82.7457 85.5069 84.7873 83.4652 84.7873 80.9467C84.7873 78.4282 82.7457 76.3865 80.2272 76.3865C77.7086 76.3865 75.667 78.4282 75.667 80.9467C75.667 83.4652 77.7086 85.5069 80.2272 85.5069Z" fill="white"/>
<path d="M98.9233 66.171C100.384 66.171 101.568 64.946 101.568 63.4349C101.568 61.9238 100.384 60.6988 98.9233 60.6988C97.4625 60.6988 96.2783 61.9238 96.2783 63.4349C96.2783 64.946 97.4625 66.171 98.9233 66.171Z" fill="white"/>
<path d="M55.5131 75.4738C56.9739 75.4738 58.1581 74.2488 58.1581 72.7377C58.1581 71.2266 56.9739 70.0016 55.5131 70.0016C54.0524 70.0016 52.8682 71.2266 52.8682 72.7377C52.8682 74.2488 54.0524 75.4738 55.5131 75.4738Z" fill="white"/>
<path d="M74.8471 109.037C76.3079 109.037 77.4921 107.812 77.4921 106.301C77.4921 104.79 76.3079 103.565 74.8471 103.565C73.3863 103.565 72.2021 104.79 72.2021 106.301C72.2021 107.812 73.3863 109.037 74.8471 109.037Z" fill="white"/>
<defs>
<filter id="filter0_f_235_20804" x="9.05374" y="3.97122" width="141.054" height="159.785" filterUnits="userSpaceOnUse" color-interpolation-filters="sRGB">
<feFlood flood-opacity="0" result="BackgroundImageFix"/>
<feBlend mode="normal" in="SourceGraphic" in2="BackgroundImageFix" result="shape"/>
<feGaussianBlur stdDeviation="2.49755" result="effect1_foregroundBlur_235_20804"/>
</filter>
<filter id="filter1_f_235_20804" x="0.840395" y="0.641161" width="157.482" height="176.435" filterUnits="userSpaceOnUse" color-interpolation-filters="sRGB">
<feFlood flood-opacity="0" result="BackgroundImageFix"/>
<feBlend mode="normal" in="SourceGraphic" in2="BackgroundImageFix" result="shape"/>
<feGaussianBlur stdDeviation="6.24387" result="effect1_foregroundBlur_235_20804"/>
</filter>
<linearGradient id="paint0_linear_235_20804" x1="79.5811" y1="2.30619" x2="79.5811" y2="158.761" gradientUnits="userSpaceOnUse">
<stop stop-color="#E05CB4"/>
<stop offset="1" stop-color="#D831A0"/>
</linearGradient>
</defs>
</svg>
