<svg width="36" height="40" viewBox="0 0 36 40" fill="none" xmlns="http://www.w3.org/2000/svg">
<path d="M17.5567 31.3726C23.8376 31.3726 28.9292 26.2809 28.9292 20C28.9292 13.7191 23.8376 8.62744 17.5567 8.62744C11.2758 8.62744 6.18408 13.7191 6.18408 20C6.18408 26.2809 11.2758 31.3726 17.5567 31.3726Z" fill="#7392E1"/>
<path fill-rule="evenodd" clip-rule="evenodd" d="M17.1461 0.142131C17.4093 -0.0473771 17.7642 -0.0473771 18.0274 0.142131C21.6735 2.76728 26.1657 4.31373 31.0107 4.31373C31.7774 4.31373 32.5611 4.28415 33.3073 4.19804C33.7211 4.1503 34.0952 4.44702 34.1429 4.86078C34.1907 5.27454 33.8939 5.64866 33.4802 5.6964C32.6578 5.79129 31.8125 5.82203 31.0107 5.82203C26.0338 5.82203 21.4009 4.29204 17.5868 1.67587C13.7726 4.29204 9.13976 5.82203 4.1629 5.82203C3.27071 5.82203 2.38135 5.76905 1.5083 5.67693V18.4917C1.5083 24.1381 4.05363 29.1761 8.04905 32.5384C10.3562 34.3712 12.818 35.8772 14.71 36.9275C15.6555 37.4524 16.4553 37.8615 17.0174 38.1388C17.2503 38.2538 17.4423 38.346 17.5868 38.4144C17.7312 38.346 17.9232 38.2538 18.1562 38.1388C18.7182 37.8615 19.518 37.4524 20.4636 36.9275C22.3555 35.8772 24.8174 34.3712 27.1245 32.5383C31.1194 29.1765 33.6652 24.1086 33.6652 18.4917V12.6094C33.6652 12.1929 34.0029 11.8552 34.4194 11.8552C34.8359 11.8552 35.1735 12.1929 35.1735 12.6094V18.4917C35.1735 24.5756 32.4135 30.0629 28.0871 33.6996C28.0819 33.704 28.0765 33.7083 28.0711 33.7126C25.6747 35.6175 23.1326 37.171 21.1956 38.2462C20.2257 38.7846 19.404 39.2051 18.8236 39.4915C18.5332 39.6347 18.3031 39.7445 18.1446 39.8189C18.0653 39.8561 18.004 39.8845 17.962 39.9037C17.9474 39.9104 17.9352 39.916 17.9253 39.9205L17.9138 39.9258L17.8962 39.9337L17.8958 39.9339C17.8957 39.9339 17.8956 39.934 17.5868 39.246C17.2779 39.934 17.2778 39.9339 17.2777 39.9339L17.2774 39.9337L17.2598 39.9258C17.2487 39.9207 17.2325 39.9134 17.2115 39.9037C17.1695 39.8845 17.1082 39.8561 17.029 39.8189C16.8705 39.7445 16.6403 39.6347 16.35 39.4915C15.7695 39.2051 14.9479 38.7846 13.9779 38.2462C12.0409 37.171 9.49882 35.6175 7.10239 33.7126C7.097 33.7083 7.09167 33.704 7.0864 33.6996C2.76053 30.0633 0 24.6064 0 18.4917V4.82656C0 4.60893 0.094011 4.40192 0.257875 4.25871C0.421739 4.1155 0.63948 4.05006 0.855144 4.0792C1.94359 4.22629 3.05574 4.31373 4.1629 4.31373C9.00787 4.31373 13.5001 2.76728 17.1461 0.142131ZM17.5868 39.246L17.2777 39.9339C17.4742 40.022 17.6994 40.022 17.8958 39.9339L17.5868 39.246Z" fill="#ACBFEB"/>
<path fill-rule="evenodd" clip-rule="evenodd" d="M18.1248 24.7513C18.4052 24.7513 18.6324 24.9786 18.6324 25.259V27.4925C18.6324 27.7728 18.4052 28.0001 18.1248 28.0001C17.8445 28.0001 17.6172 27.7728 17.6172 27.4925V25.259C17.6172 24.9786 17.8445 24.7513 18.1248 24.7513Z" fill="#232D44"/>
<path fill-rule="evenodd" clip-rule="evenodd" d="M18.1248 12C18.4052 12 18.6324 12.2273 18.6324 12.5076V14.7411C18.6324 15.0215 18.4052 15.2487 18.1248 15.2487C17.8445 15.2487 17.6172 15.0215 17.6172 14.7411V12.5076C17.6172 12.2273 17.8445 12 18.1248 12Z" fill="#232D44"/>
<path fill-rule="evenodd" clip-rule="evenodd" d="M15.6883 12C15.9686 12 16.1959 12.2273 16.1959 12.5076V27.4924C16.1959 27.7728 15.9686 28 15.6883 28C15.4079 28 15.1807 27.7728 15.1807 27.4924V12.5076C15.1807 12.2273 15.4079 12 15.6883 12Z" fill="#232D44"/>
<path fill-rule="evenodd" clip-rule="evenodd" d="M13.1504 14.7411C13.1504 14.4608 13.3777 14.2335 13.658 14.2335H18.8357C20.5577 14.2335 21.9626 15.6385 21.9626 17.3604V17.3807C21.9626 19.1027 20.5577 20.5076 18.8357 20.5076H15.6885C15.4081 20.5076 15.1809 20.2804 15.1809 20C15.1809 19.7197 15.4081 19.4924 15.6885 19.4924H18.8357C19.997 19.4924 20.9474 18.542 20.9474 17.3807V17.3604C20.9474 16.1992 19.997 15.2488 18.8357 15.2488H13.658C13.3777 15.2488 13.1504 15.0215 13.1504 14.7411Z" fill="#232D44"/>
<path fill-rule="evenodd" clip-rule="evenodd" d="M15.1809 20C15.1809 19.7197 15.4081 19.4924 15.6885 19.4924H18.8357C20.5577 19.4924 21.9626 20.8974 21.9626 22.6193V22.6396C21.9626 24.3616 20.5577 25.7666 18.8357 25.7666H13.658C13.3777 25.7666 13.1504 25.5393 13.1504 25.2589C13.1504 24.9786 13.3777 24.7513 13.658 24.7513H18.8357C19.997 24.7513 20.9474 23.8009 20.9474 22.6396V22.6193C20.9474 21.4581 19.997 20.5077 18.8357 20.5077H15.6885C15.4081 20.5077 15.1809 20.2804 15.1809 20Z" fill="#232D44"/>
</svg>
