<svg width="40" height="40" viewBox="0 0 40 40" fill="none" xmlns="http://www.w3.org/2000/svg">
<path fill-rule="evenodd" clip-rule="evenodd" d="M20.3286 0.198536C20.6335 0.479311 20.6529 0.953908 20.3719 1.25858C18.9979 2.74835 17.7701 4.41357 16.7473 6.1948C16.5409 6.55417 16.0821 6.67834 15.7225 6.47214C15.3628 6.26595 15.2386 5.80748 15.4449 5.44811C16.5242 3.56842 17.8189 1.8128 19.2677 0.241804C19.5487 -0.062867 20.0237 -0.0822383 20.3286 0.198536Z" fill="#ACBFEB"/>
<path fill-rule="evenodd" clip-rule="evenodd" d="M15.9552 33.9523C16.3124 33.7419 16.7726 33.8608 16.9831 34.2177C17.946 35.8505 19.084 37.3667 20.3679 38.737C20.6512 39.0395 20.6356 39.5142 20.3329 39.7974C20.0302 40.0805 19.5551 40.0649 19.2717 39.7624C17.9129 38.3121 16.7086 36.7075 15.6895 34.9794C15.479 34.6225 15.598 34.1626 15.9552 33.9523Z" fill="#ACBFEB"/>
<path fill-rule="evenodd" clip-rule="evenodd" d="M19.282 0.197656C19.5874 -0.08259 20.0623 -0.0623958 20.3428 0.242761C21.7269 1.74877 22.9608 3.38166 24.0111 5.17201C24.2207 5.52944 24.1008 5.98905 23.7431 6.19858C23.3854 6.4081 22.9254 6.28821 22.7157 5.93077C21.724 4.24025 20.5555 2.69234 19.2369 1.25762C18.9564 0.952465 18.9766 0.477902 19.282 0.197656Z" fill="#ACBFEB"/>
<path fill-rule="evenodd" clip-rule="evenodd" d="M23.5962 34.0733C23.9529 34.2845 24.0707 34.7447 23.8594 35.1011C22.8714 36.767 21.6979 38.3411 20.3685 39.7621C20.0854 40.0648 19.6103 40.0808 19.3074 39.7979C19.0045 39.5149 18.9885 39.0402 19.2716 38.7375C20.5249 37.3979 21.6336 35.9112 22.5676 34.3362C22.779 33.9798 23.2395 33.8621 23.5962 34.0733Z" fill="#ACBFEB"/>
<path fill-rule="evenodd" clip-rule="evenodd" d="M37.1491 9.75487C37.3965 10.0873 37.3274 10.5573 36.9946 10.8045C35.7891 11.7003 34.4904 12.5037 33.1287 13.1841C32.7578 13.3694 32.3068 13.2192 32.1214 12.8486C31.936 12.478 32.0863 12.0274 32.4572 11.8421C33.7381 11.2021 34.9619 10.4452 36.0987 9.60051C36.4314 9.35328 36.9017 9.42239 37.1491 9.75487Z" fill="#ACBFEB"/>
<path fill-rule="evenodd" clip-rule="evenodd" d="M2.89625 10.1056C3.13226 9.76494 3.59994 9.67997 3.94085 9.91581C5.08092 10.7045 6.28131 11.4068 7.51293 12.0222C7.88378 12.2074 8.0341 12.6581 7.84867 13.0286C7.66325 13.3992 7.21229 13.5494 6.84143 13.3641C5.55053 12.7192 4.28845 11.9811 3.08618 11.1494C2.74528 10.9136 2.66024 10.4462 2.89625 10.1056Z" fill="#ACBFEB"/>
<path fill-rule="evenodd" clip-rule="evenodd" d="M32.2778 27.2288C32.4701 26.8618 32.9239 26.7201 33.2912 26.9123C34.5809 27.5874 35.8454 28.3574 37.0218 29.2235C37.3556 29.4693 37.4268 29.9389 37.1808 30.2725C36.9349 30.606 36.4649 30.6772 36.1311 30.4314C35.0251 29.6171 33.8272 28.8866 32.5944 28.2414C32.2272 28.0492 32.0854 27.5958 32.2778 27.2288Z" fill="#ACBFEB"/>
<path fill-rule="evenodd" clip-rule="evenodd" d="M7.69523 27.0548C7.88425 27.4236 7.73831 27.8757 7.36928 28.0645C6.16409 28.6814 5.02352 29.3539 3.94515 30.1112C3.6059 30.3494 3.13764 30.2677 2.89925 29.9287C2.66086 29.5897 2.74262 29.1218 3.08187 28.8836C4.22572 28.0804 5.4275 27.3726 6.68478 26.7291C7.05381 26.5403 7.50621 26.6861 7.69523 27.0548Z" fill="#ACBFEB"/>
<path fill-rule="evenodd" clip-rule="evenodd" d="M20 1.5304C9.784 1.5304 1.5015 9.80669 1.5015 20.015C1.5015 30.2234 9.784 38.4996 20 38.4996C30.216 38.4996 38.4985 30.2234 38.4985 20.015C38.4985 16.6099 37.5743 13.3803 35.9599 10.6435C35.7493 10.2866 35.8682 9.82672 36.2254 9.61632C36.5826 9.40593 37.0428 9.52471 37.2534 9.88163C39.0022 12.8463 40 16.3384 40 20.015C40 31.052 31.0453 40 20 40C8.95474 40 0 31.052 0 20.015C0 8.97805 8.95474 0.0300293 20 0.0300293C23.649 0.0300293 27.0516 0.996791 30.0158 2.71163C30.3746 2.91922 30.4971 3.37817 30.2894 3.73673C30.0816 4.09529 29.6223 4.21768 29.2635 4.01009C26.522 2.42411 23.3781 1.5304 20 1.5304Z" fill="#ACBFEB"/>
<path d="M23.3756 28.0806C27.7447 26.2349 29.7892 21.1995 27.9422 16.8337C26.0951 12.4678 21.0559 10.4249 16.6868 12.2705C12.3177 14.1162 10.2732 19.1516 12.1203 23.5174C13.9673 27.8833 19.0065 29.9262 23.3756 28.0806Z" fill="#7392E1"/>
<path fill-rule="evenodd" clip-rule="evenodd" d="M20.0298 9.09229C13.8979 9.09229 8.94877 14.0377 8.94877 20.1651C8.94877 26.2924 13.8979 31.2378 20.0298 31.2378C26.1618 31.2378 31.1109 26.2924 31.1109 20.1651C31.1109 18.1074 30.5757 16.1993 29.5944 14.5463C29.3828 14.19 29.5004 13.7297 29.857 13.5184C30.2136 13.307 30.6742 13.4245 30.8857 13.7808C32.0065 15.6687 32.6124 17.8417 32.6124 20.1651C32.6124 27.121 26.991 32.7382 20.0298 32.7382C13.0687 32.7382 7.44727 27.121 7.44727 20.1651C7.44727 13.2091 13.0687 7.59192 20.0298 7.59192C22.3267 7.59192 24.4696 8.19821 26.3254 9.28531C26.6831 9.49484 26.8031 9.95445 26.5934 10.3119C26.3837 10.6693 25.9238 10.7892 25.5661 10.5797C23.9385 9.62628 22.0574 9.09229 20.0298 9.09229Z" fill="#ACBFEB"/>
<path fill-rule="evenodd" clip-rule="evenodd" d="M20.2654 23.4432C20.6032 23.4432 20.877 23.7171 20.877 24.0548V25.7184C20.877 26.0562 20.6032 26.33 20.2654 26.33C19.9276 26.33 19.6538 26.0562 19.6538 25.7184V24.0548C19.6538 23.7171 19.9276 23.4432 20.2654 23.4432Z" fill="#232D44"/>
<path fill-rule="evenodd" clip-rule="evenodd" d="M20.2654 14C20.6032 14 20.877 14.2738 20.877 14.6116V16.2752C20.877 16.613 20.6032 16.8868 20.2654 16.8868C19.9276 16.8868 19.6538 16.613 19.6538 16.2752V14.6116C19.6538 14.2738 19.9276 14 20.2654 14Z" fill="#232D44"/>
<path fill-rule="evenodd" clip-rule="evenodd" d="M18.4783 14C18.8161 14 19.0899 14.2738 19.0899 14.6116V25.7185C19.0899 26.0562 18.8161 26.3301 18.4783 26.3301C18.1405 26.3301 17.8667 26.0562 17.8667 25.7185V14.6116C17.8667 14.2738 18.1405 14 18.4783 14Z" fill="#232D44"/>
<path fill-rule="evenodd" clip-rule="evenodd" d="M16.3486 16.2752C16.3486 15.9374 16.6227 15.6636 16.9607 15.6636H20.78C22.1953 15.6636 23.3262 16.7937 23.3262 18.2079V18.2323C23.3262 19.6466 22.1953 20.7766 20.78 20.7766H18.4542C18.1161 20.7766 17.8421 20.5028 17.8421 20.165C17.8421 19.8272 18.1161 19.5534 18.4542 19.5534H20.78C21.5192 19.5534 22.1021 18.971 22.1021 18.2323V18.2079C22.1021 17.4692 21.5192 16.8868 20.78 16.8868H16.9607C16.6227 16.8868 16.3486 16.613 16.3486 16.2752Z" fill="#232D44"/>
<path fill-rule="evenodd" clip-rule="evenodd" d="M17.8665 20.165C17.8665 19.8272 18.1405 19.5533 18.4786 19.5533H20.8044C22.2197 19.5533 23.3506 20.6834 23.3506 22.0976V22.1221C23.3506 23.5363 22.2197 24.6664 20.8044 24.6664H16.9851C16.6471 24.6664 16.373 24.3926 16.373 24.0548C16.373 23.717 16.6471 23.4432 16.9851 23.4432H20.8044C21.5436 23.4432 22.1265 22.8608 22.1265 22.1221V22.0976C22.1265 21.359 21.5436 20.7766 20.8044 20.7766H18.4786C18.1405 20.7766 17.8665 20.5027 17.8665 20.165Z" fill="#232D44"/>
</svg>
