<svg width="159" height="177" viewBox="0 0 159 177" fill="none" xmlns="http://www.w3.org/2000/svg">
<g opacity="0.3" filter="url(#filter0_f_235_20631)">
<path d="M76.5023 9.10208C78.0478 8.20979 79.9519 8.20979 81.4974 9.10208L142.034 44.0531C143.58 44.9454 144.532 46.5944 144.532 48.379V118.281C144.532 120.066 143.58 121.715 142.034 122.607L81.4974 157.558C79.9519 158.45 78.0478 158.45 76.5023 157.558L15.9653 122.607C14.4198 121.715 13.4678 120.066 13.4678 118.281V48.379C13.4678 46.5944 14.4198 44.9454 15.9653 44.0531L76.5023 9.10208Z" fill="#0C378D"/>
</g>
<g opacity="0.4" filter="url(#filter1_f_235_20631)">
<path d="M76.5026 13.2646C78.0481 12.3724 79.9522 12.3724 81.4977 13.2646L142.756 48.632C144.301 49.5242 145.253 51.1733 145.253 52.9578V123.692C145.253 125.477 144.301 127.126 142.756 128.018L81.4977 163.386C79.9522 164.278 78.0481 164.278 76.5026 163.386L15.2446 128.018C13.6991 127.126 12.7471 125.477 12.7471 123.692V52.9578C12.7471 51.1733 13.6991 49.5242 15.2446 48.632L76.5026 13.2646Z" fill="#0C378D"/>
</g>
<path d="M76.5024 2.44195C78.0479 1.54966 79.952 1.54966 81.4975 2.44195L144.918 39.058C146.464 39.9503 147.416 41.5993 147.416 43.3839V116.616C147.416 118.401 146.464 120.05 144.918 120.942L81.4975 157.558C79.952 158.45 78.0479 158.45 76.5024 157.558L13.0815 120.942C11.536 120.05 10.584 118.401 10.584 116.616V43.3839C10.584 41.5993 11.536 39.9503 13.0815 39.058L76.5024 2.44195Z" fill="url(#paint0_linear_235_20631)"/>
<path fill-rule="evenodd" clip-rule="evenodd" d="M97.0797 51.3856C100.053 51.3856 102.466 53.7981 102.466 56.7717V74.1645V74.3328C102.41 77.8674 99.5483 80.7288 96.0137 80.7849C99.5483 80.841 102.41 83.7024 102.466 87.2371V87.4054V98.2899C102.466 99.8608 101.793 101.32 100.67 102.329L87.0929 114.168V89.8179C87.0929 86.8443 84.6803 84.4318 81.7067 84.4318H73.7958V114.168L60.2744 102.217C59.0962 101.207 58.479 99.7486 58.479 98.1777V56.7156C58.479 53.742 60.8915 51.3295 63.8651 51.3295H97.0797V51.3856ZM87.0929 58.8476H73.7958V75.3988H81.7067C84.6803 75.3988 87.0929 72.9862 87.0929 70.0126V58.8476Z" fill="white"/>
<defs>
<filter id="filter0_f_235_20631" x="8.47268" y="3.43777" width="141.054" height="159.785" filterUnits="userSpaceOnUse" color-interpolation-filters="sRGB">
<feFlood flood-opacity="0" result="BackgroundImageFix"/>
<feBlend mode="normal" in="SourceGraphic" in2="BackgroundImageFix" result="shape"/>
<feGaussianBlur stdDeviation="2.49755" result="effect1_foregroundBlur_235_20631"/>
</filter>
<filter id="filter1_f_235_20631" x="0.25934" y="0.107698" width="157.482" height="176.435" filterUnits="userSpaceOnUse" color-interpolation-filters="sRGB">
<feFlood flood-opacity="0" result="BackgroundImageFix"/>
<feBlend mode="normal" in="SourceGraphic" in2="BackgroundImageFix" result="shape"/>
<feGaussianBlur stdDeviation="6.24387" result="effect1_foregroundBlur_235_20631"/>
</filter>
<linearGradient id="paint0_linear_235_20631" x1="79" y1="1.77274" x2="79" y2="158.227" gradientUnits="userSpaceOnUse">
<stop stop-color="#4D83EF"/>
<stop offset="1" stop-color="#145CEB"/>
</linearGradient>
</defs>
</svg>
