<svg width="72" height="73" viewBox="0 0 72 73" fill="none" xmlns="http://www.w3.org/2000/svg">
<path fill-rule="evenodd" clip-rule="evenodd" d="M36.0002 0.335449C55.7649 0.335449 71.7836 16.4746 71.7836 36.3879C71.7836 56.3013 55.7649 72.4404 36.0002 72.4404C16.2355 72.4404 0.216797 56.3013 0.216797 36.3879C0.216797 16.4746 16.2355 0.335449 36.0002 0.335449Z" fill="url(#paint0_radial_233_15207)"/>
<path d="M22.9589 28.1776C30.1575 21.0938 41.843 21.0938 49.0416 28.1776L49.9082 29.0366C50.2717 29.3887 50.2717 29.9661 49.9082 30.3182L46.9449 33.2334C46.7632 33.4164 46.4697 33.4164 46.288 33.2334L45.0999 32.0645C40.0678 27.1213 31.9327 27.1213 26.9006 32.0645L25.6287 33.3179C25.4469 33.5009 25.1534 33.5009 24.9717 33.3179L22.0084 30.4027C21.645 30.0506 21.645 29.4732 22.0084 29.1211L22.9589 28.1776ZM55.1779 34.2051L57.8197 36.7964C58.1832 37.1484 58.1832 37.7258 57.8197 38.0779L45.9245 49.7809C45.5611 50.133 44.9741 50.133 44.6246 49.7809L36.182 41.4719C36.0981 41.3874 35.9443 41.3874 35.8605 41.4719L27.4178 49.7809C27.0544 50.133 26.4673 50.133 26.1179 49.7809L14.1808 38.0779C13.8173 37.7258 13.8173 37.1484 14.1808 36.7964L16.8226 34.2051C17.186 33.853 17.7731 33.853 18.1225 34.2051L26.5652 42.5141C26.649 42.5986 26.8028 42.5986 26.8867 42.5141L35.3293 34.2051C35.6927 33.853 36.2798 33.853 36.6293 34.2051L45.0719 42.5141C45.1558 42.5986 45.3095 42.5986 45.3934 42.5141L53.836 34.2051C54.2274 33.853 54.8145 33.853 55.1779 34.2051Z" fill="white"/>
<defs>
<radialGradient id="paint0_radial_233_15207" cx="0" cy="0" r="1" gradientUnits="userSpaceOnUse" gradientTransform="translate(0.217019 36.3891) scale(71.5668 72.105)">
<stop stop-color="#5D9DF6"/>
<stop offset="1" stop-color="#006FFF"/>
</radialGradient>
</defs>
</svg>
