<svg width="73" height="73" viewBox="0 0 73 73" fill="none" xmlns="http://www.w3.org/2000/svg">
<path fill-rule="evenodd" clip-rule="evenodd" d="M15.4962 0.216309H57.501C65.7867 0.216309 72.5 7.43935 72.5 16.3501V56.0826C72.5 64.9933 65.7867 72.2163 57.5038 72.2163H15.4962C7.21328 72.2163 0.5 64.9933 0.5 56.0826V16.3501C0.5 7.43935 7.21328 0.216309 15.4962 0.216309Z" fill="#0052FF"/>
<path fill-rule="evenodd" clip-rule="evenodd" d="M36.5002 10.645C50.6238 10.645 62.0717 22.093 62.0717 36.2165C62.0717 50.3401 50.6238 61.7881 36.5002 61.7881C22.3767 61.7881 10.9287 50.3401 10.9287 36.2165C10.9287 22.093 22.3767 10.645 36.5002 10.645Z" fill="white"/>
<path fill-rule="evenodd" clip-rule="evenodd" d="M30.2015 28.043H42.7958C43.8326 28.043 44.6707 28.9473 44.6707 30.059V42.371C44.6707 43.4855 43.8297 44.387 42.7958 44.387H30.2015C29.1647 44.387 28.3267 43.4826 28.3267 42.371V30.059C28.3267 28.9473 29.1676 28.043 30.2015 28.043Z" fill="#0052FF"/>
</svg>
