<svg width="159" height="177" viewBox="0 0 159 177" fill="none" xmlns="http://www.w3.org/2000/svg">
<g opacity="0.3" filter="url(#filter0_f_235_20644)">
<path d="M76.5023 9.27996C78.0478 8.38768 79.9519 8.38768 81.4974 9.27996L142.034 44.231C143.58 45.1233 144.532 46.7723 144.532 48.5569V118.459C144.532 120.244 143.58 121.893 142.034 122.785L81.4974 157.736C79.9519 158.628 78.0478 158.628 76.5023 157.736L15.9653 122.785C14.4198 121.893 13.4678 120.244 13.4678 118.459V48.5569C13.4678 46.7723 14.4198 45.1233 15.9653 44.231L76.5023 9.27996Z" fill="#814A12"/>
</g>
<g opacity="0.4" filter="url(#filter1_f_235_20644)">
<path d="M76.5026 13.4425C78.0481 12.5503 79.9522 12.5503 81.4977 13.4425L142.756 48.8099C144.301 49.7021 145.253 51.3512 145.253 53.1357V123.87C145.253 125.655 144.301 127.304 142.756 128.196L81.4977 163.564C79.9522 164.456 78.0481 164.456 76.5026 163.564L15.2446 128.196C13.6991 127.304 12.7471 125.655 12.7471 123.87V53.1357C12.7471 51.3512 13.6991 49.7021 15.2446 48.8099L76.5026 13.4425Z" fill="#814A12"/>
</g>
<path d="M76.5024 2.61984C78.0479 1.72755 79.952 1.72755 81.4975 2.61984L144.918 39.2359C146.464 40.1282 147.416 41.7772 147.416 43.5618V116.794C147.416 118.579 146.464 120.228 144.918 121.12L81.4975 157.736C79.952 158.628 78.0479 158.628 76.5024 157.736L13.0815 121.12C11.536 120.228 10.584 118.579 10.584 116.794V43.5618C10.584 41.7772 11.536 40.1282 13.0815 39.2359L76.5024 2.61984Z" fill="url(#paint0_linear_235_20644)"/>
<g clip-path="url(#clip0_235_20644)">
<path d="M68.8942 59.4541H62.7945C62.3732 59.4541 61.9973 59.7301 61.8527 60.1446L45.8198 106.202C45.7006 106.545 45.9427 106.907 46.2907 106.907H52.3904C52.8116 106.907 53.1876 106.631 53.3321 106.217L69.365 60.1593C69.4842 59.8166 69.2421 59.4541 68.8942 59.4541ZM76.3132 78.7525C76.153 78.2923 75.532 78.2923 75.3715 78.7525L72.2092 87.8379C72.1283 88.0703 72.1283 88.3254 72.2092 88.5578L78.3565 106.217C78.5007 106.631 78.877 106.907 79.2983 106.907H85.3979C85.7459 106.907 85.988 106.545 85.8688 106.202L76.3132 78.7525ZM91.8629 87.6453C92.0231 88.1055 92.6441 88.1055 92.8043 87.6453L102.372 60.1593C102.491 59.8166 102.249 59.4541 101.901 59.4541H95.8017C95.3805 59.4541 95.0045 59.7297 94.86 60.1446L88.7004 77.8397C88.6194 78.0721 88.6194 78.3268 88.7004 78.5592L91.8629 87.6453ZM79.8361 60.1398C79.6932 59.728 79.3196 59.4541 78.9016 59.4541H72.7813C72.3604 59.4541 71.9844 59.7297 71.8399 60.1443L55.8073 106.202C55.6881 106.545 55.9302 106.907 56.2782 106.907H62.3782C62.7995 106.907 63.1754 106.632 63.32 106.217L75.5952 70.9528C75.6758 70.7214 75.9878 70.7214 76.0681 70.9528L88.3437 106.217C88.4879 106.632 88.8642 106.907 89.2854 106.907H95.3855C95.7334 106.907 95.9755 106.545 95.8563 106.203L79.8361 60.1398ZM111.889 59.4541H105.789C105.368 59.4541 104.991 59.7297 104.847 60.1443L93.6938 92.1851C93.6129 92.4175 93.6129 92.6723 93.6938 92.9047L96.8567 101.991C97.0169 102.451 97.6379 102.451 97.7981 101.991L108.839 70.2733L112.36 60.159C112.479 59.8166 112.237 59.4541 111.889 59.4541Z" fill="white"/>
</g>
<defs>
<filter id="filter0_f_235_20644" x="8.47268" y="3.61566" width="141.054" height="159.785" filterUnits="userSpaceOnUse" color-interpolation-filters="sRGB">
<feFlood flood-opacity="0" result="BackgroundImageFix"/>
<feBlend mode="normal" in="SourceGraphic" in2="BackgroundImageFix" result="shape"/>
<feGaussianBlur stdDeviation="2.49755" result="effect1_foregroundBlur_235_20644"/>
</filter>
<filter id="filter1_f_235_20644" x="0.25934" y="0.285601" width="157.482" height="176.435" filterUnits="userSpaceOnUse" color-interpolation-filters="sRGB">
<feFlood flood-opacity="0" result="BackgroundImageFix"/>
<feBlend mode="normal" in="SourceGraphic" in2="BackgroundImageFix" result="shape"/>
<feGaussianBlur stdDeviation="6.24387" result="effect1_foregroundBlur_235_20644"/>
</filter>
<linearGradient id="paint0_linear_235_20644" x1="79" y1="1.95062" x2="79" y2="158.405" gradientUnits="userSpaceOnUse">
<stop stop-color="#DB7D1F"/>
<stop offset="1" stop-color="#C4701C"/>
</linearGradient>
<clipPath id="clip0_235_20644">
<rect width="66.6012" height="47.4534" fill="white" transform="translate(45.7886 59.454)"/>
</clipPath>
</defs>
</svg>
