<svg width="160" height="177" viewBox="0 0 160 177" fill="none" xmlns="http://www.w3.org/2000/svg">
<g opacity="0.3" filter="url(#filter0_f_235_20689)">
<path d="M77.4179 9.44126C78.9571 8.55843 80.8491 8.55843 82.3883 9.44126L143.358 44.4112C144.911 45.3016 145.868 46.9546 145.868 48.7442V118.627C145.868 120.417 144.911 122.07 143.358 122.96L82.3883 157.93C80.8491 158.813 78.9571 158.813 77.4179 157.93L16.4479 122.96C14.8954 122.07 13.938 120.417 13.938 118.627V48.7442C13.938 46.9546 14.8954 45.3017 16.4479 44.4112L77.4179 9.44126Z" fill="#093867"/>
</g>
<g opacity="0.4" filter="url(#filter1_f_235_20689)">
<path d="M77.418 13.604C78.9573 12.7211 80.8494 12.7211 82.3887 13.604L144.08 48.99C145.632 49.8805 146.589 51.5333 146.589 53.3229V124.039C146.589 125.828 145.632 127.481 144.08 128.372L82.3887 163.758C80.8494 164.641 78.9573 164.641 77.418 163.758L15.727 128.372C14.1747 127.481 13.2173 125.828 13.2173 124.039V53.3229C13.2173 51.5333 14.1747 49.8805 15.727 48.9901L77.418 13.604Z" fill="#093867"/>
</g>
<path d="M77.4175 2.78183C78.957 1.8986 80.8495 1.8986 82.389 2.78183L146.243 39.416C147.795 40.3065 148.752 41.9593 148.752 43.7487V116.963C148.752 118.752 147.795 120.405 146.243 121.295L82.389 157.93C80.8495 158.813 78.957 158.813 77.4175 157.93L13.5636 121.295C12.0114 120.405 11.0542 118.752 11.0542 116.963V43.7487C11.0542 41.9593 12.0114 40.3065 13.5636 39.416L77.4175 2.78183Z" fill="url(#paint0_linear_235_20689)"/>
<path d="M88.7184 58.9772C87.4226 59.0308 81.5219 59.0522 75.5998 59.0415C64.5908 59.0201 62.706 59.0736 60.2858 59.4592C57.3194 59.9304 54.9634 61.3547 53.946 63.3037C53.432 64.3104 53.2285 65.0386 53.1428 66.1952C52.9822 68.6261 54.1495 71.5069 57.3943 76.6901C59.4076 79.9135 67.6001 93.8246 71.8195 101.214C72.5263 102.445 73.64 104.534 74.304 105.84C76.1566 109.556 77.249 111.27 78.5448 112.533C80.3546 114.311 81.9181 113.99 83.5887 111.495C83.835 111.141 84.424 110.124 84.9167 109.246C91.9632 96.5661 101.302 80.4168 103.872 76.4759C106.217 72.8776 107.192 70.95 107.727 68.8617C108.005 67.8015 108.027 65.5847 107.77 64.5995C107.341 62.9182 106.121 61.4189 104.536 60.5943C101.601 59.0629 97.6391 58.656 88.7184 58.9772ZM99.888 65.0814C100.723 65.2099 101.58 65.5205 101.976 65.8418L102.276 66.0881L102.115 66.8484C101.783 68.4441 101.034 70.0076 99.4061 72.5349C97.8854 74.8909 88.2151 91.747 85.0238 97.6049L83.7922 99.8538L83.6958 98.4402C83.578 96.5768 83.5566 70.1361 83.6744 67.2875L83.7601 65.0707L88.7612 65.06C91.5028 65.0493 94.6191 65.0172 95.6793 64.9743C97.8318 64.8994 98.8813 64.9208 99.888 65.0814ZM75.7925 65.0707H77.6345V82.2052C77.6345 91.6292 77.6024 99.3398 77.5488 99.3398C77.506 99.3398 76.6707 97.9797 75.6854 96.3198C74.7109 94.6492 72.6119 91.1152 71.0484 88.47C69.4742 85.8142 67.1503 81.8625 65.8866 79.6886C64.6123 77.5039 62.9631 74.6875 62.2134 73.4238C60.6392 70.7679 60.0716 69.6756 59.6968 68.5726C59.4291 67.7694 59.172 66.0452 59.2791 65.7668C59.3541 65.5847 60.4036 65.3384 61.7851 65.1885C62.3419 65.1243 62.9738 65.0493 63.1772 65.0279C63.3807 64.9957 65.8866 64.9957 68.746 65.0279C71.6053 65.0493 74.7752 65.0707 75.7925 65.0707Z" fill="white"/>
<defs>
<filter id="filter0_f_235_20689" x="8.9429" y="3.78404" width="141.92" height="159.803" filterUnits="userSpaceOnUse" color-interpolation-filters="sRGB">
<feFlood flood-opacity="0" result="BackgroundImageFix"/>
<feBlend mode="normal" in="SourceGraphic" in2="BackgroundImageFix" result="shape"/>
<feGaussianBlur stdDeviation="2.49755" result="effect1_foregroundBlur_235_20689"/>
</filter>
<filter id="filter1_f_235_20689" x="0.729555" y="0.454088" width="158.348" height="176.454" filterUnits="userSpaceOnUse" color-interpolation-filters="sRGB">
<feFlood flood-opacity="0" result="BackgroundImageFix"/>
<feBlend mode="normal" in="SourceGraphic" in2="BackgroundImageFix" result="shape"/>
<feGaussianBlur stdDeviation="6.24387" result="effect1_foregroundBlur_235_20689"/>
</filter>
<linearGradient id="paint0_linear_235_20689" x1="79.9032" y1="2.11941" x2="79.9032" y2="158.592" gradientUnits="userSpaceOnUse">
<stop stop-color="#1480EB"/>
<stop offset="1" stop-color="#1066BC"/>
</linearGradient>
</defs>
</svg>
