<svg width="159" height="177" viewBox="0 0 159 177" fill="none" xmlns="http://www.w3.org/2000/svg">
<g opacity="0.3" filter="url(#filter0_f_235_20578)">
<path d="M76.9056 9.27999C78.4511 8.38771 80.3552 8.38771 81.9007 9.27999L142.438 44.231C143.983 45.1233 144.935 46.7723 144.935 48.5569V118.459C144.935 120.244 143.983 121.893 142.438 122.785L81.9007 157.736C80.3552 158.628 78.4511 158.628 76.9056 157.736L16.3686 122.785C14.8232 121.893 13.8711 120.244 13.8711 118.459V48.5569C13.8711 46.7723 14.8232 45.1233 16.3686 44.231L76.9056 9.27999Z" fill="#451FAD"/>
</g>
<g opacity="0.4" filter="url(#filter1_f_235_20578)">
<path d="M76.9059 13.4426C78.4514 12.5503 80.3555 12.5503 81.901 13.4426L143.159 48.8099C144.704 49.7022 145.657 51.3512 145.657 53.1358V123.87C145.657 125.655 144.704 127.304 143.159 128.196L81.901 163.564C80.3555 164.456 78.4514 164.456 76.9059 163.564L15.6479 128.196C14.1025 127.304 13.1504 125.655 13.1504 123.87V53.1358C13.1504 51.3512 14.1024 49.7022 15.6479 48.8099L76.9059 13.4426Z" fill="#451FAD"/>
</g>
<path d="M76.9058 2.61987C78.4513 1.72758 80.3554 1.72758 81.9009 2.61987L145.322 39.236C146.867 40.1282 147.819 41.7773 147.819 43.5618V116.794C147.819 118.579 146.867 120.228 145.322 121.12L81.9009 157.736C80.3554 158.628 78.4513 158.628 76.9058 157.736L13.4849 121.12C11.9394 120.228 10.9873 118.579 10.9873 116.794V43.5618C10.9873 41.7773 11.9394 40.1282 13.4849 39.236L76.9058 2.61987Z" fill="url(#paint0_linear_235_20578)"/>
<path d="M97.9846 63.136V72.368L85.6256 81.4512L73.2666 90.5343L85.6256 90.6236L97.9846 90.6832V97.4732V104.233L110.552 91.6361L123.149 79.0687L110.552 66.5013L97.9846 53.904V63.136Z" fill="white"/>
<path d="M59.1209 95.0013V85.7693L71.4799 76.6862L83.8389 67.6031L71.4799 67.5138L59.1209 67.4542V60.6642V53.904L46.5535 66.5012L33.9562 79.0687L46.5535 91.6361L59.1209 104.233V95.0013Z" fill="white"/>
<defs>
<filter id="filter0_f_235_20578" x="8.876" y="3.61569" width="141.054" height="159.785" filterUnits="userSpaceOnUse" color-interpolation-filters="sRGB">
<feFlood flood-opacity="0" result="BackgroundImageFix"/>
<feBlend mode="normal" in="SourceGraphic" in2="BackgroundImageFix" result="shape"/>
<feGaussianBlur stdDeviation="2.49755" result="effect1_foregroundBlur_235_20578"/>
</filter>
<filter id="filter1_f_235_20578" x="0.662661" y="0.285631" width="157.482" height="176.435" filterUnits="userSpaceOnUse" color-interpolation-filters="sRGB">
<feFlood flood-opacity="0" result="BackgroundImageFix"/>
<feBlend mode="normal" in="SourceGraphic" in2="BackgroundImageFix" result="shape"/>
<feGaussianBlur stdDeviation="6.24387" result="effect1_foregroundBlur_235_20578"/>
</filter>
<linearGradient id="paint0_linear_235_20578" x1="79.4033" y1="1.95065" x2="79.4033" y2="158.405" gradientUnits="userSpaceOnUse">
<stop stop-color="#9A7DE8"/>
<stop offset="1" stop-color="#7852E0"/>
</linearGradient>
</defs>
</svg>
