<svg width="159" height="177" viewBox="0 0 159 177" fill="none" xmlns="http://www.w3.org/2000/svg">
<g opacity="0.3" filter="url(#filter0_f_235_20547)">
<path d="M77.0834 9.10208C78.6289 8.20979 80.533 8.20979 82.0785 9.10208L142.615 44.0531C144.161 44.9454 145.113 46.5944 145.113 48.379V118.281C145.113 120.066 144.161 121.715 142.615 122.607L82.0785 157.558C80.533 158.45 78.6289 158.45 77.0834 157.558L16.5464 122.607C15.0009 121.715 14.0488 120.066 14.0488 118.281V48.379C14.0488 46.5944 15.0009 44.9454 16.5464 44.0531L77.0834 9.10208Z" fill="#274319"/>
</g>
<g opacity="0.4" filter="url(#filter1_f_235_20547)">
<path d="M77.0836 13.2646C78.6291 12.3724 80.5332 12.3724 82.0787 13.2646L143.337 48.632C144.882 49.5242 145.834 51.1733 145.834 52.9578V123.692C145.834 125.477 144.882 127.126 143.337 128.018L82.0787 163.386C80.5332 164.278 78.6291 164.278 77.0836 163.386L15.8257 128.018C14.2802 127.126 13.3281 125.477 13.3281 123.692V52.9578C13.3281 51.1733 14.2802 49.5242 15.8257 48.632L77.0836 13.2646Z" fill="#274319"/>
</g>
<path d="M77.0835 2.44195C78.629 1.54966 80.5331 1.54966 82.0786 2.44195L145.5 39.058C147.045 39.9503 147.997 41.5993 147.997 43.3839V116.616C147.997 118.401 147.045 120.05 145.5 120.942L82.0786 157.558C80.5331 158.45 78.629 158.45 77.0835 157.558L13.6626 120.942C12.1171 120.05 11.165 118.401 11.165 116.616V43.3839C11.165 41.5993 12.1171 39.9503 13.6626 39.058L77.0835 2.44195Z" fill="url(#paint0_linear_235_20547)"/>
<path d="M66.5212 109.783C66.9654 108.446 67.8539 107.108 68.2982 105.325C68.2982 104.879 68.2982 103.987 67.8539 103.541C65.1885 99.9741 64.3 95.9613 65.1885 91.9484C65.1885 91.5026 65.1885 91.0567 65.6327 91.0567C65.6327 90.6108 66.077 90.6108 66.077 90.165C69.1867 93.286 70.0751 97.2989 70.5194 101.312C71.4079 99.5282 72.7406 97.7447 73.6291 95.5154C73.6291 95.0695 73.1848 94.6236 73.1848 94.1778C70.5194 90.165 70.0751 85.7063 71.8521 80.8017C74.9618 83.9228 75.8503 87.9356 75.8503 91.9484C77.183 90.165 78.0715 88.3815 79.4042 87.0439C79.4042 86.598 79.4042 86.1521 78.96 85.7063C77.6273 81.6935 77.6273 77.6806 79.8485 73.6678C80.2927 73.2219 80.2927 72.7761 80.737 72.3302C82.9582 75.8972 82.5139 79.4641 82.0697 83.0311H82.514C83.4024 81.6935 84.2909 80.8017 84.7352 79.4641C86.5121 74.5596 89.1776 70.9926 94.0643 68.7633C94.9527 68.3174 95.397 68.3174 96.2855 67.8715C96.2855 68.7633 96.2855 69.2091 95.8412 70.1009C94.5085 74.5596 91.3988 78.1265 86.9564 80.3558C85.1794 81.2476 83.8467 82.5852 82.9582 84.3687C86.5121 82.5852 90.0661 81.6935 94.5085 83.0311C93.62 83.9228 93.1758 84.3687 92.2873 84.8145C89.1776 87.0439 85.6236 87.9356 82.0697 87.4897C80.737 87.4897 80.2927 87.4897 79.8485 88.3815C78.96 89.7191 78.0715 91.5026 77.183 93.286C81.1812 91.5026 85.1794 90.6108 89.6218 92.8402C88.2891 93.7319 87.4006 94.6236 86.5121 95.0695C83.4024 96.4071 80.2927 96.853 76.7388 95.9613C75.8503 95.5154 75.4061 95.9613 74.9618 96.853C74.0733 98.6365 73.1848 100.42 71.8521 102.649C75.8503 100.866 79.8485 99.5282 84.2909 101.312L84.7352 101.758C84.2909 102.203 83.8467 102.203 82.9582 102.649C79.4042 104.879 75.8503 105.77 71.8521 105.325C70.9636 104.879 70.0751 105.325 70.0751 106.216C68.7424 109.783 67.4097 113.35 66.077 116.471C65.6327 117.809 64.7442 119.146 63.8557 120.484C63.4115 121.376 62.523 121.822 61.6345 121.376C49.64 115.134 41.1994 105.77 38.0897 92.8402C31.8703 69.2091 44.7533 45.5781 67.8539 38.89C94.5085 30.8644 120.719 48.6992 124.717 74.5596C127.827 95.5154 115.832 115.579 96.2855 122.713C94.9527 123.159 94.0643 123.605 93.1758 122.713C92.2873 121.376 92.2873 120.484 92.7315 119.146C94.5085 114.688 95.8412 110.229 97.174 105.77C98.0625 103.095 98.9509 102.203 101.616 102.203C104.282 101.758 106.947 101.758 109.613 101.312C111.834 100.866 112.722 99.9741 112.722 97.7447C112.722 97.2989 112.722 96.4071 112.722 95.9613C112.278 95.0695 112.722 94.1778 113.611 93.286C114.499 92.3943 114.499 91.9484 113.611 91.0567C113.167 90.6108 113.167 89.7191 113.611 89.7191C114.499 88.8274 114.499 87.9356 113.611 87.0439C112.722 86.1521 113.167 85.2604 114.055 84.8145C114.944 84.3687 115.388 83.9228 115.832 83.0311C117.165 82.1393 116.721 81.2476 115.832 80.3558C114.055 78.5724 111.834 77.2348 110.057 75.4513C108.724 74.5596 108.28 72.7761 108.724 71.4385C109.169 68.7633 108.724 66.5339 107.392 64.3046C106.059 62.5211 105.17 60.2917 104.282 58.5083C102.949 55.3872 100.728 53.1579 97.6182 52.2661C94.5085 51.3744 91.3988 50.9285 87.8449 50.4826C85.6236 50.0368 83.4024 50.0368 81.1812 49.5909C75.4061 48.6992 70.0751 50.0368 65.6327 54.0496C64.3 54.9413 62.9673 56.2789 61.1903 56.7248C59.8576 57.1707 58.9691 58.5083 58.0806 59.4C57.6363 60.7376 56.7479 61.6294 55.4151 62.0752C53.1939 63.8587 50.9727 65.1963 49.1957 67.4257C48.7515 68.3174 47.4188 68.7633 46.9745 69.2091C44.3091 70.9926 43.8648 72.7761 44.7533 75.4513C45.1975 77.2348 45.6418 79.0182 45.1975 80.8017C44.7533 82.1393 44.7533 83.9228 45.1975 85.2604C45.1975 87.0439 46.5303 88.8274 48.3072 89.2732C49.64 89.7191 50.5285 90.6108 50.5285 91.9484C50.9727 93.7319 51.8612 95.5154 53.1939 96.853C54.5266 98.1906 55.4151 99.9741 56.3036 101.758C57.1921 103.987 58.5248 105.325 60.746 106.216C62.9673 107.108 64.7442 108 66.9654 108.891C65.6327 109.337 66.077 109.337 66.5212 109.783Z" fill="white"/>
<defs>
<filter id="filter0_f_235_20547" x="9.05374" y="3.43777" width="141.054" height="159.785" filterUnits="userSpaceOnUse" color-interpolation-filters="sRGB">
<feFlood flood-opacity="0" result="BackgroundImageFix"/>
<feBlend mode="normal" in="SourceGraphic" in2="BackgroundImageFix" result="shape"/>
<feGaussianBlur stdDeviation="2.49755" result="effect1_foregroundBlur_235_20547"/>
</filter>
<filter id="filter1_f_235_20547" x="0.840395" y="0.107698" width="157.482" height="176.435" filterUnits="userSpaceOnUse" color-interpolation-filters="sRGB">
<feFlood flood-opacity="0" result="BackgroundImageFix"/>
<feBlend mode="normal" in="SourceGraphic" in2="BackgroundImageFix" result="shape"/>
<feGaussianBlur stdDeviation="6.24387" result="effect1_foregroundBlur_235_20547"/>
</filter>
<linearGradient id="paint0_linear_235_20547" x1="79.5811" y1="1.77274" x2="79.5811" y2="158.227" gradientUnits="userSpaceOnUse">
<stop stop-color="#63A840"/>
<stop offset="1" stop-color="#528D34"/>
</linearGradient>
</defs>
</svg>
