<svg width="162" height="182" viewBox="0 0 162 182" fill="none" xmlns="http://www.w3.org/2000/svg">
<g opacity="0.3" filter="url(#filter0_f_235_20897)">
<path d="M77.9998 11.732C79.8562 10.6602 82.1433 10.6602 83.9998 11.732L142.952 45.7679C144.808 46.8397 145.952 48.8205 145.952 50.9641V119.036C145.952 121.179 144.808 123.16 142.952 124.232L83.9998 158.268C82.1433 159.34 79.8562 159.34 77.9998 158.268L19.0479 124.232C17.1914 123.16 16.0479 121.179 16.0479 119.036V50.9641C16.0479 48.8205 17.1914 46.8397 19.0479 45.7679L77.9998 11.732Z" fill="#6B3D0F"/>
</g>
<g opacity="0.4" filter="url(#filter1_f_235_20897)">
<path d="M78.0001 16.732C79.8565 15.6602 82.1437 15.6602 84.0001 16.732L143.818 51.2679C145.674 52.3397 146.818 54.3205 146.818 56.4641V125.536C146.818 127.679 145.674 129.66 143.818 130.732L84.0001 165.268C82.1437 166.34 79.8565 166.34 78.0001 165.268L18.1821 130.732C16.3257 129.66 15.1821 127.679 15.1821 125.536V56.4641C15.1821 54.3205 16.3257 52.3397 18.1821 51.2679L78.0001 16.732Z" fill="#6B3D0F"/>
</g>
<path d="M78 3.73204C79.8564 2.66024 82.1436 2.66024 84 3.73204L146.416 39.7679C148.272 40.8397 149.416 42.8205 149.416 44.9641V117.036C149.416 119.179 148.272 121.16 146.416 122.232L84 158.268C82.1436 159.34 79.8564 159.34 78 158.268L15.584 122.232C13.7276 121.16 12.584 119.179 12.584 117.036V44.9641C12.584 42.8205 13.7276 40.8397 15.584 39.7679L78 3.73204Z" fill="url(#paint0_linear_235_20897)"/>
<path d="M81 60.7069L66.6165 75.0904L58.248 66.7207L81 43.9688L103.759 66.7276L95.3903 75.0966L81 60.7069Z" fill="white"/>
<path d="M52.3381 72.6295L43.9688 81L52.3375 89.3676L60.7069 80.9982L52.3381 72.6295Z" fill="white"/>
<path d="M81 101.293L66.6165 86.9105L58.2361 95.2674L81 118.031L103.759 95.2727L103.764 95.2683L95.39 86.9037L81 101.293Z" fill="white"/>
<path d="M109.662 72.6342L101.293 81.0036L109.662 89.3723L118.031 81.003L109.662 72.6342Z" fill="white"/>
<path d="M89.4906 80.9934H89.4876L89.4953 80.9976L89.4912 81.0023L80.9987 89.4945L72.5137 81.0085L72.5018 80.9964L72.5137 80.9848L80.9987 72.5012L89.4906 80.9934Z" fill="white"/>
<defs>
<filter id="filter0_f_235_20897" x="10.0479" y="4.92819" width="141.904" height="160.144" filterUnits="userSpaceOnUse" color-interpolation-filters="sRGB">
<feFlood flood-opacity="0" result="BackgroundImageFix"/>
<feBlend mode="normal" in="SourceGraphic" in2="BackgroundImageFix" result="shape"/>
<feGaussianBlur stdDeviation="3" result="effect1_foregroundBlur_235_20897"/>
</filter>
<filter id="filter1_f_235_20897" x="0.182129" y="0.928192" width="161.636" height="180.144" filterUnits="userSpaceOnUse" color-interpolation-filters="sRGB">
<feFlood flood-opacity="0" result="BackgroundImageFix"/>
<feBlend mode="normal" in="SourceGraphic" in2="BackgroundImageFix" result="shape"/>
<feGaussianBlur stdDeviation="7.5" result="effect1_foregroundBlur_235_20897"/>
</filter>
<linearGradient id="paint0_linear_235_20897" x1="81" y1="2.92819" x2="81" y2="159.072" gradientUnits="userSpaceOnUse">
<stop stop-color="#F4BA45"/>
<stop offset="1" stop-color="#F19C3B"/>
</linearGradient>
</defs>
</svg>
