<svg width="160" height="178" viewBox="0 0 160 178" fill="none" xmlns="http://www.w3.org/2000/svg">
<g opacity="0.3" filter="url(#filter0_f_235_20698)">
<path d="M77.1957 9.62153C78.736 8.73712 80.63 8.73712 82.1703 9.62154L143.145 44.6328C144.696 45.5236 145.653 47.1758 145.653 48.9646V118.94C145.653 120.729 144.696 122.381 143.145 123.272L82.1703 158.283C80.63 159.167 78.736 159.167 77.1957 158.283L16.2212 123.272C14.6699 122.381 13.7134 120.729 13.7134 118.94V48.9646C13.7134 47.1758 14.6699 45.5236 16.2212 44.6328L77.1957 9.62153Z" fill="#6B3D0F"/>
</g>
<g opacity="0.4" filter="url(#filter1_f_235_20698)">
<path d="M77.1954 13.7842C78.7357 12.8997 80.6299 12.8997 82.1702 13.7842L143.866 49.2116C145.417 50.1024 146.373 51.7546 146.373 53.5433V124.351C146.373 126.14 145.417 127.792 143.866 128.683L82.1702 164.11C80.6299 164.995 78.7357 164.995 77.1954 164.11L15.4999 128.683C13.9487 127.792 12.9922 126.14 12.9922 124.351V53.5433C12.9922 51.7546 13.9487 50.1024 15.4999 49.2116L77.1954 13.7842Z" fill="#6B3D0F"/>
</g>
<path d="M77.1949 2.96202C78.7354 2.07728 80.6299 2.07728 82.1704 2.96202L146.029 39.6377C147.58 40.5285 148.536 42.1806 148.536 43.9692V117.275C148.536 119.064 147.58 120.716 146.029 121.607L82.1704 158.282C80.6299 159.167 78.7354 159.167 77.1949 158.282L13.3365 121.607C11.7854 120.716 10.8291 119.064 10.8291 117.275V43.9692C10.8291 42.1806 11.7855 40.5285 13.3365 39.6377L77.1949 2.96202Z" fill="url(#paint0_linear_235_20698)"/>
<path d="M106.173 73.3568C107.346 65.5658 101.375 61.3779 93.2101 58.5841L95.8588 48.0305L89.392 46.4297L86.8136 56.7054C85.1135 56.2842 83.3676 55.8873 81.6323 55.4938L84.2294 45.1503L77.7666 43.5495L75.1165 54.0997C73.7096 53.7815 72.3278 53.467 70.9872 53.1356L70.9947 53.1024L62.0768 50.8901L60.3565 57.7516C60.3565 57.7516 65.1544 58.8442 65.0533 58.9115C67.672 59.5607 68.1456 61.2829 68.0669 62.6479L65.0498 74.6709C65.2301 74.7164 65.464 74.7822 65.7221 74.8852C65.5064 74.832 65.2768 74.7739 65.0386 74.7172L60.8096 91.5598C60.4896 92.3502 59.6773 93.5363 57.8464 93.0859C57.9112 93.1792 53.1462 91.9206 53.1462 91.9206L49.9355 99.2744L58.3511 101.358C59.9167 101.749 61.4509 102.157 62.9617 102.54L60.2857 113.215L66.745 114.816L69.3951 104.254C71.1598 104.73 72.8723 105.169 74.5487 105.583L71.9076 116.095L78.3747 117.695L81.0504 107.041C92.0778 109.114 100.369 108.278 103.86 98.3695C106.672 90.392 103.72 85.7905 97.9181 82.7898C102.144 81.8217 105.324 79.06 106.173 73.3568ZM91.3974 93.9392C89.3989 101.917 75.8781 97.6044 71.4945 96.523L75.0456 82.3809C79.429 83.468 93.4858 85.6194 91.3974 93.9392ZM93.3974 73.2412C91.5743 80.4977 80.3208 76.8111 76.6703 75.9071L79.8899 63.0811C83.5404 63.9851 95.2959 65.6723 93.3974 73.2412Z" fill="white"/>
<defs>
<filter id="filter0_f_235_20698" x="8.71829" y="3.96313" width="141.93" height="159.978" filterUnits="userSpaceOnUse" color-interpolation-filters="sRGB">
<feFlood flood-opacity="0" result="BackgroundImageFix"/>
<feBlend mode="normal" in="SourceGraphic" in2="BackgroundImageFix" result="shape"/>
<feGaussianBlur stdDeviation="2.49755" result="effect1_foregroundBlur_235_20698"/>
</filter>
<filter id="filter1_f_235_20698" x="0.504457" y="0.633135" width="158.357" height="176.628" filterUnits="userSpaceOnUse" color-interpolation-filters="sRGB">
<feFlood flood-opacity="0" result="BackgroundImageFix"/>
<feBlend mode="normal" in="SourceGraphic" in2="BackgroundImageFix" result="shape"/>
<feGaussianBlur stdDeviation="6.24387" result="effect1_foregroundBlur_235_20698"/>
</filter>
<linearGradient id="paint0_linear_235_20698" x1="79.6826" y1="2.29847" x2="79.6826" y2="158.946" gradientUnits="userSpaceOnUse">
<stop stop-color="#F4BA45"/>
<stop offset="1" stop-color="#F19C3B"/>
</linearGradient>
</defs>
</svg>
