<svg width="159" height="177" viewBox="0 0 159 177" fill="none" xmlns="http://www.w3.org/2000/svg">
<g opacity="0.3" filter="url(#filter0_f_235_20537)">
<path d="M76.7279 9.10208C78.2734 8.20979 80.1775 8.20979 81.723 9.10208L142.26 44.0531C143.805 44.9454 144.758 46.5944 144.758 48.379V118.281C144.758 120.066 143.805 121.715 142.26 122.607L81.723 157.558C80.1775 158.45 78.2734 158.45 76.7279 157.558L16.1909 122.607C14.6454 121.715 13.6934 120.066 13.6934 118.281V48.379C13.6934 46.5944 14.6454 44.9454 16.1909 44.0531L76.7279 9.10208Z" fill="#9C2921"/>
</g>
<g opacity="0.4" filter="url(#filter1_f_235_20537)">
<path d="M76.7282 13.2646C78.2737 12.3724 80.1778 12.3724 81.7233 13.2646L142.981 48.632C144.527 49.5242 145.479 51.1733 145.479 52.9578V123.692C145.479 125.477 144.527 127.126 142.981 128.018L81.7233 163.386C80.1778 164.278 78.2737 164.278 76.7282 163.386L15.4702 128.018C13.9247 127.126 12.9727 125.477 12.9727 123.692V52.9578C12.9727 51.1733 13.9247 49.5242 15.4702 48.632L76.7282 13.2646Z" fill="#9C2921"/>
</g>
<path d="M76.728 2.44195C78.2735 1.54966 80.1776 1.54966 81.7231 2.44195L145.144 39.058C146.69 39.9503 147.642 41.5993 147.642 43.3839V116.616C147.642 118.401 146.69 120.05 145.144 120.942L81.7231 157.558C80.1776 158.45 78.2735 158.45 76.728 157.558L13.3071 120.942C11.7616 120.05 10.8096 118.401 10.8096 116.616V43.3839C10.8096 41.5993 11.7616 39.9503 13.3071 39.058L76.728 2.44195Z" fill="url(#paint0_linear_235_20537)"/>
<path d="M79.3155 60.2409C86.3722 60.2409 92.0927 56.9383 92.0927 52.8642C92.0927 48.7902 86.3722 45.4875 79.3155 45.4875C72.2589 45.4875 66.5383 48.7902 66.5383 52.8642C66.5383 56.9383 72.2589 60.2409 79.3155 60.2409Z" fill="white"/>
<path d="M109.948 83.5673C113.502 85.6043 113.523 92.1733 109.995 98.2396C106.467 104.306 100.725 107.572 97.1712 105.535C93.6171 103.498 93.5961 96.9292 97.1244 90.8629C100.653 84.7967 106.394 81.5303 109.948 83.5673Z" fill="white"/>
<path d="M92.0927 108.446C92.0927 112.521 86.3722 115.823 79.3155 115.823C72.2589 115.823 66.5383 112.521 66.5383 108.446C66.5383 104.372 72.2589 101.07 79.3155 101.07C86.3722 101.07 92.0927 104.372 92.0927 108.446Z" fill="white"/>
<path d="M61.4584 55.777C65.015 57.8154 65.0379 64.3856 61.5095 70.4519C57.9812 76.5183 52.2377 79.7835 48.681 77.7451C45.1244 75.7067 45.1015 69.1365 48.6299 63.0702C52.1583 57.0038 57.9018 53.7386 61.4584 55.777Z" fill="white"/>
<path d="M61.46 105.534C65.0166 103.495 65.0395 96.9252 61.5112 90.8589C57.9828 84.7926 52.2394 81.5274 48.6828 83.5658C45.1262 85.6042 45.1033 92.1743 48.6317 98.2406C52.16 104.307 57.9034 107.572 61.46 105.534Z" fill="white"/>
<path d="M109.998 63.0743C113.527 69.1405 113.506 75.7095 109.952 77.7465C106.397 79.7836 100.656 76.5172 97.1276 70.451C93.5992 64.3847 93.6201 57.8157 97.1743 55.7787C100.729 53.7417 106.47 57.008 109.998 63.0743Z" fill="white"/>
<defs>
<filter id="filter0_f_235_20537" x="8.69827" y="3.43777" width="141.054" height="159.785" filterUnits="userSpaceOnUse" color-interpolation-filters="sRGB">
<feFlood flood-opacity="0" result="BackgroundImageFix"/>
<feBlend mode="normal" in="SourceGraphic" in2="BackgroundImageFix" result="shape"/>
<feGaussianBlur stdDeviation="2.49755" result="effect1_foregroundBlur_235_20537"/>
</filter>
<filter id="filter1_f_235_20537" x="0.484926" y="0.107698" width="157.482" height="176.435" filterUnits="userSpaceOnUse" color-interpolation-filters="sRGB">
<feFlood flood-opacity="0" result="BackgroundImageFix"/>
<feBlend mode="normal" in="SourceGraphic" in2="BackgroundImageFix" result="shape"/>
<feGaussianBlur stdDeviation="6.24387" result="effect1_foregroundBlur_235_20537"/>
</filter>
<linearGradient id="paint0_linear_235_20537" x1="79.2256" y1="1.77274" x2="79.2256" y2="158.227" gradientUnits="userSpaceOnUse">
<stop stop-color="#D9534A"/>
<stop offset="1" stop-color="#C6342A"/>
</linearGradient>
</defs>
</svg>
