<svg width="159" height="177" viewBox="0 0 159 177" fill="none" xmlns="http://www.w3.org/2000/svg">
<g opacity="0.15" filter="url(#filter0_f_235_20560)">
<path d="M76.5023 9.27996C78.0478 8.38768 79.9519 8.38768 81.4974 9.27996L142.034 44.231C143.58 45.1233 144.532 46.7723 144.532 48.5569V118.459C144.532 120.244 143.58 121.893 142.034 122.785L81.4974 157.736C79.9519 158.628 78.0478 158.628 76.5023 157.736L15.9653 122.785C14.4198 121.893 13.4678 120.244 13.4678 118.459V48.5569C13.4678 46.7723 14.4198 45.1233 15.9653 44.231L76.5023 9.27996Z" fill="#0E1011"/>
</g>
<g opacity="0.2" filter="url(#filter1_f_235_20560)">
<path d="M76.5026 13.4425C78.0481 12.5503 79.9522 12.5503 81.4977 13.4425L142.756 48.8099C144.301 49.7021 145.253 51.3512 145.253 53.1357V123.87C145.253 125.655 144.301 127.304 142.756 128.196L81.4977 163.564C79.9522 164.456 78.0481 164.456 76.5026 163.564L15.2446 128.196C13.6991 127.304 12.7471 125.655 12.7471 123.87V53.1357C12.7471 51.3512 13.6991 49.7021 15.2446 48.8099L76.5026 13.4425Z" fill="#0E1011"/>
</g>
<path d="M76.5024 2.61984C78.0479 1.72755 79.952 1.72755 81.4975 2.61984L144.918 39.2359C146.464 40.1282 147.416 41.7772 147.416 43.5618V116.794C147.416 118.579 146.464 120.228 144.918 121.12L81.4975 157.736C79.952 158.628 78.0479 158.628 76.5024 157.736L13.0815 121.12C11.536 120.228 10.584 118.579 10.584 116.794V43.5618C10.584 41.7772 11.536 40.1282 13.0815 39.2359L76.5024 2.61984Z" fill="#7D808C"/>
<path d="M76.397 46.7794C68.6826 47.2494 61.1746 50.5736 55.535 55.9954C54.446 57.05 52.8069 58.8611 52.5776 59.2622C52.4974 59.3998 54.8587 59.4227 70.2301 59.3998L87.9742 59.3654L88.4901 59.1018C88.7881 58.9413 89.6134 58.2077 90.4387 57.3595C92.1237 55.6401 92.5822 55.2962 93.2127 55.2962C93.9692 55.2962 94.3704 55.5827 95.9637 57.2792C98.0843 59.5259 97.855 59.4342 101.615 59.3998L104.572 59.3654L103.953 58.6203C102.245 56.5456 99.8954 54.4021 97.4538 52.6942C95.7688 51.5135 95.5625 51.3874 93.8202 50.4704C88.4671 47.6735 82.4836 46.4012 76.397 46.7794Z" fill="white"/>
<path d="M84.7654 64.5236C84.3298 64.684 83.8827 65.0967 82.0143 67.137C81.3954 67.8133 80.742 68.1916 79.8364 68.4323C79.3665 68.5584 76.2486 68.5928 63.3073 68.5928H47.3628L47.0648 69.4754C46.4228 71.4584 45.907 73.7051 45.6892 75.5277C45.6434 75.8372 45.5861 76.2957 45.5517 76.5249L45.4829 76.9605H60.7397C73.2683 76.9605 76.0652 76.9376 76.3747 76.8115C76.581 76.7198 77.4407 75.9059 78.3463 74.966C80.1459 73.0518 80.5471 72.7881 81.4412 72.8569C82.1977 72.9257 82.5531 73.1893 83.8025 74.6451C84.3298 75.2526 84.9602 75.9518 85.2124 76.1811C86.0721 77.0064 85.2926 76.9605 99.1166 76.9605H111.531L111.462 76.4103C111.152 73.8885 110.808 72.215 110.144 70.06L109.697 68.5928L100.091 68.5699L90.4967 68.5355L89.9579 68.2718C89.4077 67.9967 89.0982 67.6987 87.6654 66.071C86.3358 64.5579 85.6709 64.2026 84.7654 64.5236Z" fill="white"/>
<path d="M72.7645 82.0039C72.2602 82.1529 71.7329 82.6229 70.8388 83.7118C69.9103 84.8466 69.2569 85.3854 68.317 85.798L67.6866 86.0731L56.8314 86.1075L45.9878 86.1305L46.1483 86.8526C46.6756 89.191 47.5009 91.6211 48.4408 93.6843L48.8649 94.6243L56.3844 94.5899C63.0671 94.5555 63.9383 94.5326 64.2478 94.3606C64.4426 94.2575 65.3253 93.3978 66.2308 92.4578C67.5032 91.1052 67.9731 90.6926 68.3743 90.5321C69.383 90.1538 70.0249 90.4863 71.4922 92.1598C72.4665 93.2717 73.2116 93.9365 73.7961 94.2231C74.1973 94.4294 74.9309 94.4409 91.2079 94.4753L108.207 94.4982L108.482 93.9594C109.262 92.4005 110.373 89.1451 110.832 87.0819L111.05 86.1305H94.8645C83.505 86.1305 78.5531 86.0961 78.2322 86.0044C77.7622 85.8783 77.2464 85.3968 75.3092 83.2992C74.759 82.7031 74.2547 82.279 73.9337 82.13C73.372 81.8778 73.2345 81.8549 72.7645 82.0039Z" fill="white"/>
<path d="M59.0199 99.0719C58.7333 99.2438 58.1029 99.8628 57.6214 100.436C56.6357 101.594 56.0281 102.132 55.2258 102.557L54.687 102.843L55.6269 103.749C56.4064 104.494 57.289 105.262 58.229 105.995C59.6503 107.119 61.9199 108.552 63.7196 109.457C72.3051 113.767 82.6444 114.076 91.4706 110.294C95.0355 108.769 98.4514 106.534 101.157 103.966L102.188 102.992L95.3679 102.981C91.6196 102.981 83.6646 102.981 77.6925 102.981C65.5077 102.981 65.9089 103.004 64.3042 102.155C63.3642 101.662 62.7223 101.101 61.9314 100.081C60.8654 98.7051 60.0401 98.4185 59.0199 99.0719Z" fill="white"/>
<defs>
<filter id="filter0_f_235_20560" x="8.47268" y="3.61566" width="141.054" height="159.785" filterUnits="userSpaceOnUse" color-interpolation-filters="sRGB">
<feFlood flood-opacity="0" result="BackgroundImageFix"/>
<feBlend mode="normal" in="SourceGraphic" in2="BackgroundImageFix" result="shape"/>
<feGaussianBlur stdDeviation="2.49755" result="effect1_foregroundBlur_235_20560"/>
</filter>
<filter id="filter1_f_235_20560" x="0.25934" y="0.285601" width="157.482" height="176.435" filterUnits="userSpaceOnUse" color-interpolation-filters="sRGB">
<feFlood flood-opacity="0" result="BackgroundImageFix"/>
<feBlend mode="normal" in="SourceGraphic" in2="BackgroundImageFix" result="shape"/>
<feGaussianBlur stdDeviation="6.24387" result="effect1_foregroundBlur_235_20560"/>
</filter>
</defs>
</svg>
