<svg width="159" height="178" viewBox="0 0 159 178" fill="none" xmlns="http://www.w3.org/2000/svg">
<g opacity="0.3" filter="url(#filter0_f_235_20814)">
<path d="M77.2616 9.63553C78.8071 8.74324 80.7112 8.74324 82.2567 9.63553L142.794 44.5866C144.339 45.4789 145.291 47.1279 145.291 48.9125V118.815C145.291 120.599 144.339 122.248 142.794 123.14L82.2567 158.091C80.7112 158.984 78.8071 158.984 77.2616 158.091L16.7246 123.14C15.1791 122.248 14.2271 120.599 14.2271 118.815V48.9125C14.2271 47.1279 15.1791 45.4789 16.7246 44.5866L77.2616 9.63553Z" fill="#093867"/>
</g>
<g opacity="0.4" filter="url(#filter1_f_235_20814)">
<path d="M77.2619 13.7981C78.8074 12.9058 80.7115 12.9058 82.257 13.7981L143.515 49.1654C145.06 50.0577 146.012 51.7067 146.012 53.4913V124.226C146.012 126.01 145.06 127.66 143.515 128.552L82.257 163.919C80.7115 164.811 78.8074 164.811 77.2619 163.919L16.0039 128.552C14.4584 127.66 13.5063 126.01 13.5063 124.226V53.4913C13.5063 51.7067 14.4584 50.0577 16.0039 49.1654L77.2619 13.7981Z" fill="#093867"/>
</g>
<path d="M77.2617 2.97541C78.8072 2.08312 80.7113 2.08312 82.2568 2.97541L145.678 39.5915C147.223 40.4838 148.175 42.1328 148.175 43.9174V117.15C148.175 118.934 147.223 120.583 145.678 121.475L82.2568 158.091C80.7113 158.984 78.8072 158.984 77.2617 158.091L13.8408 121.475C12.2953 120.583 11.3433 118.934 11.3433 117.15V43.9174C11.3433 42.1328 12.2953 40.4838 13.8408 39.5915L77.2617 2.97541Z" fill="url(#paint0_linear_235_20814)"/>
<path d="M68.3766 42.8764C66.3259 46.2679 43.0587 86.7292 40.1405 91.7769L38.2476 95.1684H47.3967C52.4445 95.1684 56.5458 95.3262 56.5458 95.4839C56.5458 95.6417 54.574 99.112 52.2079 103.134L47.8699 110.548L63.6443 110.785C72.3202 110.864 86.5171 110.864 95.193 110.785L110.967 110.548L106.629 103.134C104.263 99.112 102.291 95.6417 102.291 95.4839C102.291 95.3262 106.393 95.1684 111.441 95.1684H120.59L118.697 91.7769C115.779 86.7292 92.5114 46.2679 90.4607 42.8764L88.6466 39.8793L84.3876 47.3721C82.0214 51.5523 79.813 54.9438 79.4186 54.9438C79.0243 54.9438 76.8159 51.5523 74.4497 47.3721L70.1906 39.8793L68.3766 42.8764ZM84.8608 65.4338C87.6213 70.2449 92.3536 78.4476 95.3508 83.4954C98.3479 88.6221 100.951 93.2755 101.187 93.9854C101.582 95.0107 99.0577 95.1684 79.4186 95.1684C59.7796 95.1684 57.2557 95.0107 57.65 93.9854C57.8866 93.2755 60.4894 88.6221 63.4865 83.4954C66.4837 78.4476 71.216 70.2449 73.9765 65.4338C76.737 60.5437 79.182 56.5212 79.4186 56.5212C79.6553 56.5212 82.1003 60.5437 84.8608 65.4338Z" fill="white"/>
<path d="M75.7902 72.6104C68.6917 75.6864 67.1932 85.4665 73.1874 89.7256C82.8098 96.5874 94.4039 84.9933 87.1477 75.8441C85.4914 73.7146 81.3112 71.5062 79.2605 71.5062C78.7084 71.585 77.131 72.0583 75.7902 72.6104Z" fill="white"/>
<defs>
<filter id="filter0_f_235_20814" x="9.23196" y="3.97122" width="141.054" height="159.785" filterUnits="userSpaceOnUse" color-interpolation-filters="sRGB">
<feFlood flood-opacity="0" result="BackgroundImageFix"/>
<feBlend mode="normal" in="SourceGraphic" in2="BackgroundImageFix" result="shape"/>
<feGaussianBlur stdDeviation="2.49755" result="effect1_foregroundBlur_235_20814"/>
</filter>
<filter id="filter1_f_235_20814" x="1.01862" y="0.641161" width="157.482" height="176.435" filterUnits="userSpaceOnUse" color-interpolation-filters="sRGB">
<feFlood flood-opacity="0" result="BackgroundImageFix"/>
<feBlend mode="normal" in="SourceGraphic" in2="BackgroundImageFix" result="shape"/>
<feGaussianBlur stdDeviation="6.24387" result="effect1_foregroundBlur_235_20814"/>
</filter>
<linearGradient id="paint0_linear_235_20814" x1="79.7593" y1="2.30619" x2="79.7593" y2="158.761" gradientUnits="userSpaceOnUse">
<stop stop-color="#1480EB"/>
<stop offset="1" stop-color="#1066BC"/>
</linearGradient>
</defs>
</svg>
