<svg width="162" height="182" viewBox="0 0 162 182" fill="none" xmlns="http://www.w3.org/2000/svg">
<g opacity="0.3" filter="url(#filter0_f_235_20885)">
<path d="M77.9998 11.732C79.8562 10.6602 82.1433 10.6602 83.9998 11.732L142.952 45.7679C144.808 46.8397 145.952 48.8205 145.952 50.9641V119.036C145.952 121.179 144.808 123.16 142.952 124.232L83.9998 158.268C82.1433 159.34 79.8562 159.34 77.9998 158.268L19.0479 124.232C17.1914 123.16 16.0479 121.179 16.0479 119.036V50.9641C16.0479 48.8205 17.1914 46.8397 19.0479 45.7679L77.9998 11.732Z" fill="#521B6F"/>
</g>
<g opacity="0.4" filter="url(#filter1_f_235_20885)">
<path d="M78.0001 16.732C79.8565 15.6602 82.1437 15.6602 84.0001 16.732L143.818 51.2679C145.674 52.3397 146.818 54.3205 146.818 56.4641V125.536C146.818 127.679 145.674 129.66 143.818 130.732L84.0001 165.268C82.1437 166.34 79.8565 166.34 78.0001 165.268L18.1821 130.732C16.3257 129.66 15.1821 127.679 15.1821 125.536V56.4641C15.1821 54.3205 16.3257 52.3397 18.1821 51.2679L78.0001 16.732Z" fill="#521B6F"/>
</g>
<path d="M78 3.73204C79.8564 2.66024 82.1436 2.66024 84 3.73204L146.416 39.7679C148.272 40.8397 149.416 42.8205 149.416 44.9641V117.036C149.416 119.179 148.272 121.16 146.416 122.232L84 158.268C82.1436 159.34 79.8564 159.34 78 158.268L15.584 122.232C13.7276 121.16 12.584 119.179 12.584 117.036V44.9641C12.584 42.8205 13.7276 40.8397 15.584 39.7679L78 3.73204Z" fill="url(#paint0_linear_235_20885)"/>
<path d="M100.047 68.8239C98.6938 68.0504 96.9534 68.0504 95.4064 68.8239L84.5774 75.2052L77.2292 79.2661L66.5936 85.6475C65.24 86.421 63.4996 86.421 61.9526 85.6475L53.6375 80.6197C52.2839 79.8462 51.317 78.2992 51.317 76.5589V66.8901C51.317 65.3431 52.0905 63.7961 53.6375 62.8293L61.9526 57.9949C63.3062 57.2214 65.0466 57.2214 66.5936 57.9949L74.9087 63.0226C76.2623 63.7961 77.2292 65.3431 77.2292 67.0835V73.4649L84.5774 69.2106V62.6359C84.5774 61.0889 83.8039 59.5419 82.2569 58.575L66.787 49.4864C65.4333 48.7129 63.693 48.7129 62.146 49.4864L46.2892 58.7684C44.7422 59.5419 43.9688 61.0889 43.9688 62.6359V80.8131C43.9688 82.3601 44.7422 83.9071 46.2892 84.874L61.9526 93.9626C63.3062 94.7361 65.0466 94.7361 66.5936 93.9626L77.2292 87.7746L84.5774 83.5203L95.213 77.3324C96.5667 76.5589 98.307 76.5589 99.854 77.3324L108.169 82.1667C109.523 82.9402 110.49 84.4872 110.49 86.2276V95.8963C110.49 97.4433 109.716 98.9903 108.169 99.9572L100.047 104.792C98.6938 105.565 96.9534 105.565 95.4064 104.792L87.0913 99.9572C85.7377 99.1837 84.7708 97.6367 84.7708 95.8963V89.7083L77.4226 93.9626V100.344C77.4226 101.891 78.1961 103.438 79.7431 104.405L95.4064 113.493C96.76 114.267 98.5004 114.267 100.047 113.493L115.711 104.405C117.064 103.631 118.031 102.084 118.031 100.344V81.9734C118.031 80.4264 117.258 78.8794 115.711 77.9125L100.047 68.8239Z" fill="white"/>
<defs>
<filter id="filter0_f_235_20885" x="10.0479" y="4.92819" width="141.904" height="160.144" filterUnits="userSpaceOnUse" color-interpolation-filters="sRGB">
<feFlood flood-opacity="0" result="BackgroundImageFix"/>
<feBlend mode="normal" in="SourceGraphic" in2="BackgroundImageFix" result="shape"/>
<feGaussianBlur stdDeviation="3" result="effect1_foregroundBlur_235_20885"/>
</filter>
<filter id="filter1_f_235_20885" x="0.182129" y="0.928192" width="161.636" height="180.144" filterUnits="userSpaceOnUse" color-interpolation-filters="sRGB">
<feFlood flood-opacity="0" result="BackgroundImageFix"/>
<feBlend mode="normal" in="SourceGraphic" in2="BackgroundImageFix" result="shape"/>
<feGaussianBlur stdDeviation="7.5" result="effect1_foregroundBlur_235_20885"/>
</filter>
<linearGradient id="paint0_linear_235_20885" x1="81" y1="2.92819" x2="81" y2="159.072" gradientUnits="userSpaceOnUse">
<stop stop-color="#A64ED4"/>
<stop offset="1" stop-color="#8E2FC1"/>
</linearGradient>
</defs>
</svg>
