<svg width="163" height="181" viewBox="0 0 163 181" fill="none" xmlns="http://www.w3.org/2000/svg">
<g opacity="0.3" filter="url(#filter0_f_235_20953)">
<path d="M78.4031 11.0879C80.2595 10.0161 82.5467 10.0161 84.4031 11.0879L143.355 45.1238C145.211 46.1956 146.355 48.1763 146.355 50.3199V118.392C146.355 120.535 145.211 122.516 143.355 123.588L84.4031 157.624C82.5467 158.696 80.2595 158.696 78.4031 157.624L19.4512 123.588C17.5948 122.516 16.4512 120.535 16.4512 118.392V50.3199C16.4512 48.1763 17.5948 46.1956 19.4512 45.1238L78.4031 11.0879Z" fill="#9C2921"/>
</g>
<g opacity="0.4" filter="url(#filter1_f_235_20953)">
<path d="M78.4034 16.0879C80.2598 15.0161 82.547 15.0161 84.4034 16.0879L144.221 50.6238C146.078 51.6956 147.221 53.6763 147.221 55.8199V124.892C147.221 127.035 146.078 129.016 144.221 130.088L84.4034 164.624C82.547 165.696 80.2598 165.696 78.4034 164.624L18.5855 130.088C16.729 129.016 15.5854 127.035 15.5854 124.892V55.8199C15.5854 53.6763 16.729 51.6956 18.5854 50.6238L78.4034 16.0879Z" fill="#9C2921"/>
</g>
<path d="M78.4033 3.08789C80.2597 2.01609 82.5469 2.01609 84.4033 3.08789L146.819 39.1238C148.676 40.1956 149.819 42.1763 149.819 44.3199V116.392C149.819 118.535 148.676 120.516 146.819 121.588L84.4033 157.624C82.5469 158.696 80.2597 158.696 78.4033 157.624L15.9873 121.588C14.1309 120.516 12.9873 118.535 12.9873 116.392V44.3199C12.9873 42.1763 14.1309 40.1956 15.9873 39.1238L78.4033 3.08789Z" fill="url(#paint0_linear_235_20953)"/>
<path d="M62.5465 97.189C59.0167 97.189 56.1265 96.3598 53.876 94.7015C51.6491 93.0195 50.5356 90.6031 50.5356 87.4997C50.5356 86.8364 50.6067 86.0546 50.7489 85.107C51.1279 82.9749 51.6728 80.4164 52.3835 77.4077C54.3971 69.2583 59.609 65.1837 67.9953 65.1837C70.2695 65.1837 72.3305 65.5627 74.131 66.3445C75.9314 67.0789 77.3529 68.216 78.3952 69.7322C79.4376 71.2246 79.9588 73.0014 79.9588 75.0624C79.9588 75.6784 79.8877 76.4601 79.7456 77.4077C79.2954 80.0374 78.7743 82.6196 78.1346 85.107C77.0923 89.158 75.3155 92.2141 72.757 94.2277C70.2221 96.2177 66.8108 97.189 62.5465 97.189ZM63.1862 90.7927C64.8445 90.7927 66.2422 90.2952 67.403 89.3239C68.5875 88.3526 69.4404 86.8601 69.9378 84.8228C70.6249 82.0273 71.146 79.6109 71.5014 77.5262C71.6198 76.9103 71.6909 76.2706 71.6909 75.6073C71.6909 72.9066 70.2932 71.5563 67.4741 71.5563C65.8158 71.5563 64.3944 72.0538 63.2099 73.0251C62.049 73.9964 61.2199 75.4888 60.7224 77.5262C60.1775 79.5162 59.6563 81.9326 59.1115 84.8228C58.993 85.415 58.9219 86.031 58.9219 86.6943C58.8983 89.4423 60.3434 90.7927 63.1862 90.7927Z" fill="white"/>
<path d="M82.0196 96.7625C81.6879 96.7625 81.451 96.6678 81.2615 96.4546C81.1193 96.2177 81.0719 95.9571 81.1193 95.6491L87.2551 66.7472C87.3024 66.4155 87.4683 66.1549 87.7526 65.9417C88.0132 65.7285 88.2974 65.6337 88.6054 65.6337H100.427C103.72 65.6337 106.349 66.3207 108.339 67.6711C110.353 69.0451 111.372 71.0114 111.372 73.5936C111.372 74.328 111.277 75.1098 111.111 75.9152C110.377 79.3266 108.884 81.8378 106.61 83.4724C104.383 85.107 101.327 85.9125 97.4418 85.9125H91.4482L89.4109 95.6491C89.3398 95.9808 89.1977 96.2413 88.9134 96.4546C88.6528 96.6678 88.3685 96.7625 88.0605 96.7625H82.0196ZM97.7498 79.7767C99.0054 79.7767 100.071 79.4451 100.995 78.758C101.943 78.071 102.559 77.0997 102.867 75.8205C102.962 75.323 103.009 74.8729 103.009 74.4938C103.009 73.641 102.748 72.9777 102.251 72.5275C101.753 72.0537 100.877 71.8168 99.6687 71.8168H94.3384L92.6564 79.7767H97.7498Z" fill="white"/>
<defs>
<filter id="filter0_f_235_20953" x="10.4512" y="4.28404" width="141.904" height="160.144" filterUnits="userSpaceOnUse" color-interpolation-filters="sRGB">
<feFlood flood-opacity="0" result="BackgroundImageFix"/>
<feBlend mode="normal" in="SourceGraphic" in2="BackgroundImageFix" result="shape"/>
<feGaussianBlur stdDeviation="3" result="effect1_foregroundBlur_235_20953"/>
</filter>
<filter id="filter1_f_235_20953" x="0.585449" y="0.284042" width="161.636" height="180.144" filterUnits="userSpaceOnUse" color-interpolation-filters="sRGB">
<feFlood flood-opacity="0" result="BackgroundImageFix"/>
<feBlend mode="normal" in="SourceGraphic" in2="BackgroundImageFix" result="shape"/>
<feGaussianBlur stdDeviation="7.5" result="effect1_foregroundBlur_235_20953"/>
</filter>
<linearGradient id="paint0_linear_235_20953" x1="81.4033" y1="2.28404" x2="81.4033" y2="158.428" gradientUnits="userSpaceOnUse">
<stop stop-color="#D9534A"/>
<stop offset="1" stop-color="#C6342A"/>
</linearGradient>
</defs>
</svg>
