<svg width="162" height="181" viewBox="0 0 162 181" fill="none" xmlns="http://www.w3.org/2000/svg">
<g opacity="0.3" filter="url(#filter0_f_235_20940)">
<path d="M77.9998 11.0878C79.8562 10.016 82.1433 10.016 83.9998 11.0878L142.952 45.1237C144.808 46.1955 145.952 48.1762 145.952 50.3198V118.392C145.952 120.535 144.808 122.516 142.952 123.588L83.9998 157.624C82.1433 158.695 79.8562 158.695 77.9998 157.624L19.0479 123.588C17.1914 122.516 16.0479 120.535 16.0479 118.392V50.3198C16.0479 48.1762 17.1914 46.1955 19.0479 45.1237L77.9998 11.0878Z" fill="#194327"/>
</g>
<g opacity="0.4" filter="url(#filter1_f_235_20940)">
<path d="M78.0001 16.0878C79.8565 15.016 82.1437 15.016 84.0001 16.0878L143.818 50.6237C145.674 51.6955 146.818 53.6762 146.818 55.8198V124.892C146.818 127.035 145.674 129.016 143.818 130.088L84.0001 164.624C82.1437 165.695 79.8565 165.695 78.0001 164.624L18.1821 130.088C16.3257 129.016 15.1821 127.035 15.1821 124.892V55.8198C15.1821 53.6762 16.3257 51.6955 18.1821 50.6237L78.0001 16.0878Z" fill="#194327"/>
</g>
<path d="M78 3.08777C79.8564 2.01597 82.1436 2.01597 84 3.08777L146.416 39.1237C148.272 40.1955 149.416 42.1762 149.416 44.3198V116.392C149.416 118.535 148.272 120.516 146.416 121.588L84 157.624C82.1436 158.695 79.8564 158.695 78 157.624L15.584 121.588C13.7276 120.516 12.584 118.535 12.584 116.392V44.3198C12.584 42.1762 13.7276 40.1955 15.584 39.1237L78 3.08777Z" fill="url(#paint0_linear_235_20940)"/>
<path d="M71.5386 50.9228C62.1023 52.2505 54.3256 57.7511 50.295 66.0019C48.0189 70.649 47.6869 72.5931 47.4498 83.4521C47.3076 91.4184 47.4024 94.1687 47.8292 94.6903C48.4456 95.449 54.6575 95.7335 55.7481 95.0222C56.1275 94.7851 56.3172 91.4658 56.4594 84.2582C56.6491 72.5931 56.8862 71.6448 60.2529 67.0452C62.4816 64.0578 64.9948 62.161 68.646 60.691C71.2541 59.6478 71.8231 59.6478 92.4029 59.5056C104.02 59.4107 113.694 59.3633 113.884 59.3633C114.073 59.3633 114.168 57.3717 114.121 54.9534L113.978 50.5908L94.2996 50.5434C83.4881 50.496 73.2457 50.6383 71.5386 50.9228Z" fill="white"/>
<path d="M72.6287 66.0019C68.6929 66.808 65.5159 69.3212 63.7614 73.1147C62.8604 75.0115 62.7656 76.3392 62.6233 85.3014L62.4337 95.4016H74.81C83.2505 95.4016 87.2337 95.2593 87.4708 94.88C87.6605 94.5954 84.5308 91.1339 80.1209 86.7713C72.2494 78.9472 71.5381 77.904 73.2451 76.2444C73.8616 75.5805 76.0429 75.4857 89.652 75.4857H105.3L105.111 81.5079C104.968 86.8662 104.826 87.9094 103.688 90.2803C101.934 94.0738 98.6142 97.4406 94.8207 99.3373L91.6911 100.855L69.5465 100.997L47.3545 101.139V105.834V110.576H66.7014C91.9756 110.576 95.2 110.149 101.696 105.881C106.912 102.514 110.706 97.7251 112.887 91.7977C113.836 89.2371 113.978 87.9568 114.12 77.2402L114.31 65.5277L94.4413 65.5751C83.535 65.6226 73.7193 65.8122 72.6287 66.0019Z" fill="white"/>
<defs>
<filter id="filter0_f_235_20940" x="10.0479" y="4.28392" width="141.904" height="160.144" filterUnits="userSpaceOnUse" color-interpolation-filters="sRGB">
<feFlood flood-opacity="0" result="BackgroundImageFix"/>
<feBlend mode="normal" in="SourceGraphic" in2="BackgroundImageFix" result="shape"/>
<feGaussianBlur stdDeviation="3" result="effect1_foregroundBlur_235_20940"/>
</filter>
<filter id="filter1_f_235_20940" x="0.182129" y="0.28392" width="161.636" height="180.144" filterUnits="userSpaceOnUse" color-interpolation-filters="sRGB">
<feFlood flood-opacity="0" result="BackgroundImageFix"/>
<feBlend mode="normal" in="SourceGraphic" in2="BackgroundImageFix" result="shape"/>
<feGaussianBlur stdDeviation="7.5" result="effect1_foregroundBlur_235_20940"/>
</filter>
<linearGradient id="paint0_linear_235_20940" x1="81" y1="2.28392" x2="81" y2="158.428" gradientUnits="userSpaceOnUse">
<stop stop-color="#3FA862"/>
<stop offset="1" stop-color="#348D52"/>
</linearGradient>
</defs>
</svg>
