<svg width="160" height="177" viewBox="0 0 160 177" fill="none" xmlns="http://www.w3.org/2000/svg">
<g opacity="0.3" filter="url(#filter0_f_235_20536)">
<path d="M77.018 9.08833C78.5582 8.20391 80.4523 8.20392 81.9926 9.08833L142.967 44.0996C144.518 44.9903 145.475 46.6426 145.475 48.4314V118.407C145.475 120.195 144.518 121.848 142.967 122.738L81.9926 157.75C80.4523 158.634 78.5582 158.634 77.018 157.75L16.0434 122.738C14.4922 121.848 13.5356 120.195 13.5356 118.407V48.4314C13.5356 46.6426 14.4922 44.9903 16.0434 44.0996L77.018 9.08833Z" fill="#931A42"/>
</g>
<g opacity="0.4" filter="url(#filter1_f_235_20536)">
<path d="M77.0176 13.2511C78.558 12.3666 80.4521 12.3666 81.9925 13.251L143.688 48.6784C145.239 49.5692 146.196 51.2214 146.196 53.0101V123.818C146.196 125.607 145.239 127.259 143.688 128.15L81.9925 163.577C80.4521 164.462 78.558 164.462 77.0176 163.577L15.3221 128.15C13.7709 127.259 12.8145 125.607 12.8145 123.818V53.0102C12.8145 51.2214 13.7709 49.5692 15.3221 48.6784L77.0176 13.2511Z" fill="#931A42"/>
</g>
<path d="M77.0172 2.42882C78.5577 1.54407 80.4521 1.54407 81.9926 2.42882L145.851 39.1045C147.402 39.9953 148.358 41.6474 148.358 43.436V116.742C148.358 118.531 147.402 120.183 145.851 121.074L81.9926 157.749C80.4521 158.634 78.5577 158.634 77.0172 157.749L13.1587 121.074C11.6077 120.183 10.6514 118.531 10.6514 116.742V43.436C10.6514 41.6474 11.6077 39.9953 13.1587 39.1045L77.0172 2.42882Z" fill="url(#paint0_linear_235_20536)"/>
<path d="M114.085 98.4967L102.585 110.565C102.335 110.827 102.032 111.036 101.696 111.179C101.36 111.322 100.998 111.395 100.631 111.395H46.1173C45.8571 111.395 45.6027 111.321 45.3852 111.181C45.1677 111.041 44.9965 110.843 44.8929 110.609C44.7892 110.376 44.7575 110.118 44.8016 109.867C44.8457 109.616 44.9637 109.383 45.1412 109.197L56.6495 97.1294C56.8988 96.8679 57.2003 96.6593 57.5353 96.5165C57.8704 96.3737 58.2318 96.2997 58.5973 96.2991H113.108C113.368 96.2991 113.623 96.3735 113.84 96.513C114.058 96.6526 114.229 96.8513 114.333 97.0847C114.436 97.3182 114.468 97.5761 114.424 97.827C114.38 98.0778 114.262 98.3106 114.085 98.4967ZM102.585 74.1951C102.335 73.933 102.032 73.724 101.696 73.5811C101.36 73.4383 100.998 73.3647 100.631 73.3649H46.1173C45.8571 73.3649 45.6027 73.4392 45.3852 73.5788C45.1677 73.7184 44.9965 73.9171 44.8929 74.1505C44.7892 74.384 44.7575 74.642 44.8016 74.8928C44.8457 75.1436 44.9637 75.3764 45.1412 75.5625L56.6495 87.6306C56.8988 87.892 57.2003 88.1005 57.5353 88.2434C57.8704 88.3862 58.2318 88.4602 58.5973 88.4608H113.108C113.368 88.4608 113.623 88.3864 113.84 88.2469C114.058 88.1073 114.229 87.9086 114.333 87.6752C114.436 87.4417 114.468 87.1837 114.424 86.9329C114.38 86.6821 114.262 86.4493 114.085 86.2632L102.585 74.1951ZM46.1173 65.5266H100.631C100.998 65.5268 101.36 65.4532 101.696 65.3103C102.032 65.1675 102.335 64.9585 102.585 64.6963L114.085 52.6283C114.262 52.4422 114.38 52.2094 114.424 51.9586C114.468 51.7077 114.436 51.4498 114.333 51.2163C114.229 50.9829 114.058 50.7842 113.84 50.6446C113.623 50.505 113.368 50.4307 113.108 50.4307H58.5973C58.2318 50.4313 57.8704 50.5053 57.5353 50.6481C57.2003 50.7909 56.8988 50.9995 56.6495 51.2609L45.1441 63.329C44.9668 63.5149 44.8489 63.7474 44.8047 63.9979C44.7604 64.2485 44.7919 64.5063 44.8952 64.7396C44.9986 64.9729 45.1692 65.1716 45.3863 65.3114C45.6034 65.4512 45.8574 65.526 46.1173 65.5266Z" fill="white"/>
<defs>
<filter id="filter0_f_235_20536" x="8.54055" y="3.42993" width="141.93" height="159.978" filterUnits="userSpaceOnUse" color-interpolation-filters="sRGB">
<feFlood flood-opacity="0" result="BackgroundImageFix"/>
<feBlend mode="normal" in="SourceGraphic" in2="BackgroundImageFix" result="shape"/>
<feGaussianBlur stdDeviation="2.49755" result="effect1_foregroundBlur_235_20536"/>
</filter>
<filter id="filter1_f_235_20536" x="0.326723" y="0.099947" width="158.357" height="176.628" filterUnits="userSpaceOnUse" color-interpolation-filters="sRGB">
<feFlood flood-opacity="0" result="BackgroundImageFix"/>
<feBlend mode="normal" in="SourceGraphic" in2="BackgroundImageFix" result="shape"/>
<feGaussianBlur stdDeviation="6.24387" result="effect1_foregroundBlur_235_20536"/>
</filter>
<linearGradient id="paint0_linear_235_20536" x1="79.5049" y1="1.76526" x2="79.5049" y2="158.413" gradientUnits="userSpaceOnUse">
<stop stop-color="#E3638E"/>
<stop offset="1" stop-color="#DC386E"/>
</linearGradient>
</defs>
</svg>
