<svg width="160" height="177" viewBox="0 0 160 177" fill="none" xmlns="http://www.w3.org/2000/svg">
<g opacity="0.3" filter="url(#filter0_f_235_20553)">
<path d="M77.7738 9.08556C79.313 8.20273 81.2051 8.20272 82.7443 9.08555L143.714 44.0555C145.267 44.9459 146.224 46.5988 146.224 48.3885V118.272C146.224 120.061 145.267 121.714 143.714 122.605L82.7443 157.575C81.2051 158.457 79.313 158.457 77.7738 157.575L16.8038 122.605C15.2514 121.714 14.2939 120.061 14.2939 118.272V48.3885C14.2939 46.5989 15.2514 44.9459 16.8038 44.0555L77.7738 9.08556Z" fill="#194327"/>
</g>
<g opacity="0.4" filter="url(#filter1_f_235_20553)">
<path d="M77.774 13.2483C79.3132 12.3654 81.2054 12.3654 82.7447 13.2483L144.436 48.6343C145.988 49.5248 146.945 51.1776 146.945 52.9672V123.683C146.945 125.473 145.988 127.126 144.436 128.016L82.7447 163.402C81.2054 164.285 79.3132 164.285 77.774 163.402L16.083 128.016C14.5306 127.126 13.5732 125.473 13.5732 123.683V52.9672C13.5732 51.1776 14.5306 49.5248 16.083 48.6343L77.774 13.2483Z" fill="#194327"/>
</g>
<path d="M77.7734 2.42612C79.3129 1.5429 81.2054 1.5429 82.7449 2.42612L146.599 39.0603C148.151 39.9508 149.108 41.6036 149.108 43.393V116.607C149.108 118.396 148.151 120.049 146.599 120.94L82.7449 157.574C81.2054 158.457 79.3129 158.457 77.7734 157.574L13.9195 120.94C12.3674 120.049 11.4102 118.396 11.4102 116.607V43.393C11.4102 41.6036 12.3674 39.9508 13.9195 39.0603L77.7734 2.42612Z" fill="url(#paint0_linear_235_20553)"/>
<path fill-rule="evenodd" clip-rule="evenodd" d="M105.612 70.227L105.547 64.7864L104.562 64.177C104.016 63.8288 98.3073 60.5209 91.8772 56.8213C85.447 53.1217 80.023 50.0968 79.848 50.1185C79.345 50.1185 69.9841 55.5809 69.6998 56.0379C69.5467 56.2773 69.5248 56.5167 69.6779 56.7561C69.8091 56.9302 75.4082 60.238 82.1445 64.1117L94.3923 71.141L94.458 75.994C94.5017 80.8688 94.6111 81.4346 95.3109 81.4346C95.5078 81.4346 97.8917 80.1289 100.647 78.562L105.656 75.6676L105.612 70.227ZM73.5054 65.4393C73.3741 65.2652 71.0995 63.8941 68.475 62.3925C65.8505 60.8909 63.5103 59.6722 63.2915 59.694C63.0728 59.694 60.9295 60.8474 58.5236 62.2619L54.1494 64.8081L54.0838 79.7372L54.04 94.6662L58.8517 97.43C61.4981 98.9533 63.8602 100.237 64.1008 100.303C64.3099 100.36 64.479 100.418 64.6158 100.375C65.2088 100.189 65.1943 98.0915 65.1943 85.6783C65.1943 72.425 65.2162 71.4674 65.588 71.1628C65.7849 70.9887 67.6658 69.8788 69.7217 68.6818C71.8213 67.4849 73.571 66.3533 73.6366 66.1356C73.7022 65.918 73.6366 65.6134 73.5054 65.4393ZM105.656 88.7468C105.656 84.4378 105.59 82.7621 105.394 82.5663C105.24 82.4139 105.022 82.3051 104.912 82.3051C104.781 82.3269 102.222 83.7414 99.204 85.4824C87.3061 92.3593 80.1105 96.4507 79.8918 96.4507C79.7824 96.4507 77.8796 95.4278 75.6706 94.1656C73.4616 92.9034 71.4932 91.8806 71.3183 91.8806C70.4872 91.8806 70.4434 92.2505 70.4434 98.0611C70.4434 101.195 70.5309 103.85 70.6184 103.98C70.9465 104.481 79.6949 109.334 80.0667 109.225C80.2854 109.182 86.125 105.874 93.0582 101.891L105.656 94.6662V88.7468Z" fill="white"/>
<defs>
<filter id="filter0_f_235_20553" x="9.29885" y="3.42834" width="141.92" height="159.803" filterUnits="userSpaceOnUse" color-interpolation-filters="sRGB">
<feFlood flood-opacity="0" result="BackgroundImageFix"/>
<feBlend mode="normal" in="SourceGraphic" in2="BackgroundImageFix" result="shape"/>
<feGaussianBlur stdDeviation="2.49755" result="effect1_foregroundBlur_235_20553"/>
</filter>
<filter id="filter1_f_235_20553" x="1.08551" y="0.0983601" width="158.348" height="176.454" filterUnits="userSpaceOnUse" color-interpolation-filters="sRGB">
<feFlood flood-opacity="0" result="BackgroundImageFix"/>
<feBlend mode="normal" in="SourceGraphic" in2="BackgroundImageFix" result="shape"/>
<feGaussianBlur stdDeviation="6.24387" result="effect1_foregroundBlur_235_20553"/>
</filter>
<linearGradient id="paint0_linear_235_20553" x1="80.2592" y1="1.7637" x2="80.2592" y2="158.236" gradientUnits="userSpaceOnUse">
<stop stop-color="#3FA862"/>
<stop offset="1" stop-color="#348D52"/>
</linearGradient>
</defs>
</svg>
