<svg width="159" height="177" viewBox="0 0 159 177" fill="none" xmlns="http://www.w3.org/2000/svg">
<g opacity="0.3" filter="url(#filter0_f_235_20681)">
<path d="M76.5023 9.4578C78.0478 8.56551 79.9519 8.56551 81.4974 9.4578L142.034 44.4088C143.58 45.3011 144.532 46.9501 144.532 48.7347V118.637C144.532 120.421 143.58 122.07 142.034 122.963L81.4974 157.914C79.9519 158.806 78.0478 158.806 76.5023 157.914L15.9653 122.963C14.4198 122.07 13.4678 120.421 13.4678 118.637V48.7347C13.4678 46.9501 14.4198 45.3011 15.9653 44.4088L76.5023 9.4578Z" fill="#0B0BCB"/>
</g>
<g opacity="0.4" filter="url(#filter1_f_235_20681)">
<path d="M76.5026 13.6204C78.0481 12.7281 79.9522 12.7281 81.4977 13.6204L142.756 48.9877C144.301 49.88 145.253 51.529 145.253 53.3136V124.048C145.253 125.833 144.301 127.482 142.756 128.374L81.4977 163.741C79.9522 164.634 78.0481 164.634 76.5026 163.741L15.2446 128.374C13.6991 127.482 12.7471 125.833 12.7471 124.048V53.3136C12.7471 51.529 13.6991 49.88 15.2446 48.9877L76.5026 13.6204Z" fill="#0B0BCB"/>
</g>
<path d="M76.5024 2.79767C78.0479 1.90538 79.952 1.90538 81.4975 2.79767L144.918 39.4138C146.464 40.306 147.416 41.9551 147.416 43.7396V116.972C147.416 118.756 146.464 120.405 144.918 121.298L81.4975 157.914C79.952 158.806 78.0479 158.806 76.5024 157.914L13.0815 121.298C11.536 120.405 10.584 118.756 10.584 116.972V43.7396C10.584 41.9551 11.536 40.306 13.0815 39.4138L76.5024 2.79767Z" fill="url(#paint0_linear_235_20681)"/>
<path d="M69.8405 48.1736C63.0057 52.1031 60.3254 53.666 58.1364 54.8716C57.377 55.3182 55.9028 56.1666 54.92 56.7917C53.9373 57.4615 52.9098 57.9527 52.6864 57.9527C52.4631 57.9527 52.1951 58.0867 52.1057 58.2653C52.0164 58.4886 51.1676 59.0691 50.1848 59.6049C49.202 60.0961 47.9512 61.2124 47.4152 62.0162C46.3877 63.4451 46.3877 63.4898 46.3877 81.2173V99.034L48.3086 99.9718C49.336 100.508 50.7209 101.311 51.391 101.758C52.9098 102.83 53.8479 102.83 54.2053 101.713C54.3393 101.222 54.652 100.82 54.8754 100.82C55.0541 100.82 55.3668 100.329 55.5008 99.7038C55.6795 99.0787 55.9922 98.5875 56.2155 98.5875C56.4836 98.5875 56.6622 98.4089 56.6622 98.141C56.6622 97.9177 58.2704 95.2385 60.236 92.202C62.2016 89.1656 63.8098 86.4417 63.8098 86.1738C63.8098 85.8612 63.9885 85.638 64.1671 85.638C64.3458 85.638 65.2839 84.2984 66.2667 82.6015C67.2495 80.9493 69.4384 77.377 71.1806 74.6978C74.7991 69.1161 76.7646 65.8118 76.7646 65.4099C76.7646 64.874 70.5106 65.0527 68.545 65.6332C66.1774 66.303 64.7479 67.3746 63.363 69.5627C58.7172 76.8859 51.9717 87.2901 51.659 87.6474C51.4803 87.8706 51.3016 82.7355 51.3016 76.2161V64.4275L56.7516 61.3018C59.6999 59.5603 63.095 57.6402 64.2118 57.015C67.5175 55.1842 68.5003 54.6037 68.7237 54.3804C68.8577 54.2465 69.4384 53.8893 70.0638 53.5767C71.3147 52.9962 73.0569 51.9691 75.4691 50.4509C77.5687 49.156 79.3109 49.2006 81.3212 50.5849C82.2146 51.21 83.1974 51.7012 83.4208 51.7012C83.6888 51.7012 83.9122 51.8798 83.9122 52.1031C83.9122 52.3264 84.2695 52.5943 84.7162 52.7283C85.1183 52.8622 86.5925 53.6213 87.9326 54.4251C89.2728 55.2289 91.3277 56.3899 92.4445 57.015C93.5613 57.6402 96.9564 59.5603 99.9047 61.3018L105.355 64.4275V76.6626C105.355 83.4053 105.265 88.8084 105.131 88.6744C104.997 88.5404 102.004 83.9411 98.4752 78.4487C92.7125 69.4287 91.0597 67.2407 91.0597 68.6249C91.0597 68.8929 89.9429 70.9469 88.558 73.2243C86.3244 76.9752 86.1457 77.4664 86.6818 78.3148C87.7986 80.1009 94.4547 90.6392 97.1351 95.0152L99.9047 99.3913L98.7432 99.9271C97.8945 100.284 97.4924 100.284 97.4031 99.9718C97.3137 99.7038 96.9564 99.168 96.599 98.8554C96.2416 98.4982 95.9736 98.0963 95.9736 97.9177C95.9736 97.5605 94.0527 94.8366 93.6506 94.658C93.4273 94.5687 93.2933 94.2115 93.2933 93.8989C93.2933 93.5416 93.0252 93.0058 92.7125 92.6932C92.3998 92.3807 91.5511 91.0857 90.8363 89.8801C90.1216 88.6298 88.4687 85.9505 87.1285 83.8965L84.6716 80.1456L83.8675 81.2173C83.4208 81.7978 82.706 83.0034 82.2593 83.8518C81.8126 84.7002 81.3212 85.4593 81.1425 85.5487C80.9191 85.638 80.7851 85.9059 80.7851 86.1292C80.7851 86.3971 80.2937 87.3348 79.6683 88.2279C79.0429 89.1209 78.5515 90.148 78.5515 90.5052C78.5515 90.8624 80.6511 94.4347 83.2421 98.4535C85.833 102.472 87.9326 105.911 87.9326 106.089C87.9326 106.268 87.3966 106.67 86.7265 106.938C86.0117 107.25 84.5822 108.009 83.4654 108.679C78.3728 111.805 77.9261 111.85 74.9778 109.751C74.263 109.26 73.5036 108.858 73.2355 108.858C72.9675 108.858 72.7442 108.679 72.7442 108.456C72.7442 108.233 72.3868 107.965 71.9847 107.831C71.1806 107.563 67.4729 105.553 67.1155 105.152C66.9815 105.062 68.2323 102.785 69.8405 100.15C71.4487 97.5158 72.7442 95.1938 72.7442 94.9706C72.7442 94.7473 72.9675 94.5687 73.1909 94.5687C73.4589 94.5687 73.6376 94.3901 73.6376 94.1221C73.6376 93.8989 74.531 92.2467 75.6032 90.4605C80.1597 82.8694 82.1253 79.3865 82.1253 78.9399C82.1253 78.7167 82.3486 78.4934 82.572 78.4934C82.84 78.4934 83.0187 78.1808 83.0187 77.8236C83.0187 77.4664 83.2421 77.1538 83.4654 77.1538C83.7335 77.1538 83.9122 76.9752 83.9122 76.7519C83.9122 76.5286 85.2076 74.2066 86.7712 71.6167C91.0597 64.5615 91.2384 65.0973 84.8056 65.0973C79.445 65.0973 79.4003 65.0973 78.9982 66.2583C78.7302 66.8834 77.9708 68.2231 77.256 69.2501C76.5413 70.2771 75.0671 72.6438 73.995 74.4746C72.0294 77.7343 69.7958 81.3959 62.0229 94.1221C55.2327 105.196 55.6348 104.437 56.6622 104.705C57.1536 104.839 57.5557 105.107 57.5557 105.286C57.5557 105.464 57.9131 105.732 58.3598 105.866C59.1192 106.134 63.6311 108.635 64.4798 109.304C64.7479 109.483 65.8647 110.153 67.0261 110.778C68.1876 111.448 70.7786 112.877 72.7442 113.993C77.7474 116.851 79.2216 116.806 84.7609 113.546C87.0392 112.207 89.0048 111.091 89.0941 111.091C89.2281 111.091 90.1216 110.555 91.1043 109.93C92.7125 108.947 94.9015 107.697 97.9838 106C98.4752 105.732 98.9666 105.42 99.1006 105.286C99.2793 105.107 100.843 104.214 103.344 102.874C103.836 102.606 104.327 102.294 104.461 102.16C104.595 102.026 105.444 101.535 106.427 101.043C107.365 100.552 108.616 99.5252 109.196 98.7661L110.269 97.3819V80.2349V63.0879L108.884 61.3911C108.124 60.498 107.32 59.7389 107.052 59.7389C106.829 59.7389 106.069 59.337 105.399 58.8905C104.774 58.3993 103.3 57.5508 102.228 56.9704C101.111 56.3452 99.5027 55.4521 98.6539 54.9609C97.8051 54.4698 96.1076 53.532 94.8568 52.8622C93.6506 52.1478 92.4445 51.4333 92.1765 51.2547C91.9531 51.0761 90.8363 50.4063 89.7195 49.8258C88.6027 49.2006 86.0564 47.7717 84.0908 46.6107C78.6409 43.5296 77.7027 43.6189 69.8405 48.1736Z" fill="white"/>
<defs>
<filter id="filter0_f_235_20681" x="8.47268" y="3.79349" width="141.054" height="159.785" filterUnits="userSpaceOnUse" color-interpolation-filters="sRGB">
<feFlood flood-opacity="0" result="BackgroundImageFix"/>
<feBlend mode="normal" in="SourceGraphic" in2="BackgroundImageFix" result="shape"/>
<feGaussianBlur stdDeviation="2.49755" result="effect1_foregroundBlur_235_20681"/>
</filter>
<filter id="filter1_f_235_20681" x="0.25934" y="0.463427" width="157.482" height="176.435" filterUnits="userSpaceOnUse" color-interpolation-filters="sRGB">
<feFlood flood-opacity="0" result="BackgroundImageFix"/>
<feBlend mode="normal" in="SourceGraphic" in2="BackgroundImageFix" result="shape"/>
<feGaussianBlur stdDeviation="6.24387" result="effect1_foregroundBlur_235_20681"/>
</filter>
<linearGradient id="paint0_linear_235_20681" x1="79" y1="2.12846" x2="79" y2="158.583" gradientUnits="userSpaceOnUse">
<stop stop-color="#7878F8"/>
<stop offset="1" stop-color="#4747F5"/>
</linearGradient>
</defs>
</svg>
