<svg width="92" height="92" viewBox="0 0 92 92" fill="none" xmlns="http://www.w3.org/2000/svg">
<path d="M78.7898 10.856L50.3701 31.9636L55.6256 19.5104L78.7898 10.856Z" fill="#E2761B" stroke="#E2761B" stroke-linecap="round" stroke-linejoin="round"/>
<path d="M13.1817 10.856L41.3728 32.1636L36.3744 19.5104L13.1817 10.856ZM68.5643 59.7835L60.9952 71.3798L77.1902 75.8356L81.8458 60.0405L68.5643 59.7835ZM10.1826 60.0405L14.8097 75.8356L31.0047 71.3798L23.4356 59.7835L10.1826 60.0405Z" fill="#E4761B" stroke="#E4761B" stroke-linecap="round" stroke-linejoin="round"/>
<path d="M30.0905 40.1897L25.5776 47.0162L41.6583 47.7302L41.0871 30.4499L30.0905 40.1897ZM61.8805 40.1897L50.7412 30.25L50.3699 47.7302L66.4219 47.0162L61.8805 40.1897ZM31.0045 71.3799L40.6586 66.6671L32.3184 60.1549L31.0045 71.3799ZM51.3124 66.6671L60.9951 71.3799L59.6526 60.1549L51.3124 66.6671Z" fill="#E4761B" stroke="#E4761B" stroke-linecap="round" stroke-linejoin="round"/>
<path d="M60.9955 71.3798L51.3128 66.667L52.084 72.9793L51.9983 75.6356L60.9955 71.3798ZM31.0049 71.3798L40.0021 75.6356L39.9449 72.9793L40.659 66.667L31.0049 71.3798Z" fill="#D7C1B3" stroke="#D7C1B3" stroke-linecap="round" stroke-linejoin="round"/>
<path d="M40.1445 55.9845L32.0898 53.6138L37.7738 51.0146L40.1445 55.9845ZM51.8265 55.9845L54.1972 51.0146L59.9097 53.6138L51.8265 55.9845Z" fill="#233447" stroke="#233447" stroke-linecap="round" stroke-linejoin="round"/>
<path d="M31.0046 71.3799L32.3756 59.7835L23.4355 60.0406L31.0046 71.3799ZM59.6242 59.7835L60.9952 71.3799L68.5642 60.0406L59.6242 59.7835ZM66.422 47.0161L50.3699 47.7302L51.8552 55.9847L54.2259 51.0149L59.9384 53.614L66.422 47.0161ZM32.09 53.614L37.8025 51.0149L40.1446 55.9847L41.6584 47.7302L25.5777 47.0161L32.09 53.614Z" fill="#CD6116" stroke="#CD6116" stroke-linecap="round" stroke-linejoin="round"/>
<path d="M25.5776 47.0161L32.3184 60.1548L32.0899 53.614L25.5776 47.0161ZM59.9383 53.614L59.6526 60.1548L66.4219 47.0161L59.9383 53.614ZM41.6583 47.7302L40.1445 55.9847L42.0296 65.7245L42.458 52.9L41.6583 47.7302ZM50.3699 47.7302L49.5987 52.8714L49.9414 65.7245L51.8551 55.9847L50.3699 47.7302Z" fill="#E4751F" stroke="#E4751F" stroke-linecap="round" stroke-linejoin="round"/>
<path d="M51.8551 55.9845L49.9414 65.7243L51.3124 66.6668L59.6526 60.1546L59.9382 53.6138L51.8551 55.9845ZM32.0898 53.6138L32.3183 60.1546L40.6586 66.6668L42.0296 65.7243L40.1445 55.9845L32.0898 53.6138Z" fill="#F6851B" stroke="#F6851B" stroke-linecap="round" stroke-linejoin="round"/>
<path d="M51.9983 75.6357L52.084 72.9794L51.3699 72.351H40.6019L39.9449 72.9794L40.0021 75.6357L31.0049 71.3799L34.1468 73.9505L40.5162 78.3777H51.4556L57.8536 73.9505L60.9955 71.3799L51.9983 75.6357Z" fill="#C0AD9E" stroke="#C0AD9E" stroke-linecap="round" stroke-linejoin="round"/>
<path d="M51.3127 66.6672L49.9417 65.7246H42.0299L40.6589 66.6672L39.9448 72.9795L40.6018 72.3511H51.3698L52.0839 72.9795L51.3127 66.6672Z" fill="#161616" stroke="#161616" stroke-linecap="round" stroke-linejoin="round"/>
<path d="M79.9895 33.3346L82.4173 21.6811L78.7898 10.856L51.3128 31.2496L61.8809 40.1896L76.819 44.5597L80.1323 40.7037L78.7042 39.6755L80.9892 37.5904L79.2183 36.2194L81.5033 34.4771L79.9895 33.3346ZM9.58301 21.6811L12.0108 33.3346L10.4684 34.4771L12.7534 36.2194L11.0111 37.5904L13.2961 39.6755L11.868 40.7037L15.1527 44.5597L30.0909 40.1896L40.659 31.2496L13.1819 10.856L9.58301 21.6811Z" fill="#763D16" stroke="#763D16" stroke-linecap="round" stroke-linejoin="round"/>
<path d="M76.8188 44.5595L61.8807 40.1895L66.4221 47.0159L59.6528 60.1546L68.5643 60.0404H81.8458L76.8188 44.5595ZM30.0907 40.1895L15.1525 44.5595L10.1826 60.0404H23.4356L32.3185 60.1546L25.5778 47.0159L30.0907 40.1895ZM50.37 47.73L51.3126 31.2494L55.6541 19.5103H36.3744L40.6588 31.2494L41.6585 47.73L42.0012 52.9283L42.0298 65.7243H49.9416L49.9987 52.9283L50.37 47.73Z" fill="#F6851B" stroke="#F6851B" stroke-linecap="round" stroke-linejoin="round"/>
</svg>
