<svg width="160" height="177" viewBox="0 0 160 177" fill="none" xmlns="http://www.w3.org/2000/svg">
<g opacity="0.3" filter="url(#filter0_f_235_20583)">
<path d="M77.0145 9.4415C78.5538 8.55867 80.4458 8.55866 81.985 9.44149L142.955 44.4115C144.507 45.3019 145.465 46.9548 145.465 48.7444V118.628C145.465 120.417 144.507 122.07 142.955 122.961L81.985 157.931C80.4458 158.813 78.5538 158.813 77.0146 157.931L16.0445 122.961C14.4921 122.07 13.5347 120.417 13.5347 118.628V48.7444C13.5347 46.9548 14.4921 45.3019 16.0445 44.4115L77.0145 9.4415Z" fill="#521B6F"/>
</g>
<g opacity="0.4" filter="url(#filter1_f_235_20583)">
<path d="M77.0147 13.6043C78.554 12.7213 80.4461 12.7213 81.9854 13.6043L143.676 48.9903C145.229 49.8807 146.186 51.5336 146.186 53.3232V124.039C146.186 125.829 145.229 127.481 143.676 128.372L81.9854 163.758C80.4461 164.641 78.554 164.641 77.0147 163.758L15.3237 128.372C13.7714 127.481 12.814 125.829 12.814 124.039V53.3232C12.814 51.5336 13.7713 49.8807 15.3237 48.9903L77.0147 13.6043Z" fill="#521B6F"/>
</g>
<path d="M77.0142 2.78206C78.5536 1.89884 80.4462 1.89884 81.9856 2.78206L145.84 39.4163C147.392 40.3068 148.349 41.9595 148.349 43.749V116.963C148.349 118.752 147.392 120.405 145.84 121.296L81.9856 157.93C80.4462 158.813 78.5536 158.813 77.0142 157.93L13.1602 121.296C11.6081 120.405 10.6509 118.752 10.6509 116.963V43.749C10.6509 41.9595 11.6081 40.3068 13.1602 39.4163L77.0142 2.78206Z" fill="url(#paint0_linear_235_20583)"/>
<path d="M76.8715 51.7755C76.1353 51.8252 75.4389 51.8949 75.3295 51.9546C75.2201 52.0043 74.6032 52.1137 73.9566 52.2033C73.3 52.3028 72.7031 52.4122 72.6135 52.4619C72.514 52.5117 72.1061 52.6211 71.6982 52.7106C71.2904 52.8002 70.9123 52.9096 70.8526 52.9494C70.8029 52.9892 70.4646 53.1086 70.1065 53.2081C69.7483 53.2976 69.42 53.417 69.3603 53.4568C69.3106 53.5065 69.0022 53.616 68.6938 53.7055C68.3754 53.795 68.1168 53.9045 68.1168 53.9542C68.1168 53.994 67.9974 54.0637 67.8481 54.0935C67.4701 54.183 65.1322 55.3371 65.1322 55.4366C65.1322 55.4764 64.983 55.5559 64.8039 55.6256C64.6248 55.6853 64.396 55.8047 64.2866 55.8942C63.8289 56.2424 63.043 56.7398 62.9534 56.7398C62.8937 56.7398 62.8042 56.8294 62.7445 56.9388C62.6848 57.0482 62.5754 57.1378 62.4958 57.1378C62.4162 57.1378 62.2968 57.2273 62.2272 57.3367C62.1576 57.4462 62.0581 57.5357 62.0083 57.5357C61.9685 57.5357 61.7596 57.675 61.5606 57.8441C61.3617 58.0132 60.9339 58.3913 60.6056 58.6698C59.75 59.406 58.8049 60.391 57.8399 61.5649C57.0042 62.5697 57.0042 62.5697 56.8052 62.8781C56.7157 63.0273 56.6062 63.1766 56.5664 63.2064C56.5167 63.2462 56.1486 63.7834 55.8303 64.2908C55.7706 64.3803 55.6014 64.639 55.4522 64.8678C55.303 65.1066 55.1836 65.3354 55.1836 65.3851C55.1836 65.4349 55.1438 65.4946 55.104 65.5145C55.0145 65.5543 54.6265 66.2208 54.0793 67.2853C53.8704 67.6932 53.6615 68.0812 53.6117 68.131C53.562 68.1906 53.4426 68.4493 53.3431 68.708C53.2436 68.9666 53.1342 69.1756 53.1043 69.1756C53.0645 69.1756 52.9551 69.3845 52.8656 69.6531C52.7661 69.9118 52.587 70.3395 52.4477 70.6082C52.3085 70.8768 52.199 71.1852 52.199 71.2847C52.199 71.3841 52.1592 71.4637 52.1095 71.4637C52.0597 71.4637 51.9404 71.7025 51.8409 71.9811C51.7513 72.2696 51.6419 72.5282 51.6021 72.5581C51.5723 72.5879 51.4628 72.8665 51.3633 73.1749C51.2638 73.4932 51.1445 73.7718 51.1047 73.8017C51.0549 73.8315 50.9355 74.13 50.846 74.4483C50.7565 74.7766 50.647 75.0452 50.6172 75.0452C50.5774 75.0452 50.4879 75.2541 50.4182 75.5128C50.3486 75.7814 50.2292 76.0799 50.1596 76.1893C50.0999 76.2987 49.9606 76.637 49.8611 76.9355C49.7616 77.2339 49.6522 77.5025 49.6124 77.5324C49.5726 77.5622 49.4731 77.801 49.3736 78.0795C49.2841 78.3482 49.105 78.7958 48.9657 79.0645C48.8264 79.3331 48.717 79.6415 48.717 79.741C48.717 79.8404 48.6772 79.92 48.6275 79.92C48.5777 79.92 48.4583 80.1389 48.3589 80.4175C48.2594 80.6861 48.1499 80.9149 48.1101 80.9149C48.0704 80.9149 48.0107 81.0044 47.9709 81.1139C47.9112 81.3128 47.3043 82.3674 47.1451 82.5564C47.1053 82.6062 46.976 82.8151 46.8666 83.0041C46.7671 83.1931 46.598 83.412 46.5084 83.4816C46.4089 83.5513 46.3294 83.6607 46.3294 83.7204C46.3294 83.7801 46.2299 83.9293 46.1005 84.0487C45.9811 84.178 45.6827 84.5163 45.434 84.8147C44.7575 85.6206 42.2604 88.0779 42.1211 88.0779C42.0714 88.0779 41.7132 88.3863 40.8974 89.1424C40.7581 89.2717 40.6288 89.3712 40.589 89.3712C40.5592 89.3712 40.39 89.4906 40.211 89.6398C40.0319 89.799 39.7434 90.0278 39.5643 90.1671C39.1564 90.4755 38.7187 90.8436 38.4003 91.1321C38.271 91.2614 38.1417 91.3609 38.1019 91.3609C38.072 91.3609 37.883 91.5002 37.684 91.6693C37.4851 91.8285 37.1767 92.0872 36.9976 92.2364C35.6645 93.3407 34.4308 94.5544 34.3314 94.8628C34.3015 94.9623 34.2418 95.0419 34.202 95.0419C34.1622 95.0419 34.0428 95.2309 33.9334 95.4597C33.8339 95.6985 33.7046 95.9174 33.6549 95.9572C33.5255 96.0467 33.5156 97.5191 33.6449 97.6086C33.7046 97.6484 33.814 97.8374 33.9036 98.0265C34.1125 98.4741 34.9681 98.9915 35.6346 99.081C35.9132 99.1208 36.1619 99.2004 36.2017 99.2501C36.2813 99.3795 41.4645 99.3695 41.5441 99.2402C41.6436 99.0711 47.1949 98.9218 49.2642 99.0313C50.3287 99.081 51.1644 99.1706 51.1843 99.2203C51.2042 99.28 51.3633 99.3198 51.5325 99.3198C51.9404 99.3198 53.6217 99.6282 53.6913 99.7078C53.7212 99.7476 54.0793 99.857 54.4872 99.9565C54.8951 100.066 55.2532 100.175 55.2831 100.215C55.3129 100.255 55.5616 100.354 55.8303 100.454C56.1088 100.543 56.5465 100.723 56.8152 100.862C57.0838 101.001 57.3922 101.111 57.4917 101.111C57.5912 101.111 57.6707 101.15 57.6707 101.2C57.6707 101.25 57.8996 101.369 58.1682 101.469C58.4467 101.568 58.6656 101.678 58.6656 101.717C58.6656 101.757 58.8944 101.867 59.163 101.966C59.4416 102.066 59.6605 102.175 59.6605 102.215C59.6605 102.265 59.9092 102.374 60.2076 102.464C60.5061 102.563 60.7548 102.672 60.7548 102.712C60.7548 102.752 60.9836 102.861 61.2522 102.961C61.5308 103.06 61.7497 103.17 61.7497 103.21C61.7497 103.249 61.9785 103.359 62.2471 103.458C62.5257 103.558 62.7445 103.667 62.7445 103.707C62.7445 103.747 62.9733 103.856 63.2419 103.956C63.5205 104.055 63.7394 104.165 63.7394 104.195C63.7394 104.234 63.9881 104.344 64.2866 104.443C64.585 104.553 64.8337 104.672 64.8337 104.712C64.8337 104.752 64.8835 104.792 64.9332 104.792C64.9929 104.792 65.3809 104.951 65.7987 105.15C66.2066 105.339 66.6842 105.528 66.8334 105.558C66.9926 105.587 67.1219 105.647 67.1219 105.697C67.1219 105.737 67.3905 105.856 67.7188 105.946C68.0471 106.035 68.3157 106.145 68.3157 106.184C68.3157 106.224 68.6142 106.343 68.9922 106.443C69.3603 106.542 69.6787 106.652 69.7085 106.682C69.7384 106.722 70.0766 106.831 70.4547 106.93C70.8427 107.03 71.171 107.149 71.2008 107.179C71.2307 107.219 71.6585 107.328 72.1459 107.428C72.6434 107.527 73.0612 107.647 73.091 107.677C73.1507 107.756 75.0111 108.075 75.3991 108.075C75.5484 108.075 75.6777 108.114 75.6976 108.174C75.7175 108.224 76.6327 108.323 77.737 108.393C79.3189 108.482 80.1446 108.482 81.6568 108.393C82.7113 108.323 83.6067 108.234 83.6366 108.184C83.6664 108.134 83.9549 108.075 84.2832 108.035C85.1189 107.935 86.064 107.756 86.1237 107.677C86.1535 107.647 86.5316 107.537 86.9594 107.448C87.3971 107.358 87.7752 107.239 87.805 107.199C87.8349 107.149 88.193 107.03 88.591 106.93C88.9789 106.841 89.3072 106.731 89.3072 106.692C89.3072 106.662 89.5958 106.542 89.9539 106.433C90.3121 106.334 90.6006 106.204 90.6006 106.164C90.6006 106.125 90.8493 106.015 91.1477 105.926C91.4462 105.826 91.6949 105.727 91.6949 105.687C91.6949 105.657 91.9237 105.548 92.1923 105.438C92.4709 105.329 92.6898 105.209 92.6898 105.17C92.6898 105.13 92.8788 105.01 93.1176 104.891C93.8538 104.533 94.192 104.334 94.2616 104.234C94.3014 104.185 94.5203 104.055 94.7491 103.956C94.9779 103.856 95.1869 103.707 95.2167 103.637C95.2466 103.558 95.3361 103.498 95.4157 103.498C95.4953 103.498 95.6246 103.419 95.6942 103.319C95.7639 103.22 95.8932 103.11 95.9728 103.07C96.2613 102.941 96.52 102.752 96.6493 102.573C96.7189 102.483 96.8284 102.404 96.8881 102.404C96.9478 102.404 97.097 102.304 97.2164 102.185C97.3457 102.056 97.7238 101.707 98.072 101.409C99.0967 100.514 99.7533 99.8968 99.7533 99.8172C99.7533 99.7774 100.052 99.4392 100.41 99.0611C101.325 98.1061 101.544 97.8474 101.544 97.7777C101.544 97.738 101.703 97.5191 101.892 97.2903C102.081 97.0515 102.24 96.8127 102.24 96.7431C102.24 96.6834 102.29 96.6337 102.34 96.6337C102.4 96.6337 102.519 96.4745 102.609 96.2855C102.698 96.0964 102.807 95.9373 102.847 95.9373C102.897 95.9373 103.006 95.7681 103.106 95.5592C103.195 95.3602 103.315 95.1613 103.375 95.1215C103.474 95.0518 103.673 94.7136 104.041 93.9475C104.16 93.7088 104.31 93.4501 104.379 93.3904C104.439 93.3208 104.558 93.1218 104.628 92.9328C104.708 92.7537 104.797 92.5846 104.827 92.5547C104.857 92.5249 104.946 92.306 105.026 92.0673C105.106 91.8285 105.215 91.5798 105.275 91.5201C105.334 91.4604 105.474 91.1321 105.573 90.7839C105.673 90.4456 105.792 90.1671 105.832 90.1671C105.961 90.1671 106.13 89.2319 106.071 88.8539C106.001 88.436 105.593 87.8789 105.364 87.8789C105.285 87.8789 105.225 87.8292 105.225 87.7794C105.225 87.7197 105.006 87.6799 104.738 87.6799C104.18 87.6799 103.583 87.9684 103.484 88.2868C103.444 88.3863 103.384 88.4758 103.355 88.4758C103.315 88.4758 103.195 88.6947 103.086 88.9732C102.977 89.2419 102.857 89.4707 102.817 89.4707C102.778 89.4707 102.658 89.6597 102.559 89.8885C102.459 90.1273 102.3 90.376 102.211 90.4556C102.111 90.5252 102.041 90.6347 102.041 90.6844C102.041 90.7441 101.942 90.9132 101.823 91.0625C101.693 91.2216 101.435 91.5599 101.246 91.8285C101.057 92.0872 100.828 92.3757 100.748 92.4752C100.669 92.5647 100.47 92.8035 100.3 93.0024C100.012 93.3606 98.5992 94.7832 98.1416 95.1911C97.5646 95.6985 96.7886 96.3153 96.52 96.4844C96.3608 96.5939 96.2016 96.7033 96.1718 96.7431C96.1419 96.7729 95.9728 96.8824 95.8037 96.9719C95.6246 97.0615 95.4754 97.1709 95.4754 97.2107C95.4754 97.2505 95.3261 97.34 95.157 97.4196C94.9779 97.4992 94.7392 97.6385 94.6297 97.728C94.5203 97.8275 94.2616 97.9668 94.0627 98.0364C93.8538 98.1061 93.6846 98.1956 93.6846 98.2354C93.6846 98.2652 93.4757 98.3747 93.217 98.4741C92.9484 98.5736 92.6798 98.7229 92.6102 98.7925C92.5405 98.8621 92.4013 98.9218 92.3018 98.9218C92.2122 98.9218 91.9536 99.0114 91.7447 99.1208C91.5258 99.2302 91.0781 99.3994 90.7498 99.4889C90.4215 99.5784 90.133 99.6879 90.1031 99.7277C90.0733 99.7675 89.6753 99.867 89.2078 99.9664C88.7402 100.056 88.3223 100.165 88.2626 100.215C88.1134 100.325 86.7803 100.514 85.7059 100.583C85.1686 100.613 84.7309 100.683 84.7309 100.732C84.7309 100.772 84.1738 100.812 83.4873 100.812C82.7213 100.812 82.2438 100.772 82.2438 100.713C82.2438 100.653 82.005 100.613 81.7065 100.613C81.04 100.613 78.8314 100.315 78.7617 100.215C78.7319 100.175 78.2942 100.066 77.7967 99.9664C77.2894 99.8769 76.8715 99.7575 76.8715 99.7177C76.8715 99.668 76.6327 99.5784 76.3542 99.5188C76.0657 99.4491 75.6677 99.3098 75.4787 99.2203C75.2897 99.1208 74.9415 98.9915 74.7127 98.9218C74.4739 98.8522 74.2849 98.7627 74.2849 98.7229C74.2849 98.6831 74.076 98.5736 73.8173 98.4741C73.5487 98.3747 73.3199 98.2652 73.29 98.2254C73.2602 98.1856 73.0413 98.0563 72.7926 97.9469C72.335 97.728 72.2852 97.6982 71.5291 97.2007C71.3003 97.0515 71.0715 96.9321 71.0118 96.9321C70.9521 96.9321 70.8626 96.8426 70.8029 96.7331C70.7432 96.6237 70.6437 96.5342 70.5741 96.5342C70.5044 96.5342 70.2756 96.375 70.0567 96.186C69.8379 95.997 69.6389 95.8378 69.609 95.8378C69.4499 95.8378 66.8234 93.3108 66.8234 93.1716C66.8234 93.1218 66.724 93.0024 66.6046 92.883C66.3061 92.6244 65.9878 92.2463 65.7589 91.8882C65.6694 91.739 65.5301 91.5698 65.4605 91.53C65.3908 91.4902 65.3312 91.3908 65.3312 91.3211C65.3312 91.2515 65.2516 91.1122 65.1521 91.0028C65.0526 90.9033 64.8835 90.6546 64.774 90.4655C64.6745 90.2765 64.5552 90.0974 64.5253 90.0676C64.4955 90.0377 64.2766 89.6597 64.0378 89.222C63.7991 88.7842 63.5703 88.4062 63.5205 88.3962C63.4807 88.3763 63.4409 88.2868 63.4409 88.1973C63.4409 88.0978 63.3116 87.7794 63.1624 87.481C63.0131 87.1825 62.8241 86.7348 62.7445 86.4861C62.6649 86.2374 62.5754 86.0185 62.5455 85.9887C62.5058 85.9588 62.4262 85.7201 62.3565 85.4614C62.2172 84.8943 62.267 84.8147 62.9733 84.5461C63.232 84.4466 63.4409 84.3372 63.4409 84.3074C63.4409 84.2676 63.7095 84.1581 64.0378 84.0586C64.3661 83.9592 64.6348 83.8398 64.6348 83.8C64.6348 83.7502 64.8835 83.6408 65.1819 83.5513C65.4804 83.4518 65.7291 83.3423 65.7291 83.2926C65.7291 83.2528 65.9778 83.1434 66.2763 83.0538C66.5747 82.9742 66.8234 82.8648 66.8234 82.825C66.8234 82.7753 67.0722 82.6658 67.3706 82.5664C67.6691 82.4768 67.9178 82.3574 67.9178 82.3176C67.9178 82.2679 68.0471 82.2082 68.2063 82.1784C68.3655 82.1386 68.7833 81.9794 69.1315 81.8202C69.4698 81.661 69.8777 81.4919 70.0368 81.4621C70.1861 81.4223 70.3054 81.3626 70.3054 81.3228C70.3054 81.283 70.5641 81.1736 70.8725 81.0741C71.1909 80.9746 71.5391 80.8353 71.6485 80.7657C71.7579 80.696 72.0266 80.5866 72.2454 80.5169C72.4643 80.4473 72.6633 80.3578 72.6931 80.318C72.723 80.2881 73.0015 80.1787 73.3199 80.0792C73.6283 79.9797 73.8869 79.8703 73.8869 79.8305C73.8869 79.8006 74.1754 79.6813 74.5336 79.5818C74.8917 79.4823 75.1803 79.3729 75.1803 79.3331C75.1803 79.2933 75.4489 79.1838 75.7772 79.0943C76.1055 78.9948 76.3741 78.8854 76.3741 78.8456C76.3741 78.8058 76.6626 78.6864 77.0207 78.5869C77.3789 78.4874 77.6674 78.378 77.6674 78.3382C77.6674 78.2984 77.8763 78.2089 78.1449 78.1392C78.4036 78.0795 78.7916 77.9303 79.0105 77.8308C79.2293 77.7214 79.5974 77.5921 79.8362 77.5324C80.065 77.4727 80.254 77.3831 80.254 77.3334C80.254 77.2737 80.3137 77.2339 80.3933 77.2339C80.5724 77.2339 81.5871 76.9156 81.6468 76.836C81.6767 76.8061 81.8956 76.7166 82.1443 76.6469C82.393 76.5773 82.771 76.438 82.9998 76.3385C83.2187 76.2391 83.6067 76.0998 83.8654 76.0301C84.124 75.9704 84.333 75.8809 84.333 75.8312C84.333 75.7814 84.3926 75.7416 84.4722 75.7416C84.6513 75.7416 85.6661 75.4233 85.7258 75.3437C85.7556 75.3039 86.1038 75.1945 86.5017 75.095C86.8897 74.9955 87.218 74.8761 87.218 74.8264C87.218 74.7866 87.2777 74.7468 87.3573 74.7468C87.5463 74.7468 88.5512 74.4284 88.6108 74.3488C88.6407 74.309 88.9789 74.1996 89.357 74.1001C89.745 74.0006 90.0733 73.8812 90.1031 73.8414C90.133 73.8116 90.4911 73.6922 90.899 73.5927C91.3069 73.4932 91.6651 73.3838 91.6949 73.344C91.7248 73.3142 92.063 73.2047 92.4411 73.1053C92.829 73.0058 93.1574 72.8963 93.1872 72.8565C93.217 72.8167 93.5752 72.7073 93.9831 72.6078C94.391 72.5083 94.7491 72.3989 94.779 72.3591C94.8088 72.3193 95.167 72.2099 95.5749 72.1203C95.9827 72.0209 96.3608 71.9114 96.4205 71.8617C96.4802 71.8119 96.8582 71.7025 97.2661 71.603C97.674 71.5135 98.0322 71.404 98.062 71.3642C98.0919 71.3344 98.4898 71.215 98.9574 71.1255C99.425 71.026 99.8528 70.9066 99.9124 70.8569C99.9622 70.8171 100.37 70.6977 100.808 70.6082C101.236 70.5087 101.614 70.3992 101.643 70.3694C101.673 70.3296 102.111 70.2202 102.618 70.1207C103.116 70.0212 103.534 69.9018 103.534 69.872C103.534 69.8322 103.852 69.7426 104.24 69.673C105.155 69.5138 105.354 69.6133 105.583 70.3097C105.673 70.5883 105.782 70.8668 105.832 70.9265C105.882 70.9862 105.991 71.3443 106.081 71.7224C106.16 72.1004 106.27 72.4486 106.319 72.5083C106.359 72.5581 106.479 73.0456 106.578 73.5728C106.677 74.1101 106.787 74.5478 106.827 74.5478C106.867 74.5478 106.926 74.8264 106.966 75.1646C107.065 75.9605 107.334 76.2391 108.021 76.2391C108.518 76.2391 109.254 76.0003 109.483 75.7715C109.553 75.7018 109.672 75.6421 109.742 75.6421C109.811 75.6421 109.951 75.5626 110.06 75.4631C110.159 75.3636 110.408 75.2243 110.597 75.1547C110.786 75.0751 110.995 74.9656 111.045 74.896C111.105 74.8363 111.353 74.697 111.622 74.5975C111.881 74.4981 112.09 74.3787 112.09 74.3389C112.09 74.2891 112.269 74.1797 112.487 74.0902C112.706 74.0006 112.885 73.8912 112.885 73.8514C112.885 73.8017 113.045 73.7121 113.234 73.6524C113.423 73.5927 113.612 73.4833 113.651 73.4137C113.701 73.354 113.92 73.2147 114.159 73.1152C114.388 73.0058 114.577 72.8864 114.577 72.8366C114.577 72.7968 114.756 72.6874 114.975 72.5979C115.193 72.5083 115.373 72.3989 115.373 72.3591C115.373 72.3094 115.552 72.1999 115.77 72.1004C115.989 72.001 116.168 71.9015 116.168 71.8617C116.168 71.8318 116.338 71.7224 116.546 71.613C116.745 71.5035 116.954 71.3642 116.994 71.2946C117.034 71.225 117.123 71.1653 117.193 71.1653C117.263 71.1653 117.422 71.0757 117.561 70.9663C118.158 70.4987 118.715 70.1107 118.884 70.0411C118.974 70.0112 119.054 69.9317 119.054 69.872C119.054 69.8222 119.103 69.7725 119.163 69.7725C119.282 69.7725 120.158 69.1258 120.496 68.7776C120.615 68.6682 120.745 68.5786 120.785 68.5786C120.894 68.5786 120.944 68.5289 122.665 66.8575C123.411 66.1213 124.028 65.4747 124.028 65.415C124.028 65.3553 124.107 65.226 124.207 65.1265C124.306 65.027 124.456 64.7882 124.525 64.5992C124.605 64.4102 124.704 64.2212 124.754 64.1913C124.814 64.1515 124.873 63.7934 124.893 63.3954C124.943 62.709 124.923 62.6393 124.655 62.2613C124.495 62.0424 124.187 61.7738 123.968 61.6644C123.759 61.5549 123.56 61.4455 123.53 61.4157C123.421 61.2863 122.615 61.1172 121.899 61.0575C121.481 61.0177 121.143 60.9481 121.143 60.9083C121.143 60.8585 120.337 60.8187 119.352 60.8187C118.228 60.8187 117.561 60.8585 117.561 60.9182C117.561 60.9779 117.293 61.0177 116.964 61.0177C116.158 61.0177 113.383 61.3062 113.134 61.4057C113.025 61.4555 112.328 61.5748 111.592 61.6644C110.856 61.7639 110.209 61.8733 110.15 61.9131C110.1 61.9529 109.533 62.0623 108.906 62.1618C108.279 62.2613 107.722 62.3707 107.662 62.4105C107.613 62.4503 107.115 62.5597 106.568 62.6592C106.021 62.7488 105.533 62.8682 105.474 62.9079C105.424 62.9477 104.946 63.0572 104.429 63.1567C103.912 63.2561 103.464 63.3656 103.434 63.4054C103.404 63.4452 102.957 63.5546 102.439 63.6541C101.922 63.7536 101.474 63.863 101.445 63.9028C101.415 63.9327 100.997 64.052 100.499 64.1515C100.012 64.251 99.5841 64.3604 99.5543 64.4002C99.5244 64.44 99.1265 64.5495 98.6589 64.639C98.1913 64.7385 97.7735 64.8579 97.7138 64.8977C97.6641 64.9375 97.2761 65.0469 96.8682 65.1464C96.4603 65.2459 96.1021 65.3553 96.0723 65.3951C96.0424 65.4249 95.6644 65.5344 95.2366 65.6339C94.7989 65.7234 94.391 65.8428 94.3412 65.8925C94.2815 65.9323 93.9234 66.0517 93.5453 66.1313C93.1673 66.2208 92.8092 66.3303 92.7495 66.38C92.6898 66.4297 92.3316 66.5392 91.9436 66.6387C91.5656 66.7282 91.2074 66.8376 91.1477 66.8774C91.098 66.9172 90.7398 67.0366 90.3519 67.1361C89.9738 67.2356 89.6356 67.345 89.6057 67.3848C89.5759 67.4147 89.2476 67.534 88.8596 67.6335C88.4815 67.733 88.1433 67.8424 88.1134 67.8822C88.0836 67.9121 87.7553 68.0315 87.3673 68.131C86.9892 68.2304 86.651 68.3399 86.6211 68.3797C86.5913 68.4095 86.263 68.5289 85.875 68.6284C85.4969 68.7279 85.1587 68.8373 85.1288 68.8771C85.099 68.9169 84.8602 68.9965 84.5916 69.0661C84.3131 69.1358 83.9151 69.275 83.6962 69.3745C83.4674 69.474 83.0894 69.6033 82.8407 69.673C82.592 69.7426 82.3532 69.8322 82.2935 69.872C82.2438 69.9118 81.9254 70.0311 81.5971 70.1207C81.2688 70.2202 80.9604 70.3296 80.9007 70.3694C80.8509 70.4191 80.5326 70.5286 80.2043 70.6181C79.876 70.7176 79.5875 70.827 79.5576 70.8569C79.5278 70.8967 79.2393 71.0061 78.911 71.1056C78.5827 71.2051 78.2743 71.3245 78.2146 71.3642C78.1648 71.404 77.8763 71.5135 77.5779 71.603C77.2894 71.6926 76.9909 71.802 76.9312 71.8517C76.8715 71.8915 76.583 72.0109 76.2845 72.1104C75.996 72.1999 75.6379 72.3492 75.4887 72.4188C75.3494 72.4984 75.1803 72.5581 75.1106 72.5581C75.041 72.5581 74.7525 72.6675 74.464 72.7968C74.1754 72.9262 73.7477 73.0854 73.5188 73.145C73.2801 73.2147 73.091 73.3042 73.091 73.344C73.091 73.3938 72.9518 73.4534 72.7727 73.4932C72.6036 73.5231 72.2355 73.6624 71.9569 73.7917C71.6783 73.921 71.2605 74.0802 71.0317 74.1399C70.7929 74.2095 70.6039 74.2991 70.6039 74.3488C70.6039 74.3886 70.4547 74.4682 70.2855 74.4981C70.1065 74.5378 69.7782 74.6572 69.5593 74.7667C69.3404 74.8761 68.9624 75.0253 68.7137 75.1149C68.465 75.1945 68.2461 75.2939 68.2162 75.3337C68.1864 75.3636 67.9178 75.483 67.6193 75.5824C67.3209 75.6919 66.9826 75.8312 66.8732 75.9008C66.7637 75.9704 66.4852 76.0799 66.2564 76.1495C66.0176 76.2192 65.8286 76.3087 65.8286 76.3485C65.8286 76.3883 65.5799 76.4977 65.2814 76.5873C64.983 76.6867 64.7342 76.7962 64.7342 76.826C64.7342 76.8658 64.5353 76.9554 64.2766 77.025C64.0279 77.0946 63.7692 77.224 63.6896 77.2936C63.62 77.3732 63.4907 77.4329 63.4111 77.4329C63.3414 77.4329 63.0629 77.5423 62.8142 77.6717C62.5555 77.801 62.1377 77.9801 61.869 78.0795C61.6104 78.179 61.3716 78.3084 61.3318 78.3681C61.292 78.4277 61.2522 78.1492 61.2522 77.7413C61.2522 76.8559 61.4512 74.7169 61.5507 74.6473C61.5805 74.6174 61.6999 74.1399 61.7994 73.5728C61.8989 73.0157 62.0183 72.5581 62.0481 72.5581C62.0879 72.5581 62.1775 72.2795 62.2371 71.9313C62.3068 71.5931 62.4162 71.225 62.4958 71.1155C62.5654 71.0061 62.7047 70.638 62.8042 70.2898C62.9037 69.9515 63.0131 69.673 63.0529 69.673C63.0927 69.673 63.2022 69.4442 63.3016 69.1756C63.4011 68.897 63.5106 68.6781 63.5504 68.6781C63.5901 68.6781 63.6996 68.4493 63.7991 68.1807C63.8986 67.9021 64.008 67.6833 64.0378 67.6833C64.0776 67.6833 64.1871 67.4942 64.2965 67.2555C64.396 67.0267 64.5353 66.8078 64.595 66.768C64.6546 66.7282 64.7641 66.5591 64.8337 66.39C64.9034 66.2308 64.983 66.0915 65.0227 66.0915C65.0625 66.0915 65.172 65.9224 65.2814 65.7134C65.3908 65.5145 65.56 65.2857 65.6495 65.216C65.749 65.1464 65.8286 65.027 65.8286 64.9574C65.8286 64.8778 65.938 64.7484 66.0773 64.6589C66.2166 64.5694 66.326 64.45 66.326 64.4002C66.326 64.1416 69.2509 61.2167 69.5096 61.2167C69.5593 61.2167 69.6588 61.1272 69.7284 61.0177C69.7981 60.9083 69.8976 60.8187 69.9473 60.8187C69.997 60.8187 70.2259 60.6596 70.4646 60.4705C70.6934 60.2815 70.9322 60.1223 70.9919 60.1223C71.0416 60.1223 71.1312 60.0627 71.171 59.9831C71.2406 59.8637 71.4794 59.7145 72.4245 59.2071C72.6036 59.1175 72.7926 58.9982 72.8423 58.9484C72.902 58.8987 73.1308 58.7793 73.3696 58.6798C73.5984 58.5803 73.7875 58.4609 73.7875 58.4311C73.7875 58.4012 73.9864 58.3117 74.2451 58.2421C74.4938 58.1724 74.7425 58.053 74.8122 57.9933C74.8818 57.9337 75.2201 57.7944 75.5782 57.6849C75.9363 57.5855 76.2448 57.4661 76.2746 57.4362C76.3044 57.3964 76.6626 57.287 77.0705 57.1776C77.4784 57.0781 77.8365 56.9686 77.8664 56.9288C77.9261 56.8592 79.6671 56.5409 80.0153 56.5409C80.1347 56.5409 80.254 56.4812 80.2739 56.4115C80.3336 56.2424 86.2729 56.2324 86.6311 56.4115C86.7604 56.4712 87.3673 56.6005 87.9642 56.6901C88.5711 56.7896 89.0784 56.8891 89.1083 56.9288C89.1381 56.9686 89.4963 57.088 89.9042 57.1776C90.3121 57.277 90.6702 57.3964 90.7001 57.4263C90.7697 57.5258 91.9038 57.8342 92.1724 57.8342C92.5007 57.8342 93.1872 57.5258 93.1872 57.3765C93.1872 57.3069 93.2568 57.2074 93.3563 57.1577C93.4757 57.088 93.5155 56.909 93.5255 56.4513C93.5255 56.1031 93.4857 55.8047 93.426 55.7649C93.3663 55.7251 93.2668 55.5957 93.1971 55.4664C93.1375 55.347 92.9385 55.1779 92.7594 55.1083C92.5803 55.0287 92.3316 54.8894 92.1923 54.8098C91.6551 54.4914 89.9937 53.7552 89.5659 53.6359C89.3172 53.5662 89.1083 53.4866 89.1083 53.4468C89.1083 53.407 88.8098 53.2976 88.4417 53.1981C88.0637 53.1086 87.7254 52.9892 87.6657 52.9494C87.616 52.9096 87.1882 52.8002 86.7206 52.7007C86.253 52.6012 85.8551 52.4918 85.8252 52.452C85.7954 52.4122 85.2383 52.3028 84.5817 52.2132C83.9251 52.1137 83.2983 52.0043 83.1889 51.9546C82.96 51.8551 79.9456 51.666 78.911 51.6859C78.5329 51.6859 77.6077 51.7357 76.8715 51.7755Z" fill="white"/>
<defs>
<filter id="filter0_f_235_20583" x="8.53958" y="3.78428" width="141.92" height="159.803" filterUnits="userSpaceOnUse" color-interpolation-filters="sRGB">
<feFlood flood-opacity="0" result="BackgroundImageFix"/>
<feBlend mode="normal" in="SourceGraphic" in2="BackgroundImageFix" result="shape"/>
<feGaussianBlur stdDeviation="2.49755" result="effect1_foregroundBlur_235_20583"/>
</filter>
<filter id="filter1_f_235_20583" x="0.326235" y="0.454325" width="158.348" height="176.454" filterUnits="userSpaceOnUse" color-interpolation-filters="sRGB">
<feFlood flood-opacity="0" result="BackgroundImageFix"/>
<feBlend mode="normal" in="SourceGraphic" in2="BackgroundImageFix" result="shape"/>
<feGaussianBlur stdDeviation="6.24387" result="effect1_foregroundBlur_235_20583"/>
</filter>
<linearGradient id="paint0_linear_235_20583" x1="79.4999" y1="2.11964" x2="79.4999" y2="158.592" gradientUnits="userSpaceOnUse">
<stop stop-color="#A64ED4"/>
<stop offset="1" stop-color="#8E2FC1"/>
</linearGradient>
</defs>
</svg>
