<svg width="386" height="410" viewBox="0 0 386 410" fill="none" xmlns="http://www.w3.org/2000/svg">
<g opacity="0.3" filter="url(#filter0_f_233_23623)">
<path d="M190 11.7321C191.856 10.6603 194.144 10.6603 196 11.7321L353.679 102.768C355.535 103.84 356.679 105.821 356.679 107.964V290.036C356.679 292.18 355.535 294.16 353.679 295.232L196 386.268C194.144 387.34 191.856 387.34 190 386.268L32.3212 295.232C30.4648 294.16 29.3212 292.18 29.3212 290.036V107.964C29.3212 105.821 30.4648 103.84 32.3212 102.768L190 11.7321Z" fill="#073B54"/>
</g>
<g opacity="0.4" filter="url(#filter1_f_233_23623)">
<path d="M190 16.7321C191.856 15.6603 194.144 15.6603 196 16.7321L354.545 108.268C356.401 109.34 357.545 111.321 357.545 113.464V296.536C357.545 298.68 356.401 300.66 354.545 301.732L196 393.268C194.144 394.34 191.856 394.34 190 393.268L31.4552 301.732C29.5988 300.66 28.4552 298.68 28.4552 296.536V113.464C28.4552 111.321 29.5988 109.34 31.4552 108.268L190 16.7321Z" fill="#073B54"/>
</g>
<path d="M190 3.73207C191.856 2.66027 194.144 2.66027 196 3.73207L357.143 96.768C358.999 97.8398 360.143 99.8205 360.143 101.964V288.036C360.143 290.18 358.999 292.16 357.143 293.232L196 386.268C194.144 387.34 191.856 387.34 190 386.268L28.8571 293.232C27.0006 292.16 25.8571 290.18 25.8571 288.036V101.964C25.8571 99.8205 27.0006 97.8398 28.8571 96.768L190 3.73207Z" fill="url(#paint0_linear_233_23623)"/>
<path d="M106.995 144.859H126.944V202.082H140.734V218.678H126.944V235.141H107.798V218.678H60V202.215L106.995 144.859ZM107.798 202.082V169.155L80.8865 202.082H107.798Z" fill="white"/>
<path d="M160.854 223.989C153.981 215.226 150.545 203.896 150.545 190C150.545 176.104 153.981 164.818 160.854 156.144C167.816 147.381 178.215 143 192.05 143C205.885 143 216.239 147.381 223.112 156.144C230.074 164.818 233.555 176.104 233.555 190C233.555 203.896 230.074 215.226 223.112 223.989C216.239 232.663 205.885 237 192.05 237C178.215 237 167.816 232.663 160.854 223.989ZM192.05 219.475C206.332 219.475 213.472 209.65 213.472 190C213.472 170.35 206.332 160.525 192.05 160.525C177.769 160.525 170.628 170.35 170.628 190C170.628 209.65 177.769 219.475 192.05 219.475Z" fill="white"/>
<path d="M289.26 144.859H309.21V202.082H323V218.678H309.21V235.141H290.064V218.678H242.266V202.215L289.26 144.859ZM290.064 202.082V169.155L263.152 202.082H290.064Z" fill="white"/>
<defs>
<filter id="filter0_f_233_23623" x="23.3212" y="4.92822" width="339.358" height="388.144" filterUnits="userSpaceOnUse" color-interpolation-filters="sRGB">
<feFlood flood-opacity="0" result="BackgroundImageFix"/>
<feBlend mode="normal" in="SourceGraphic" in2="BackgroundImageFix" result="shape"/>
<feGaussianBlur stdDeviation="3" result="effect1_foregroundBlur_233_23623"/>
</filter>
<filter id="filter1_f_233_23623" x="13.4552" y="0.928223" width="359.09" height="408.144" filterUnits="userSpaceOnUse" color-interpolation-filters="sRGB">
<feFlood flood-opacity="0" result="BackgroundImageFix"/>
<feBlend mode="normal" in="SourceGraphic" in2="BackgroundImageFix" result="shape"/>
<feGaussianBlur stdDeviation="7.5" result="effect1_foregroundBlur_233_23623"/>
</filter>
<linearGradient id="paint0_linear_233_23623" x1="193" y1="2.92822" x2="193" y2="387.072" gradientUnits="userSpaceOnUse">
<stop stop-color="#149DE1"/>
<stop offset="1" stop-color="#107CB2"/>
</linearGradient>
</defs>
</svg>
