<svg width="40" height="40" viewBox="0 0 40 40" fill="none" xmlns="http://www.w3.org/2000/svg">
<path d="M20.0001 36.0361C28.8732 36.0361 36.0662 28.843 36.0662 19.97C36.0662 11.097 28.8732 3.90393 20.0001 3.90393C11.1271 3.90393 3.93408 11.097 3.93408 19.97C3.93408 28.843 11.1271 36.0361 20.0001 36.0361Z" fill="#7392E1"/>
<path fill-rule="evenodd" clip-rule="evenodd" d="M20 1.5015C9.784 1.5015 1.5015 9.78399 1.5015 20C1.5015 30.216 9.784 38.4985 20 38.4985C23.5492 38.4985 26.8678 37.4889 29.6981 35.7561C30.0517 35.5396 30.5139 35.6508 30.7304 36.0044C30.9469 36.358 30.8357 36.8202 30.4821 37.0367C27.4265 38.9074 23.8382 40 20 40C8.95474 40 0 31.0452 0 20C0 8.95473 8.95474 0 20 0C23.649 0 27.0516 0.967478 30.0158 2.68361C30.3746 2.89135 30.4971 3.35065 30.2894 3.70948C30.0816 4.06831 29.6223 4.19079 29.2635 3.98305C26.522 2.39587 23.3781 1.5015 20 1.5015Z" fill="#ACBFEB"/>
<path fill-rule="evenodd" clip-rule="evenodd" d="M36.2256 9.56347C36.5827 9.35292 37.043 9.47179 37.2535 9.82898C39.0024 12.7958 40.0002 16.2906 40.0002 19.97C40.0002 24.3991 38.5647 28.4881 36.1304 31.7963C35.8846 32.1303 35.4147 32.2018 35.0807 31.9561C34.7468 31.7103 34.6753 31.2404 34.921 30.9064C37.1713 27.8483 38.4987 24.0694 38.4987 19.97C38.4987 16.5623 37.5745 13.3303 35.96 10.5915C35.7495 10.2343 35.8684 9.77403 36.2256 9.56347Z" fill="#ACBFEB"/>
<path d="M19.2229 10.0436C18.6221 10.1571 18.1599 10.3588 17.6893 10.7075C16.1052 11.8756 15.7186 14.0941 16.8153 15.737C18.2733 17.9177 21.4919 17.9177 22.9499 15.737C24.3575 13.6319 23.2692 10.7453 20.828 10.1109C20.3952 9.99742 19.6347 9.96381 19.2229 10.0436ZM20.5633 11.6571C21.0885 11.8462 21.5465 12.2622 21.7944 12.779C22.1095 13.4345 22.1053 13.9387 21.786 14.6068C21.4919 15.2202 20.8826 15.6698 20.1851 15.7916C19.3237 15.9387 18.3741 15.4261 17.9792 14.6068C17.6598 13.9387 17.6556 13.4345 17.9708 12.7748C18.2691 12.1571 18.7817 11.7538 19.5254 11.5647C19.7061 11.5185 20.328 11.5773 20.5633 11.6571Z" fill="#232D44"/>
<path d="M17.6345 18.754C17.0505 18.838 16.269 19.1573 15.7899 19.4977C15.3824 19.7876 14.8067 20.4179 14.5546 20.8464C14.3235 21.2456 14.1176 21.817 14.042 22.2582C14.0168 22.4263 14 23.6532 14 25.481C14 27.9432 14.0084 28.4516 14.0588 28.5483C14.1387 28.6995 14.3319 28.876 14.4748 28.9306C14.8488 29.0735 15.332 28.8634 15.4664 28.502C15.4958 28.4222 15.5126 27.5188 15.5126 25.7709C15.5126 24.3339 15.5336 22.9851 15.5547 22.7708C15.6261 22.0902 15.8866 21.5439 16.3572 21.0775C16.6723 20.7624 16.9748 20.5733 17.4118 20.4137L17.7186 20.3002H19.8825H22.0464L22.3531 20.4137C22.7901 20.5733 23.0926 20.7624 23.4077 21.0775C23.8783 21.5439 24.1388 22.0902 24.2103 22.7708C24.2313 22.9851 24.2523 24.3339 24.2523 25.7709C24.2523 27.5188 24.2691 28.4222 24.2985 28.502C24.4372 28.876 24.933 29.0777 25.3153 28.918C25.4708 28.855 25.7103 28.5987 25.7439 28.46C25.7565 28.4096 25.7607 26.9768 25.7565 25.2793L25.7439 22.191L25.6263 21.8128C25.3826 21.0313 25.0632 20.5061 24.4792 19.9389C24.0338 19.5103 23.8237 19.3632 23.3153 19.1237C22.5212 18.7498 22.559 18.754 20.0085 18.7414C18.7732 18.7372 17.706 18.7414 17.6345 18.754Z" fill="#232D44"/>
<path d="M19.5883 22.4683C19.4538 22.5229 19.2605 22.7036 19.1849 22.8507C19.1429 22.9347 19.1261 23.1322 19.1261 23.5986V24.2289H18.521C18.1849 24.2289 17.8614 24.2499 17.7941 24.2751C17.5168 24.3801 17.3193 24.6742 17.3193 24.9852C17.3193 25.2121 17.4034 25.3969 17.5882 25.5734L17.7437 25.7205L18.437 25.7331L19.1261 25.7457V26.3759C19.1261 27.0566 19.1471 27.1407 19.3656 27.3466C19.6555 27.6197 20.1093 27.6197 20.3992 27.3466C20.6177 27.1407 20.6387 27.0566 20.6387 26.3759V25.7457L21.3278 25.7331L22.0211 25.7205L22.1766 25.5734C22.5127 25.2499 22.5421 24.7877 22.2438 24.4641C22.0505 24.2625 21.9203 24.2289 21.248 24.2289H20.6387V23.5986C20.6387 23.1322 20.6219 22.9347 20.5799 22.8507C20.5001 22.6994 20.3068 22.5229 20.1639 22.4683C20.0169 22.4137 19.7311 22.4137 19.5883 22.4683Z" fill="#232D44"/>
</svg>
